<svg width="782" height="286" viewBox="0 0 782 286" fill="none" xmlns="http://www.w3.org/2000/svg">
<path d="M383.99 283.924H501.14M383.99 283.924V259.393H501.14V283.924M383.99 283.924H150.19M2 95.1823V283.924H73.0911H150.19M2 95.1823V2.0629H150.19M2 95.1823C122.432 116.883 149.011 163.145 150.19 283.924M501.14 283.924H525.671M501.14 189.804H383.99M501.14 189.804V121.216M501.14 189.804V216.5H383.99V189.804M383.99 189.804V58.1348M150.19 2.0629V58.1348H236.801M150.19 2.0629H236.801M383.99 58.1348V2.0629H236.801M383.99 58.1348H236.801M501.14 121.216V81.1643H740.947V121.216M501.14 121.216H740.947M740.947 121.216V152.756V223.847H770.485M236.801 2.0629V58.1348M782 252.384H753.964M753.964 252.384L770.485 239.868M753.964 252.384L770.485 267.403M525.671 283.924V259.393H551.705V283.924M525.671 283.924H551.705M551.705 283.924H565.723M565.723 283.924V259.393H590.755V283.924M565.723 283.924H590.755M590.755 283.924H606.775M770.485 283.924H740.947H685.877M665.851 283.924V259.393V224.598M665.851 283.924H685.877M665.851 283.924H633.81M665.851 189.804V224.598M685.877 283.924V223.847L665.851 224.598M606.775 283.924V259.393H633.81V283.924M606.775 283.924H633.81M236.801 128.725V179.791H290.37V128.725H236.801Z" stroke="white" stroke-width="3"/>
</svg>
