<svg width="785" height="284" viewBox="0 0 785 284" fill="none" xmlns="http://www.w3.org/2000/svg">
<path d="M381.07 281.707H497.325M381.07 281.707V256.866H497.325V281.707M381.07 281.707H314.994M2 94.4076V281.707H149.057M2 94.4076V2H72.5478M2 94.4076L72.5478 57.6433M72.5478 57.6433V2M72.5478 57.6433L127.694 102.357M72.5478 2H149.057H381.07V57.6433M497.325 281.707H735.299H767.592M381.07 188.306H497.325V80.4968H524.65H569.363M381.07 188.306V125.707M381.07 188.306H348.777V125.707H381.07M381.07 57.6433L330.892 80.4968L127.694 102.357M381.07 57.6433V108.815V125.707M127.694 102.357C127.694 102.357 152.103 295.92 149.057 281.707M149.057 281.707H174.892M767.592 223.58H735.299V188.306M735.299 188.306V80.4968H569.363M735.299 188.306H569.363V125.707M752.688 251.401H782M782 251.401L767.592 236.497M782 251.401L767.592 267.299M569.363 80.4968V125.707M500.306 125.707H569.363M174.892 281.707V256.866H314.994V281.707M174.892 281.707H314.994" stroke="#F5F5F5" stroke-width="3"/>
</svg>
