<svg width="40" height="30" viewBox="0 0 40 30" fill="none" xmlns="http://www.w3.org/2000/svg">
<g clip-path="url(#clip0_30_193)">
<path d="M0 23.9095V27.616H5.71016L6.34375 27.6172C6.33766 27.673 6.33125 27.7349 6.33125 27.7908C6.33125 28.7722 7.125 29.5656 8.10641 29.5656C9.08148 29.5656 9.87523 28.7722 9.87523 27.7908C9.87523 27.7346 9.87523 27.672 9.86883 27.616H11.1884L11.3252 27.6172C11.3191 27.673 11.3188 27.7349 11.3188 27.7908C11.3188 28.7722 12.1125 29.5656 13.0875 29.5656C14.069 29.5656 14.8627 28.7722 14.8627 27.7908C14.8627 27.7346 14.8627 27.672 14.8563 27.616H25.1187H25.1377C25.1377 27.672 25.1312 27.7346 25.1312 27.7908C25.1312 28.7722 25.925 29.5656 26.9064 29.5656C27.8812 29.5656 28.6752 28.7722 28.6752 27.7908C28.6752 27.7346 28.6752 27.672 28.6688 27.616H29.9881L30.1252 27.6172C30.1191 27.673 30.1187 27.7349 30.1187 27.7908C30.1187 28.7722 30.9126 29.5656 31.8876 29.5656C32.869 29.5656 33.6625 28.7722 33.6625 27.7908C33.6625 27.7346 33.6564 27.672 33.6564 27.616H39.9684H39.9876H40V23.9095H0Z" fill="white"/>
<path d="M38.4375 9.60327H1.55641C0.693672 9.60327 0 10.3033 0 11.1597V22.6596H40V11.1597C40 10.3033 39.2999 9.60327 38.4375 9.60327ZM37.4439 13.5034V19.7409H33.1876V12.1533H36.0938C36.8374 12.1533 37.4439 12.7598 37.4439 13.5034ZM31.7002 12.1533V19.7409H24.8938V12.1533H31.7002ZM23.3999 19.7409H16.5939V12.1533H23.3999V19.7302V19.7409ZM15.1062 12.1533V19.7409H8.29375V12.1533H15.1062ZM6.80633 19.7409H2.55008V13.5034C2.55008 12.7598 3.15648 12.1533 3.90016 12.1533H6.80633V19.7302V19.7409Z" fill="white"/>
<path d="M10.1166 8.51652C10.2829 8.68254 10.5008 8.76582 10.7184 8.76582C10.9363 8.76582 11.1542 8.68254 11.3202 8.51652C11.6525 8.18418 11.6525 7.64527 11.3202 7.31292L8.60754 4.59996L11.3202 1.8873C11.6525 1.55464 11.6525 1.01597 11.3202 0.683706C10.9879 0.351362 10.4493 0.351362 10.1166 0.683706L6.21738 4.58293L6.2091 4.59121L6.2002 4.60003L10.1166 8.51652Z" fill="white"/>
</g>
<defs>
<clipPath id="clip0_30_193">
<rect width="40" height="30" fill="white"/>
</clipPath>
</defs>
</svg>
