<svg width="31" height="22" viewBox="0 0 31 22" fill="none" xmlns="http://www.w3.org/2000/svg">
<path d="M0.304688 17.6821V20.4619H4.65252L5.13495 20.4629C5.13031 20.5047 5.12544 20.5512 5.12544 20.5931C5.12544 21.3291 5.72981 21.9242 6.47708 21.9242C7.21952 21.9242 7.8239 21.3291 7.8239 20.5931C7.8239 20.5509 7.8239 20.504 7.81902 20.4619H8.8238L8.9279 20.4629C8.92326 20.5047 8.92303 20.5512 8.92303 20.5931C8.92303 21.3291 9.5274 21.9242 10.2698 21.9242C11.0171 21.9242 11.6215 21.3291 11.6215 20.5931C11.6215 20.5509 11.6215 20.504 11.6166 20.4619H19.4306H19.445C19.445 20.504 19.4402 20.5509 19.4402 20.5931C19.4402 21.3291 20.0445 21.9242 20.7918 21.9242C21.534 21.9242 22.1386 21.3291 22.1386 20.5931C22.1386 20.5509 22.1386 20.504 22.1337 20.4619H23.1383L23.2426 20.4629C23.238 20.5047 23.2377 20.5512 23.2377 20.5931C23.2377 21.3291 23.8422 21.9242 24.5846 21.9242C25.3318 21.9242 25.936 21.3291 25.936 20.5931C25.936 20.5509 25.9314 20.504 25.9314 20.4619H30.7374H30.7521H30.7615V17.6821H0.304688Z" fill="black"/>
<path d="M29.5718 6.95239H1.48977C0.832864 6.95239 0.304688 7.47745 0.304688 8.1197V16.7446H30.7615V8.1197C30.7615 7.47745 30.2285 6.95239 29.5718 6.95239ZM28.8153 9.87751V14.5556H25.5744V8.86495H27.7872C28.3535 8.86495 28.8153 9.31976 28.8153 9.87751ZM24.4419 8.86495V14.5556H19.2594V8.86495H24.4419ZM18.1219 14.5556H12.9396V8.86495H18.1219V14.5476V14.5556ZM11.8068 8.86495V14.5556H6.61973V8.86495H11.8068ZM5.48717 14.5556H2.24637V9.87751C2.24637 9.31976 2.7081 8.86495 3.27435 8.86495H5.48717V14.5476V14.5556Z" fill="black"/>
<path d="M8.00743 6.13736C8.13407 6.26187 8.29998 6.32433 8.46565 6.32433C8.63155 6.32433 8.79746 6.26187 8.92387 6.13736C9.17692 5.8881 9.17692 5.48392 8.92387 5.23466L6.85839 3.19994L8.92387 1.16544C9.17692 0.915952 9.17692 0.511948 8.92387 0.262749C8.67081 0.0134912 8.26072 0.0134912 8.00743 0.262749L5.03848 3.18716L5.03217 3.19337L5.02539 3.19999L8.00743 6.13736Z" fill="black"/>
</svg>
