<svg width="33" height="33" viewBox="0 0 33 33" fill="none" xmlns="http://www.w3.org/2000/svg">
<path d="M16.5002 8.48822C12.0666 8.48822 8.48847 12.0663 8.48847 16.4999C8.48847 20.9335 12.0666 24.5117 16.5002 24.5117C20.9338 24.5117 24.5119 20.9335 24.5119 16.4999C24.5119 12.0663 20.9338 8.48822 16.5002 8.48822ZM16.5002 21.707C13.633 21.707 11.2932 19.3671 11.2932 16.4999C11.2932 13.6328 13.633 11.2929 16.5002 11.2929C19.3674 11.2929 21.7072 13.6328 21.7072 16.4999C21.7072 19.3671 19.3674 21.707 16.5002 21.707ZM24.84 6.29291C23.8049 6.29291 22.9689 7.12885 22.9689 8.164C22.9689 9.19916 23.8049 10.0351 24.84 10.0351C25.8752 10.0351 26.7111 9.20307 26.7111 8.164C26.7114 7.9182 26.6632 7.67475 26.5693 7.4476C26.4754 7.22045 26.3376 7.01406 26.1638 6.84025C25.99 6.66644 25.7836 6.52863 25.5564 6.43471C25.3293 6.34079 25.0858 6.2926 24.84 6.29291ZM32.1174 16.4999C32.1174 14.3437 32.1369 12.207 32.0158 10.0546C31.8947 7.55463 31.3244 5.33588 29.4963 3.50775C27.6643 1.67572 25.4494 1.10932 22.9494 0.988222C20.7932 0.867129 18.6564 0.88666 16.5041 0.88666C14.3478 0.88666 12.2111 0.867129 10.0588 0.988222C7.55878 1.10932 5.34003 1.67963 3.5119 3.50775C1.67987 5.33979 1.11347 7.55463 0.992373 10.0546C0.871279 12.2109 0.89081 14.3476 0.89081 16.4999C0.89081 18.6523 0.871279 20.7929 0.992373 22.9453C1.11347 25.4453 1.68378 27.664 3.5119 29.4921C5.34394 31.3242 7.55878 31.8906 10.0588 32.0117C12.215 32.1328 14.3517 32.1132 16.5041 32.1132C18.6603 32.1132 20.7971 32.1328 22.9494 32.0117C25.4494 31.8906 27.6682 31.3203 29.4963 29.4921C31.3283 27.6601 31.8947 25.4453 32.0158 22.9453C32.1408 20.7929 32.1174 18.6562 32.1174 16.4999ZM28.6799 25.7109C28.3947 26.4218 28.051 26.9531 27.5002 27.4999C26.9494 28.0507 26.4221 28.3945 25.7111 28.6796C23.6564 29.496 18.7775 29.3124 16.5002 29.3124C14.2228 29.3124 9.34003 29.496 7.28534 28.6835C6.5744 28.3984 6.04315 28.0546 5.49628 27.5039C4.9455 26.9531 4.60175 26.4257 4.31659 25.7148C3.50409 23.6562 3.68769 18.7773 3.68769 16.4999C3.68769 14.2226 3.50409 9.33979 4.31659 7.2851C4.60175 6.57416 4.9455 6.04291 5.49628 5.49604C6.04706 4.94916 6.5744 4.6015 7.28534 4.31635C9.34003 3.50385 14.2228 3.68744 16.5002 3.68744C18.7775 3.68744 23.6603 3.50385 25.715 4.31635C26.426 4.6015 26.9572 4.94525 27.5041 5.49604C28.0549 6.04682 28.3986 6.57416 28.6838 7.2851C29.4963 9.33979 29.3127 14.2226 29.3127 16.4999C29.3127 18.7773 29.4963 23.6562 28.6799 25.7109Z" fill="white"/>
</svg>
