<svg width="35" height="35" viewBox="0 0 35 35" fill="none" xmlns="http://www.w3.org/2000/svg">
<path d="M34.4664 13.2051C34.3407 12.7079 34.1904 12.2115 34.0208 11.7338C33.9367 11.4852 33.8446 11.2368 33.7465 10.9944C33.5514 10.5052 33.3233 10.0091 33.0696 9.52119C30.0178 3.58349 23.9861 -0.0645767 17.3291 0.00111668C10.67 0.0668101 4.71046 3.83294 1.77695 9.82826C1.53209 10.3223 1.31389 10.823 1.12911 11.3143C1.03512 11.5605 0.948095 11.8104 0.870644 12.0555C0.708837 12.5416 0.568085 13.0412 0.451874 13.5402C0.139198 14.886 -0.0127649 16.2756 0.000838622 17.6709C0.0147156 19.0685 0.193954 20.456 0.533632 21.7954C0.659072 22.2918 0.809667 22.7885 0.978994 23.2651C1.0695 23.5359 1.17074 23.7924 1.25694 24.0061C1.45108 24.4924 1.67858 24.9885 1.93356 25.479C4.98226 31.4169 11.0138 35.0651 17.6743 34.9994C24.3327 34.9337 30.2895 31.1675 33.2197 25.1722C33.4659 24.675 33.6838 24.1746 33.8675 23.6862C33.9502 23.4691 34.0467 23.2104 34.1294 22.9447C34.2915 22.4584 34.4322 21.9588 34.5481 21.4603C34.8611 20.1142 35.0128 18.7235 34.9992 17.3259C34.9853 15.9306 34.8061 14.5442 34.4664 13.2051ZM29.9639 9.90141C30.0287 10.0063 30.0888 10.1164 30.1505 10.2247L30.1635 10.2552L25.4633 10.3014C25.3952 10.1201 25.3266 9.93825 25.2534 9.76072C24.2524 7.26909 22.9004 5.10087 21.5482 3.47302C25.0588 4.48392 28.0389 6.75427 29.9639 9.90141ZM24.7649 17.4268C24.7787 18.8279 24.6145 20.1836 24.3205 21.4755C24.2522 21.7818 24.1739 22.0837 24.0919 22.3829L11.006 22.5118C10.918 22.2146 10.834 21.9139 10.7594 21.609C10.4403 20.3233 10.2491 18.9711 10.2353 17.57C10.2217 16.1729 10.3859 14.8132 10.6799 13.5251C10.7482 13.2188 10.8268 12.9168 10.9095 12.6177L23.9942 12.4887C24.0828 12.7861 24.1664 13.0865 24.241 13.3914C24.5601 14.6735 24.7509 16.0295 24.7649 17.4268ZM16.7166 2.92505C16.93 2.91357 17.1435 2.89942 17.358 2.8973C17.5727 2.89518 17.7863 2.9053 17.9999 2.91248C19.2576 3.83854 21.4392 6.36538 22.9823 9.7828C23.0419 9.91255 23.0982 10.0458 23.1551 10.1781C23.1741 10.2277 23.1965 10.2723 23.2143 10.3239L14.8089 10.4067L11.6429 10.4336C11.7158 10.2517 11.7893 10.0701 11.8667 9.89259C13.3451 6.44556 15.4773 3.87566 16.7166 2.92505ZM4.88621 10.1474C6.75065 6.96496 9.68792 4.63541 13.1796 3.55205C11.8591 5.20737 10.5475 7.40444 9.59577 9.9148C9.52604 10.0942 9.46117 10.2771 9.39657 10.46L6.23337 10.4913L4.69105 10.5012C4.75585 10.3831 4.81867 10.2622 4.88621 10.1474ZM3.81406 22.5828C3.69252 22.2603 3.5772 21.9289 3.47678 21.5831C3.10531 20.3099 2.91063 18.9838 2.8973 17.6426C2.88397 16.2994 3.05275 14.9718 3.39878 13.694C3.49223 13.3477 3.60092 13.0144 3.71651 12.6884L7.7489 12.6486L8.7436 12.6416C8.66963 12.9409 8.60045 13.2424 8.54091 13.546C8.27499 14.8592 8.13158 16.2149 8.14518 17.5903C8.15878 18.9663 8.32886 20.3223 8.62048 21.63C8.67626 21.8804 8.73929 22.1258 8.80341 22.3704C8.81592 22.4252 8.82898 22.4778 8.84128 22.5331L3.81406 22.5828ZM5.03278 25.0991C4.9623 24.9848 4.89654 24.8635 4.82845 24.7452L9.538 24.6988C9.60609 24.8807 9.675 25.0619 9.74684 25.2398C10.5671 27.2817 11.6265 29.1028 12.7261 30.5921C12.9597 30.913 13.1968 31.2274 13.4401 31.5256C9.93462 30.5093 6.9575 28.2409 5.03278 25.0991ZM18.2862 32.0754C18.0728 32.0867 17.8603 32.1008 17.6458 32.1029C17.4312 32.1053 17.2175 32.0952 17.0037 32.088C15.746 31.1625 13.5638 28.6375 12.018 25.2174C11.9363 25.0403 11.8589 24.8585 11.7816 24.6767L20.1794 24.5942L23.3573 24.567C23.2841 24.7488 23.211 24.9304 23.1335 25.108C21.6553 28.5576 19.5231 31.1253 18.2862 32.0754ZM30.1102 24.8531C28.6611 27.3311 26.5563 29.2812 24.0502 30.5375C23.3408 30.8911 22.6037 31.1963 21.8342 31.431C23.1506 29.7784 24.4553 27.5895 25.4046 25.0854C25.4729 24.9059 25.5381 24.7233 25.6029 24.5404L28.7491 24.5093L30.3053 24.4992C30.2404 24.6176 30.1783 24.738 30.1102 24.8531ZM31.601 21.3061C31.5081 21.6525 31.3994 21.9861 31.2835 22.3121L27.2253 22.3518L26.2549 22.3591C26.3283 22.0608 26.3978 21.7601 26.4594 21.4544C26.7251 20.1412 26.8685 18.782 26.8552 17.406C26.8415 16.0306 26.6712 14.6781 26.3796 13.3702C26.3139 13.0669 26.2386 12.7662 26.1585 12.4674L31.1863 12.4178C31.3079 12.74 31.4232 13.0714 31.5233 13.4178C31.8948 14.6872 32.0898 16.0117 32.1028 17.3546C32.1161 18.696 31.9473 20.0253 31.601 21.3061Z" fill="white"/>
</svg>
