<svg width="106" height="25" viewBox="0 0 106 25" fill="none" xmlns="http://www.w3.org/2000/svg">
<path d="M52.9196 7.9165C55.1243 7.9165 56.8645 8.56217 58.1401 9.85351C59.4157 11.1291 60.0535 12.9637 60.0535 15.3574V24.6409H57.6913V20.0819H48.148V24.6409H45.833V15.3574C45.833 12.9637 46.4708 11.1291 47.7464 9.85351C49.022 8.56217 50.7464 7.9165 52.9196 7.9165ZM57.6913 18.0267V15.1448C57.6913 13.4598 57.2661 12.1842 56.4157 11.3181C55.581 10.4519 54.4157 10.0189 52.9196 10.0189C51.4236 10.0189 50.2503 10.4519 49.3999 11.3181C48.5653 12.1842 48.148 13.4598 48.148 15.1448V18.0267H57.6913ZM75.5505 11.6724C73.9442 10.759 72.2277 10.2157 70.4009 10.0425V24.6409H68.0623V10.0425C66.2198 10.2157 64.4954 10.759 62.8891 11.6724L62.0623 9.80627C64.1726 8.54643 66.5505 7.9165 69.1962 7.9165C71.8734 7.9165 74.2671 8.54643 76.3773 9.80627L75.5505 11.6724ZM85.989 24.8299C84.3197 24.8299 82.8158 24.4677 81.4772 23.7433C80.1386 23.0031 79.0835 21.9874 78.3118 20.696C77.5559 19.4047 77.178 17.9637 77.178 16.3732C77.178 14.7826 77.5559 13.3417 78.3118 12.0504C79.0835 10.759 80.1386 9.75115 81.4772 9.02674C82.8158 8.28658 84.3197 7.9165 85.989 7.9165C87.6426 7.9165 89.1386 8.28658 90.4772 9.02674C91.8158 9.75115 92.863 10.759 93.6189 12.0504C94.3748 13.326 94.7528 14.7669 94.7528 16.3732C94.7528 17.9795 94.3748 19.4283 93.6189 20.7197C92.863 21.9952 91.8158 23.0031 90.4772 23.7433C89.1386 24.4677 87.6426 24.8299 85.989 24.8299ZM85.989 22.7275C87.2016 22.7275 88.2882 22.4519 89.2488 21.9008C90.2252 21.3496 90.989 20.5937 91.5402 19.633C92.1071 18.6567 92.3906 17.57 92.3906 16.3732C92.3906 15.1763 92.1071 14.0976 91.5402 13.137C90.989 12.1606 90.2252 11.3968 89.2488 10.8456C88.2882 10.2945 87.2016 10.0189 85.989 10.0189C84.7764 10.0189 83.674 10.2945 82.6819 10.8456C81.7055 11.3968 80.9339 12.1606 80.367 13.137C79.8158 14.0976 79.5402 15.1763 79.5402 16.3732C79.5402 17.57 79.8158 18.6567 80.367 19.633C80.9339 20.5937 81.7055 21.3496 82.6819 21.9008C83.674 22.4519 84.7764 22.7275 85.989 22.7275ZM102.334 10.1606V22.5858H105.523V24.6409H96.7833V22.5858H99.9723V10.1606H96.7833V8.10548H105.523V10.1606H102.334Z" fill="white"/>
<path d="M25 0V25H0L25 0Z" fill="#D9D9D9"/>
<circle cx="11.0417" cy="20.6252" r="1.04167" fill="black"/>
<path d="M41.6663 16.6665L41.6663 24.9998H33.333L41.6663 16.6665Z" fill="#D9D9D9"/>
<path d="M41.667 25.0001L25.0003 25.0002L25.0003 8.3335L41.667 25.0001Z" fill="white"/>
</svg>
