<svg width="212" height="50" viewBox="0 0 212 50" fill="none" xmlns="http://www.w3.org/2000/svg">
<path d="M105.84 15.8333C110.249 15.8333 113.729 17.1247 116.281 19.7073C118.832 22.2585 120.107 25.9278 120.107 30.7152V49.2821H115.383V40.164H96.2964V49.2821H91.6665V30.7152C91.6665 25.9278 92.9421 22.2585 95.4933 19.7073C98.0445 17.1247 101.493 15.8333 105.84 15.8333ZM115.383 36.0538V30.29C115.383 26.9199 114.533 24.3687 112.832 22.6365C111.163 20.9042 108.832 20.038 105.84 20.038C102.848 20.038 100.501 20.9042 98.8004 22.6365C97.1311 24.3687 96.2964 26.9199 96.2964 30.29V36.0538H115.383ZM151.102 23.3451C147.889 21.5184 144.456 20.4317 140.802 20.0853V49.2821H136.125V20.0853C132.44 20.4317 128.991 21.5184 125.779 23.3451L124.125 19.6128C128.346 17.0932 133.102 15.8333 138.393 15.8333C143.747 15.8333 148.535 17.0932 152.755 19.6128L151.102 23.3451ZM171.979 49.6601C168.64 49.6601 165.632 48.9357 162.955 47.4869C160.278 46.0065 158.167 43.975 156.624 41.3924C155.112 38.8097 154.356 35.9278 154.356 32.7467C154.356 29.5656 155.112 26.6837 156.624 24.101C158.167 21.5184 160.278 19.5026 162.955 18.0538C165.632 16.5735 168.64 15.8333 171.979 15.8333C175.286 15.8333 178.278 16.5735 180.955 18.0538C183.632 19.5026 185.727 21.5184 187.238 24.101C188.75 26.6522 189.506 29.5341 189.506 32.7467C189.506 35.9593 188.75 38.8569 187.238 41.4396C185.727 43.9908 183.632 46.0065 180.955 47.4869C178.278 48.9357 175.286 49.6601 171.979 49.6601ZM171.979 45.4554C174.404 45.4554 176.577 44.9042 178.498 43.8018C180.451 42.6995 181.979 41.1876 183.081 39.2664C184.215 37.3136 184.782 35.1404 184.782 32.7467C184.782 30.353 184.215 28.1955 183.081 26.2743C181.979 24.3215 180.451 22.7939 178.498 21.6916C176.577 20.5892 174.404 20.038 171.979 20.038C169.553 20.038 167.349 20.5892 165.364 21.6916C163.412 22.7939 161.868 24.3215 160.734 26.2743C159.632 28.1955 159.081 30.353 159.081 32.7467C159.081 35.1404 159.632 37.3136 160.734 39.2664C161.868 41.1876 163.412 42.6995 165.364 43.8018C167.349 44.9042 169.553 45.4554 171.979 45.4554ZM204.669 20.3215V45.1719H211.047V49.2821H193.567V45.1719H199.945V20.3215H193.567V16.2113H211.047V20.3215H204.669Z" fill="black"/>
<path d="M50 0V50H0L50 0Z" fill="#20969D"/>
<circle cx="22.0833" cy="41.25" r="2.08333" fill="white"/>
<path d="M83.3332 33.3333L83.3332 49.9999H66.6665L83.3332 33.3333Z" fill="#B8D3D6"/>
<path d="M83.3335 49.9999L50.0002 50L50.0002 16.6666L83.3335 49.9999Z" fill="#61A5AE"/>
</svg>
