<svg width="254" height="60" viewBox="0 0 254 60" fill="none" xmlns="http://www.w3.org/2000/svg">
<path d="M127.008 19C132.299 19 136.476 20.5496 139.537 23.6488C142.598 26.7102 144.129 31.1134 144.129 36.8583V59.1386H138.46V48.1968H115.556V59.1386H110V36.8583C110 31.1134 111.531 26.7102 114.592 23.6488C117.654 20.5496 121.792 19 127.008 19ZM138.46 43.2646V36.348C138.46 32.3039 137.439 29.2425 135.398 27.1638C133.395 25.085 130.598 24.0457 127.008 24.0457C123.417 24.0457 120.602 25.085 118.561 27.1638C116.557 29.2425 115.556 32.3039 115.556 36.348V43.2646H138.46ZM181.322 28.0142C177.467 25.822 173.347 24.5181 168.963 24.1024V59.1386H163.35V24.1024C158.928 24.5181 154.79 25.822 150.935 28.0142L148.95 23.5354C154.015 20.5118 159.722 19 166.072 19C172.497 19 178.242 20.5118 183.306 23.5354L181.322 28.0142ZM206.374 59.5921C202.368 59.5921 198.759 58.7228 195.546 56.9842C192.333 55.2079 189.801 52.7701 187.949 49.6709C186.135 46.5716 185.228 43.1134 185.228 39.2961C185.228 35.4787 186.135 32.0205 187.949 28.9213C189.801 25.822 192.333 23.4031 195.546 21.6646C198.759 19.8882 202.368 19 206.374 19C210.343 19 213.933 19.8882 217.146 21.6646C220.359 23.4031 222.872 25.822 224.686 28.9213C226.5 31.9827 227.407 35.4409 227.407 39.2961C227.407 43.1512 226.5 46.6283 224.686 49.7276C222.872 52.789 220.359 55.2079 217.146 56.9842C213.933 58.7228 210.343 59.5921 206.374 59.5921ZM206.374 54.5465C209.285 54.5465 211.893 53.885 214.198 52.5622C216.541 51.2394 218.374 49.4252 219.697 47.1197C221.058 44.7764 221.738 42.1685 221.738 39.2961C221.738 36.4236 221.058 33.8346 219.697 31.5291C218.374 29.1858 216.541 27.3528 214.198 26.0299C211.893 24.7071 209.285 24.0457 206.374 24.0457C203.464 24.0457 200.818 24.7071 198.437 26.0299C196.094 27.3528 194.242 29.1858 192.881 31.5291C191.559 33.8346 190.897 36.4236 190.897 39.2961C190.897 42.1685 191.559 44.7764 192.881 47.1197C194.242 49.4252 196.094 51.2394 198.437 52.5622C200.818 53.885 203.464 54.5465 206.374 54.5465ZM245.604 24.3858V54.2063H253.257V59.1386H232.281V54.2063H239.934V24.3858H232.281V19.4535H253.257V24.3858H245.604Z" fill="white"/>
<path d="M60 0L60 60L0 60L60 0Z" fill="#20969D"/>
<circle cx="26.5" cy="49.5" r="2.5" fill="white"/>
<path d="M100 40L100 60H80L100 40Z" fill="#B8D3D6"/>
<path d="M100 60L60 60L60 20L100 60Z" fill="#61A5AE"/>
</svg>
