<svg width="100" height="62" viewBox="0 0 100 62" fill="none" xmlns="http://www.w3.org/2000/svg">
<g id="&#227;&#131;&#129;&#227;&#130;&#177;&#227;&#131;&#131;&#227;&#131;&#136;&#227;&#129;&#174;&#227;&#131;&#149;&#227;&#131;&#170;&#227;&#131;&#188;&#227;&#130;&#162;&#227;&#130;&#164;&#227;&#130;&#179;&#227;&#131;&#179;6 1" clip-path="url(#clip0_54_112)">
<g id="Group">
<path id="Vector" d="M88.1984 0.221436H11.8014C5.29375 0.221436 0 5.51616 0 12.0236V22.9537V26.4535L3.46348 26.9503C5.46582 27.2375 6.97598 28.9787 6.97598 31.0005C6.97598 33.021 5.4666 34.7623 3.46523 35.0494L0 35.5447V39.0462V49.9779C0 56.4839 5.29375 61.7787 11.8014 61.7787H88.1984C94.7061 61.7787 100 56.4839 100 49.9779V39.1189V35.2656L96.1508 35.0857C93.9633 34.9833 92.2488 33.1882 92.2488 31.0007C92.2488 28.8132 93.9633 27.0183 96.1523 26.9144L100 26.733V22.8814V12.0238C100 5.51616 94.7062 0.221436 88.1984 0.221436ZM95.9623 22.8814C91.6486 23.0849 88.2111 26.6367 88.2111 31.0007C88.2111 35.365 91.6486 38.9167 95.9623 39.1187V49.9777C95.9623 54.2646 92.4861 57.7408 88.1984 57.7408H11.8014C7.51367 57.7408 4.0377 54.2646 4.0377 49.9777V39.046C7.97988 38.4814 11.0137 35.0998 11.0137 31.0005C11.0137 26.9015 7.97988 23.5199 4.0377 22.9537V12.0236C4.0377 7.7353 7.51387 4.25913 11.8014 4.25913H88.1984C92.4859 4.25913 95.9623 7.7353 95.9623 12.0236V22.8814Z" fill="#20969D"/>
<path id="Vector_2" d="M25.8547 45.8755H23.1836V52.8421H25.8547V45.8755Z" fill="#20969D"/>
<path id="Vector_3" d="M25.8547 33.6362H23.1836V40.6028H25.8547V33.6362Z" fill="#20969D"/>
<path id="Vector_4" d="M25.8547 21.3956H23.1836V28.3636H25.8547V21.3956Z" fill="#20969D"/>
<path id="Vector_5" d="M25.8547 9.15796H23.1836V16.1246H25.8547V9.15796Z" fill="#20969D"/>
</g>
</g>
<defs>
<clipPath id="clip0_54_112">
<rect width="100" height="62" fill="white"/>
</clipPath>
</defs>
</svg>
