<svg width="31" height="20" viewBox="0 0 31 20" fill="none" xmlns="http://www.w3.org/2000/svg">
<path d="M26.5486 0.766357H4.0789C2.1649 0.766357 0.60791 2.35478 0.60791 4.307V7.58603V8.63597L1.62658 8.78503C2.2155 8.87116 2.65967 9.39353 2.65967 10.0001C2.65967 10.6062 2.21573 11.1286 1.6271 11.2147L0.60791 11.3633V12.4138V15.6933C0.60791 17.6451 2.1649 19.2335 4.0789 19.2335H26.5486C28.4626 19.2335 30.0197 17.6451 30.0197 15.6933V12.4356V11.2796L28.8876 11.2256C28.2442 11.1949 27.7399 10.6564 27.7399 10.0001C27.7399 9.3439 28.2442 8.80542 28.888 8.77425L30.0197 8.71981V7.56435V4.30706C30.0197 2.35478 28.4627 0.766357 26.5486 0.766357ZM28.8321 7.56435C27.5634 7.6254 26.5524 8.69093 26.5524 10.0001C26.5524 11.3094 27.5634 12.375 28.8321 12.4355V15.6932C28.8321 16.9793 27.8097 18.0222 26.5486 18.0222H4.0789C2.81781 18.0222 1.79547 16.9793 1.79547 15.6932V12.4137C2.95493 12.2443 3.84723 11.2299 3.84723 10.0001C3.84723 8.77038 2.95493 7.75589 1.79547 7.58603V4.307C1.79547 3.02052 2.81787 1.97767 4.0789 1.97767H26.5486C27.8097 1.97767 28.8321 3.02052 28.8321 4.307V7.56435Z" fill="black"/>
<path d="M8.21237 14.4626H7.42676V16.5526H8.21237V14.4626Z" fill="black"/>
<path d="M8.21237 10.7908H7.42676V12.8808H8.21237V10.7908Z" fill="black"/>
<path d="M8.21237 7.11865H7.42676V9.20904H8.21237V7.11865Z" fill="black"/>
<path d="M8.21237 3.44727H7.42676V5.53725H8.21237V3.44727Z" fill="black"/>
</svg>
