<svg width="160" height="160" viewBox="0 0 160 160" fill="none" xmlns="http://www.w3.org/2000/svg">
<path d="M77.9747 0.862106C79.2687 0.311282 80.7313 0.311283 82.0253 0.862106L93.6761 5.82155C94.3321 6.1008 95.0388 6.24136 95.7518 6.23442L108.414 6.11108C109.82 6.09738 111.171 6.65707 112.156 7.66116L121.022 16.7017C121.521 17.2107 122.12 17.611 122.782 17.8774L134.527 22.609C135.831 23.1345 136.866 24.1687 137.391 25.4731L142.123 37.2184C142.389 37.8797 142.789 38.4788 143.298 38.978L152.339 47.8441C153.343 48.8288 153.903 50.1801 153.889 51.5864L153.766 64.2482C153.759 64.9612 153.899 65.6679 154.178 66.3239L159.138 77.9747C159.689 79.2687 159.689 80.7313 159.138 82.0253L154.178 93.6761C153.899 94.3321 153.759 95.0388 153.766 95.7518L153.889 108.414C153.903 109.82 153.343 111.171 152.339 112.156L143.298 121.022C142.789 121.521 142.389 122.12 142.123 122.782L137.391 134.527C136.866 135.831 135.831 136.866 134.527 137.391L122.782 142.123C122.12 142.389 121.521 142.789 121.022 143.298L112.156 152.339C111.171 153.343 109.82 153.903 108.414 153.889L95.7518 153.766C95.0388 153.759 94.3321 153.899 93.6761 154.178L82.0253 159.138C80.7313 159.689 79.2687 159.689 77.9747 159.138L66.3239 154.178C65.6679 153.899 64.9612 153.759 64.2482 153.766L51.5864 153.889C50.1801 153.903 48.8288 153.343 47.8441 152.339L38.978 143.298C38.4788 142.789 37.8797 142.389 37.2184 142.123L25.4731 137.391C24.1687 136.866 23.1345 135.831 22.609 134.527L17.8774 122.782C17.611 122.12 17.2107 121.521 16.7017 121.022L7.66116 112.156C6.65707 111.171 6.09738 109.82 6.11108 108.414L6.23442 95.7518C6.24136 95.0388 6.1008 94.3321 5.82155 93.6761L0.862106 82.0253C0.311282 80.7313 0.311283 79.2687 0.862106 77.9747L5.82155 66.3239C6.1008 65.6679 6.24136 64.9612 6.23442 64.2482L6.11108 51.5864C6.09738 50.1801 6.65707 48.8288 7.66116 47.8441L16.7017 38.978C17.2107 38.4788 17.611 37.8797 17.8774 37.2184L22.609 25.4731C23.1345 24.1687 24.1687 23.1345 25.4731 22.609L37.2184 17.8774C37.8797 17.611 38.4788 17.2107 38.978 16.7017L47.8441 7.66116C48.8288 6.65707 50.1801 6.09738 51.5864 6.11108L64.2482 6.23442C64.9612 6.24136 65.6679 6.1008 66.3239 5.82155L77.9747 0.862106Z" fill="#6CA2AC"/>
<path d="M69.1955 88V75.44H64.9555V73.22H76.1155V75.44H71.8555V88H69.1955ZM78.5988 88V73.22H81.2388V88H78.5988ZM90.8655 88.28C89.9321 88.28 89.0655 88.1133 88.2655 87.78C87.4655 87.4467 86.7588 86.9533 86.1455 86.3C85.5321 85.6467 85.0521 84.8467 84.7055 83.9C84.3721 82.9533 84.2055 81.8733 84.2055 80.66C84.2055 79.4467 84.3788 78.3667 84.7255 77.42C85.0855 76.4733 85.5721 75.6667 86.1855 75C86.8121 74.3333 87.5321 73.8267 88.3455 73.48C89.1721 73.1333 90.0521 72.96 90.9855 72.96C91.9188 72.96 92.7455 73.1533 93.4655 73.54C94.1855 73.9133 94.7788 74.3467 95.2455 74.84L93.8455 76.52C93.4588 76.1467 93.0388 75.84 92.5855 75.6C92.1321 75.36 91.6121 75.24 91.0255 75.24C90.2388 75.24 89.5321 75.46 88.9055 75.9C88.2788 76.3267 87.7921 76.94 87.4455 77.74C87.0988 78.5267 86.9255 79.4733 86.9255 80.58C86.9255 81.7 87.0921 82.6667 87.4255 83.48C87.7588 84.28 88.2255 84.9 88.8255 85.34C89.4388 85.7667 90.1521 85.98 90.9655 85.98C91.6188 85.98 92.2055 85.84 92.7255 85.56C93.2455 85.28 93.7121 84.9133 94.1255 84.46L95.5255 86.12C94.9255 86.8267 94.2388 87.3667 93.4655 87.74C92.6921 88.1 91.8255 88.28 90.8655 88.28ZM98.0128 88V73.22H100.653V79.92H100.713L105.953 73.22H108.893L104.333 78.98L109.653 88H106.753L102.753 81.06L100.653 83.7V88H98.0128ZM111.509 88V73.22H120.409V75.44H114.149V79.2H119.449V81.42H114.149V85.78H120.629V88H111.509ZM126.637 88V75.44H122.397V73.22H133.557V75.44H129.297V88H126.637ZM139.52 88.28C138.507 88.28 137.54 88.0933 136.62 87.72C135.7 87.3333 134.894 86.8 134.2 86.12L135.72 84.3C136.254 84.8067 136.854 85.2133 137.52 85.52C138.2 85.8267 138.88 85.98 139.56 85.98C140.4 85.98 141.034 85.8067 141.46 85.46C141.9 85.1133 142.12 84.66 142.12 84.1C142.12 83.6867 142.02 83.3533 141.82 83.1C141.62 82.8467 141.347 82.6333 141 82.46C140.667 82.2733 140.28 82.0867 139.84 81.9L137.82 81.04C137.34 80.84 136.867 80.5733 136.4 80.24C135.947 79.9067 135.567 79.4867 135.26 78.98C134.967 78.46 134.82 77.8467 134.82 77.14C134.82 76.34 135.034 75.6267 135.46 75C135.887 74.3733 136.474 73.88 137.22 73.52C137.98 73.1467 138.84 72.96 139.8 72.96C140.667 72.96 141.5 73.1267 142.3 73.46C143.1 73.7933 143.787 74.2533 144.36 74.84L143 76.52C142.534 76.12 142.04 75.8067 141.52 75.58C141.014 75.3533 140.44 75.24 139.8 75.24C139.107 75.24 138.554 75.3933 138.14 75.7C137.727 76.0067 137.52 76.4267 137.52 76.96C137.52 77.3467 137.627 77.6667 137.84 77.92C138.067 78.1733 138.354 78.3867 138.7 78.56C139.06 78.72 139.447 78.8867 139.86 79.06L141.84 79.88C142.427 80.12 142.94 80.42 143.38 80.78C143.834 81.1267 144.187 81.5533 144.44 82.06C144.694 82.5533 144.82 83.16 144.82 83.88C144.82 84.68 144.607 85.4133 144.18 86.08C143.767 86.7467 143.16 87.28 142.36 87.68C141.574 88.08 140.627 88.28 139.52 88.28Z" fill="white"/>
<path d="M52.2794 67H21.7205C19.1175 67 17 69.1602 17 71.8153V76.2747V77.7027L18.3854 77.9054C19.1863 78.0225 19.7904 78.7329 19.7904 79.5579C19.7904 80.3822 19.1866 81.0927 18.3861 81.2098L17 81.4119V82.8405V87.3006C17 89.9551 19.1175 92.1154 21.7205 92.1154H52.2794C54.8824 92.1154 57 89.9551 57 87.3006V82.8702V81.298L55.4603 81.2246C54.5853 81.1829 53.8995 80.4505 53.8995 79.558C53.8995 78.6655 54.5853 77.9331 55.4609 77.8907L57 77.8167V76.2453V71.8154C57 69.1602 54.8825 67 52.2794 67ZM55.3849 76.2453C53.6595 76.3283 52.2845 77.7774 52.2845 79.558C52.2845 81.3386 53.6595 82.7877 55.3849 82.8701V87.3006C55.3849 89.0496 53.9945 90.4679 52.2794 90.4679H21.7205C20.0055 90.4679 18.6151 89.0496 18.6151 87.3006V82.8404C20.192 82.6101 21.4055 81.2304 21.4055 79.5579C21.4055 77.8855 20.192 76.5058 18.6151 76.2747V71.8153C18.6151 70.0657 20.0055 68.6474 21.7205 68.6474H52.2794C53.9944 68.6474 55.3849 70.0657 55.3849 71.8153V76.2453Z" fill="white"/>
<path d="M27.3419 85.627H26.2734V88.4693H27.3419V85.627Z" fill="white"/>
<path d="M27.3419 80.6332H26.2734V83.4756H27.3419V80.6332Z" fill="white"/>
<path d="M27.3419 75.6392H26.2734V78.4821H27.3419V75.6392Z" fill="white"/>
<path d="M27.3419 70.646H26.2734V73.4884H27.3419V70.646Z" fill="white"/>
</svg>
