<svg width="160" height="160" viewBox="0 0 160 160" fill="none" xmlns="http://www.w3.org/2000/svg">
<path d="M77.9747 0.862106C79.2687 0.311282 80.7313 0.311283 82.0253 0.862106L93.6761 5.82155C94.3321 6.1008 95.0388 6.24136 95.7518 6.23442L108.414 6.11108C109.82 6.09738 111.171 6.65707 112.156 7.66116L121.022 16.7017C121.521 17.2107 122.12 17.611 122.782 17.8774L134.527 22.609C135.831 23.1345 136.866 24.1687 137.391 25.4731L142.123 37.2184C142.389 37.8797 142.789 38.4788 143.298 38.978L152.339 47.8441C153.343 48.8288 153.903 50.1801 153.889 51.5864L153.766 64.2482C153.759 64.9612 153.899 65.6679 154.178 66.3239L159.138 77.9747C159.689 79.2687 159.689 80.7313 159.138 82.0253L154.178 93.6761C153.899 94.3321 153.759 95.0388 153.766 95.7518L153.889 108.414C153.903 109.82 153.343 111.171 152.339 112.156L143.298 121.022C142.789 121.521 142.389 122.12 142.123 122.782L137.391 134.527C136.866 135.831 135.831 136.866 134.527 137.391L122.782 142.123C122.12 142.389 121.521 142.789 121.022 143.298L112.156 152.339C111.171 153.343 109.82 153.903 108.414 153.889L95.7518 153.766C95.0388 153.759 94.3321 153.899 93.6761 154.178L82.0253 159.138C80.7313 159.689 79.2687 159.689 77.9747 159.138L66.3239 154.178C65.6679 153.899 64.9612 153.759 64.2482 153.766L51.5864 153.889C50.1801 153.903 48.8288 153.343 47.8441 152.339L38.978 143.298C38.4788 142.789 37.8797 142.389 37.2184 142.123L25.4731 137.391C24.1687 136.866 23.1345 135.831 22.609 134.527L17.8774 122.782C17.611 122.12 17.2107 121.521 16.7017 121.022L7.66116 112.156C6.65707 111.171 6.09738 109.82 6.11108 108.414L6.23442 95.7518C6.24136 95.0388 6.1008 94.3321 5.82155 93.6761L0.862106 82.0253C0.311282 80.7313 0.311283 79.2687 0.862106 77.9747L5.82155 66.3239C6.1008 65.6679 6.24136 64.9612 6.23442 64.2482L6.11108 51.5864C6.09738 50.1801 6.65707 48.8288 7.66116 47.8441L16.7017 38.978C17.2107 38.4788 17.611 37.8797 17.8774 37.2184L22.609 25.4731C23.1345 24.1687 24.1687 23.1345 25.4731 22.609L37.2184 17.8774C37.8797 17.611 38.4788 17.2107 38.978 16.7017L47.8441 7.66116C48.8288 6.65707 50.1801 6.09738 51.5864 6.11108L64.2482 6.23442C64.9612 6.24136 65.6679 6.1008 66.3239 5.82155L77.9747 0.862106Z" fill="#20969D"/>
<path d="M37.0346 113V97.928H31.9466V95.264H45.3386V97.928H40.2266V113H37.0346ZM48.3185 113V95.264H51.4865V113H48.3185ZM63.0386 113.336C61.9186 113.336 60.8786 113.136 59.9186 112.736C58.9586 112.336 58.1106 111.744 57.3746 110.96C56.6386 110.176 56.0626 109.216 55.6466 108.08C55.2466 106.944 55.0466 105.648 55.0466 104.192C55.0466 102.736 55.2546 101.44 55.6706 100.304C56.1026 99.168 56.6866 98.2 57.4226 97.4C58.1746 96.6 59.0386 95.992 60.0146 95.576C61.0066 95.16 62.0626 94.952 63.1826 94.952C64.3026 94.952 65.2946 95.184 66.1586 95.648C67.0226 96.096 67.7346 96.616 68.2946 97.208L66.6146 99.224C66.1506 98.776 65.6466 98.408 65.1026 98.12C64.5586 97.832 63.9346 97.688 63.2306 97.688C62.2866 97.688 61.4386 97.952 60.6866 98.48C59.9346 98.992 59.3506 99.728 58.9346 100.688C58.5186 101.632 58.3106 102.768 58.3106 104.096C58.3106 105.44 58.5106 106.6 58.9106 107.576C59.3106 108.536 59.8706 109.28 60.5906 109.808C61.3266 110.32 62.1826 110.576 63.1586 110.576C63.9426 110.576 64.6466 110.408 65.2706 110.072C65.8946 109.736 66.4546 109.296 66.9506 108.752L68.6306 110.744C67.9106 111.592 67.0866 112.24 66.1586 112.688C65.2306 113.12 64.1906 113.336 63.0386 113.336ZM71.6154 113V95.264H74.7834V103.304H74.8554L81.1434 95.264H84.6714L79.1994 102.176L85.5834 113H82.1034L77.3034 104.672L74.7834 107.84V113H71.6154ZM87.8107 113V95.264H98.4907V97.928H90.9787V102.44H97.3387V105.104H90.9787V110.336H98.7547V113H87.8107ZM105.964 113V97.928H100.876V95.264H114.268V97.928H109.156V113H105.964ZM121.424 113.336C120.208 113.336 119.048 113.112 117.944 112.664C116.84 112.2 115.872 111.56 115.04 110.744L116.864 108.56C117.504 109.168 118.224 109.656 119.024 110.024C119.84 110.392 120.656 110.576 121.472 110.576C122.48 110.576 123.24 110.368 123.752 109.952C124.28 109.536 124.544 108.992 124.544 108.32C124.544 107.824 124.424 107.424 124.184 107.12C123.944 106.816 123.616 106.56 123.2 106.352C122.8 106.128 122.336 105.904 121.808 105.68L119.384 104.648C118.808 104.408 118.24 104.088 117.68 103.688C117.136 103.288 116.68 102.784 116.312 102.176C115.96 101.552 115.784 100.816 115.784 99.968C115.784 99.008 116.04 98.152 116.552 97.4C117.064 96.648 117.768 96.056 118.664 95.624C119.576 95.176 120.608 94.952 121.76 94.952C122.8 94.952 123.8 95.152 124.76 95.552C125.72 95.952 126.544 96.504 127.232 97.208L125.6 99.224C125.04 98.744 124.448 98.368 123.824 98.096C123.216 97.824 122.528 97.688 121.76 97.688C120.928 97.688 120.264 97.872 119.768 98.24C119.272 98.608 119.024 99.112 119.024 99.752C119.024 100.216 119.152 100.6 119.408 100.904C119.68 101.208 120.024 101.464 120.44 101.672C120.872 101.864 121.336 102.064 121.832 102.272L124.208 103.256C124.912 103.544 125.528 103.904 126.056 104.336C126.6 104.752 127.024 105.264 127.328 105.872C127.632 106.464 127.784 107.192 127.784 108.056C127.784 109.016 127.528 109.896 127.016 110.696C126.52 111.496 125.792 112.136 124.832 112.616C123.888 113.096 122.752 113.336 121.424 113.336Z" fill="white"/>
<path d="M93.3137 38.3125H57.3453C54.2814 38.3125 51.7891 40.844 51.7891 43.9554V49.1813V50.8547L53.4197 51.0923C54.3624 51.2295 55.0734 52.062 55.0734 53.0288C55.0734 53.9948 54.3628 54.8273 53.4205 54.9646L51.7891 55.2014V56.8756V62.1023C51.7891 65.213 54.2814 67.7446 57.3453 67.7446H93.3137C96.3776 67.7446 98.87 65.213 98.87 62.1023V56.9104V55.068L97.0578 54.982C96.0279 54.933 95.2207 54.0748 95.2207 53.0289C95.2207 51.983 96.0279 51.1248 97.0585 51.0751L98.87 50.9883V49.1468V43.9555C98.87 40.844 96.3777 38.3125 93.3137 38.3125ZM96.9691 49.1468C94.9381 49.2441 93.3197 50.9423 93.3197 53.0289C93.3197 55.1155 94.9381 56.8137 96.9691 56.9103V62.1022C96.9691 64.1519 95.3324 65.8139 93.3137 65.8139H57.3453C55.3266 65.8139 53.69 64.1519 53.69 62.1022V56.8755C55.5461 56.6055 56.9744 54.9887 56.9744 53.0288C56.9744 51.0689 55.5461 49.4521 53.69 49.1813V43.9554C53.69 41.9051 55.3267 40.243 57.3453 40.243H93.3137C95.3323 40.243 96.9691 41.9051 96.9691 43.9554V49.1468Z" fill="white"/>
<path d="M66.2356 52.9628H65.2295V55.6275H66.2356V52.9628Z" fill="white"/>
<path d="M66.2356 48.2811H65.2295V50.9459H66.2356V48.2811Z" fill="white"/>
<path d="M66.2356 43.5992H65.2295V46.2644H66.2356V43.5992Z" fill="white"/>
<path d="M66.2356 38.9182H65.2295V41.5829H66.2356V38.9182Z" fill="white"/>
</svg>
