<svg width="82" height="20" viewBox="0 0 82 20" fill="none" xmlns="http://www.w3.org/2000/svg">
<path d="M40.7738 8.72727C43.1838 8.72727 45.1374 6.7736 45.1374 4.36363C45.1374 1.95367 43.1838 0 40.7738 0C38.3638 0 36.4102 1.95367 36.4102 4.36363C36.4102 6.7736 38.3638 8.72727 40.7738 8.72727Z" fill="white"/>
<path d="M42.32 10.1819H39.2292C36.3527 10.1819 34 12.5345 34 15.4109V19.9799V19.9939V20H47.5474V15.4109C47.5473 12.5345 45.1946 10.1819 42.32 10.1819Z" fill="white"/>
<path d="M6.77379 8.72727C9.18376 8.72727 11.1374 6.7736 11.1374 4.36363C11.1374 1.95367 9.18376 0 6.77379 0C4.36382 0 2.41016 1.95367 2.41016 4.36363C2.41016 6.7736 4.36382 8.72727 6.77379 8.72727Z" fill="white"/>
<path d="M8.32 10.1819H5.22918C2.35273 10.1819 0 12.5345 0 15.4109V19.9799V19.9939V20H13.5474V15.4109C13.5473 12.5345 11.1946 10.1819 8.32 10.1819Z" fill="white"/>
<path d="M74.7738 8.72727C77.1838 8.72727 79.1374 6.7736 79.1374 4.36363C79.1374 1.95367 77.1838 0 74.7738 0C72.3638 0 70.4102 1.95367 70.4102 4.36363C70.4102 6.7736 72.3638 8.72727 74.7738 8.72727Z" fill="white"/>
<path d="M76.32 10.1819H73.2292C70.3527 10.1819 68 12.5345 68 15.4109V19.9799V19.9939V20H81.5474V15.4109C81.5473 12.5345 79.1946 10.1819 76.32 10.1819Z" fill="white"/>
</svg>
