<svg width="47" height="53" viewBox="0 0 47 53" fill="none" xmlns="http://www.w3.org/2000/svg">
<circle cx="24" cy="20" r="19" fill="white" stroke="black" stroke-width="2"/>
<mask id="path-2-inside-1_164_2" fill="white">
<path d="M18 21.6567L23.6569 15.9999L29.3137 21.6567L23.6569 27.3136L18 21.6567Z"/>
</mask>
<path d="M18 21.6567L23.6569 15.9999L29.3137 21.6567L23.6569 27.3136L18 21.6567Z" fill="white"/>
<path d="M23.6569 15.9999L25.0711 14.5857L23.6569 13.1715L22.2426 14.5857L23.6569 15.9999ZM19.4142 23.071L25.0711 17.4141L22.2426 14.5857L16.5858 20.2425L19.4142 23.071ZM22.2426 17.4141L27.8995 23.071L30.7279 20.2425L25.0711 14.5857L22.2426 17.4141Z" fill="black" mask="url(#path-2-inside-1_164_2)"/>
<path d="M0.66 44.74H2.717C3.17167 44.74 3.5805 44.8152 3.9435 44.9655C4.31017 45.1122 4.60167 45.3432 4.818 45.6585C5.03433 45.9738 5.1425 46.3845 5.1425 46.8905C5.1425 47.3928 5.03433 47.809 4.818 48.139C4.60167 48.469 4.31017 48.7165 3.9435 48.8815C3.5805 49.0428 3.17167 49.1235 2.717 49.1235H1.6005V52H0.66V44.74ZM1.6005 48.337H2.4585C2.77017 48.337 3.0525 48.2912 3.3055 48.1995C3.56217 48.1078 3.76567 47.9575 3.916 47.7485C4.07 47.5395 4.147 47.259 4.147 46.907C4.147 46.5513 4.07 46.2745 3.916 46.0765C3.76567 45.8748 3.56217 45.7337 3.3055 45.653C3.0525 45.5687 2.77017 45.5265 2.4585 45.5265H1.6005V48.337ZM7.68195 44.74H8.66095L11.345 52H10.3385L9.71145 50.251H6.63145L5.99345 52H4.98695L7.68195 44.74ZM6.93395 49.404H9.41445L8.18245 45.895H8.16595L6.93395 49.404ZM15.1217 48.0565H18.7847V48.4525C18.7847 48.9585 18.6967 49.4352 18.5207 49.8825C18.3447 50.3262 18.0954 50.7167 17.7727 51.054C17.4537 51.3913 17.0779 51.6553 16.6452 51.846C16.2126 52.0367 15.7377 52.132 15.2207 52.132C14.6927 52.132 14.2087 52.0348 13.7687 51.8405C13.3287 51.6425 12.9474 51.3712 12.6247 51.0265C12.3021 50.6782 12.0527 50.2767 11.8767 49.822C11.7007 49.3673 11.6127 48.8815 11.6127 48.3645C11.6127 47.8512 11.7007 47.3672 11.8767 46.9125C12.0527 46.4578 12.3021 46.0582 12.6247 45.7135C12.9474 45.3688 13.3287 45.0993 13.7687 44.905C14.2087 44.707 14.6927 44.608 15.2207 44.608C15.5801 44.608 15.9082 44.6483 16.2052 44.729C16.5059 44.806 16.7754 44.916 17.0137 45.059C17.2557 45.1983 17.4702 45.3578 17.6572 45.5375C17.8442 45.7135 18.0056 45.9005 18.1412 46.0985L17.2887 46.555C17.0687 46.2507 16.7864 45.9995 16.4417 45.8015C16.0971 45.6035 15.6901 45.5045 15.2207 45.5045C14.8394 45.5045 14.4874 45.5797 14.1647 45.73C13.8421 45.8803 13.5616 46.0875 13.3232 46.3515C13.0886 46.6155 12.9071 46.9198 12.7787 47.2645C12.6504 47.6092 12.5862 47.9758 12.5862 48.3645C12.5862 48.7532 12.6504 49.1217 12.7787 49.47C12.9071 49.8147 13.0886 50.1208 13.3232 50.3885C13.5616 50.6525 13.8421 50.8597 14.1647 51.01C14.4874 51.1603 14.8394 51.2355 15.2207 51.2355C15.5837 51.2355 15.9156 51.1732 16.2162 51.0485C16.5169 50.9238 16.7791 50.7515 17.0027 50.5315C17.2264 50.3115 17.4024 50.0548 17.5307 49.7615C17.6591 49.4682 17.7306 49.1528 17.7452 48.8155H15.1217V48.0565ZM19.882 44.74H24.172V45.5925H20.8115V47.9465H24.106V48.777H20.8115V51.1475H24.172V52H19.882V44.74ZM29.8965 45.5925H27.9385V44.74H32.8005V45.5925H30.8425V52H29.8965V45.5925ZM34.1673 48.3645C34.1673 48.9035 34.2791 49.3893 34.5028 49.822C34.7301 50.2547 35.0418 50.5993 35.4378 50.856C35.8338 51.109 36.2885 51.2355 36.8018 51.2355C37.3188 51.2355 37.7735 51.109 38.1658 50.856C38.5618 50.5993 38.8716 50.2547 39.0953 49.822C39.319 49.3893 39.4308 48.9035 39.4308 48.3645C39.4308 47.8255 39.319 47.3415 39.0953 46.9125C38.8716 46.4798 38.5618 46.137 38.1658 45.884C37.7735 45.631 37.3188 45.5045 36.8018 45.5045C36.2885 45.5045 35.8338 45.631 35.4378 45.884C35.0418 46.137 34.7301 46.4798 34.5028 46.9125C34.2791 47.3415 34.1673 47.8255 34.1673 48.3645ZM33.1938 48.3645C33.1938 47.8365 33.2836 47.3452 33.4633 46.8905C33.6466 46.4322 33.9015 46.0325 34.2278 45.6915C34.5541 45.3505 34.9355 45.0847 35.3718 44.894C35.8118 44.7033 36.2885 44.608 36.8018 44.608C37.3188 44.608 37.7955 44.7033 38.2318 44.894C38.6718 45.0847 39.0531 45.3505 39.3758 45.6915C39.7021 46.0325 39.9551 46.4322 40.1348 46.8905C40.3145 47.3452 40.4043 47.8365 40.4043 48.3645C40.4043 48.8962 40.3145 49.3912 40.1348 49.8495C39.9588 50.3042 39.7076 50.7038 39.3813 51.0485C39.0586 51.3895 38.6791 51.6553 38.2428 51.846C37.8065 52.0367 37.3261 52.132 36.8018 52.132C36.2775 52.132 35.7935 52.0367 35.3498 51.846C34.9098 51.6553 34.5285 51.3895 34.2058 51.0485C33.8831 50.7038 33.6338 50.3042 33.4578 49.8495C33.2818 49.3912 33.1938 48.8962 33.1938 48.3645ZM41.5555 44.74H43.6125C44.0672 44.74 44.476 44.8152 44.839 44.9655C45.2057 45.1122 45.4972 45.3432 45.7135 45.6585C45.9298 45.9738 46.038 46.3845 46.038 46.8905C46.038 47.3928 45.9298 47.809 45.7135 48.139C45.4972 48.469 45.2057 48.7165 44.839 48.8815C44.476 49.0428 44.0672 49.1235 43.6125 49.1235H42.496V52H41.5555V44.74ZM42.496 48.337H43.354C43.6657 48.337 43.948 48.2912 44.201 48.1995C44.4577 48.1078 44.6612 47.9575 44.8115 47.7485C44.9655 47.5395 45.0425 47.259 45.0425 46.907C45.0425 46.5513 44.9655 46.2745 44.8115 46.0765C44.6612 45.8748 44.4577 45.7337 44.201 45.653C43.948 45.5687 43.6657 45.5265 43.354 45.5265H42.496V48.337Z" fill="white"/>
</svg>
