<svg width="44" height="35" viewBox="0 0 44 35" fill="none" xmlns="http://www.w3.org/2000/svg">
<path d="M43.0821 4.15756C41.4978 4.84099 39.7736 5.33286 37.9978 5.52443C39.8415 4.42905 41.2223 2.69854 41.8809 0.657565C40.1507 1.6868 38.2554 2.40851 36.2788 2.7907C35.4527 1.90755 34.4536 1.204 33.3437 0.723876C32.2338 0.243753 31.0369 -0.00264977 29.8276 2.14888e-05C24.9349 2.14888e-05 21 3.966 21 8.83286C21 9.51629 21.0828 10.1997 21.2174 10.8573C13.8913 10.4741 7.35724 6.97413 3.01331 1.6154C2.2218 2.96733 1.80702 4.50666 1.81213 6.07324C1.81213 9.13833 3.37056 11.841 5.74704 13.4305C4.34654 13.3753 2.97884 12.9904 1.75518 12.307V12.4157C1.75518 16.7079 4.7892 20.2648 8.83283 21.0828C8.0736 21.2801 7.29256 21.381 6.50813 21.3831C5.93343 21.3831 5.38979 21.3262 4.84097 21.2485C5.95931 24.7485 9.21597 27.2907 13.0939 27.3735C10.0599 29.75 6.25961 31.1479 2.13313 31.1479C1.39275 31.1479 0.709319 31.122 0 31.0392C3.9142 33.5503 8.55843 35 13.5599 35C29.7966 35 38.6812 21.5488 38.6812 9.87354C38.6812 9.4904 38.6812 9.10726 38.6553 8.72413C40.3742 7.46599 41.8809 5.90756 43.0821 4.15756Z" fill="white"/>
</svg>
