<svg width="30" height="30" viewBox="0 0 30 30" fill="none" xmlns="http://www.w3.org/2000/svg">
<path d="M15 0C6.72891 0 0 5.72227 0 12.7556C0 14.6342 0.496699 16.4497 1.3923 18.097C1.90043 19.0341 2.53424 19.9187 3.29344 20.7253C4.5491 22.0617 6.12334 23.1898 7.94684 24.0163L8.50055 27.9616C8.57309 28.4793 8.91645 28.9189 9.40119 29.1149C9.57832 29.1865 9.76441 29.2216 9.94957 29.2216C10.2709 29.2216 10.5888 29.1158 10.8504 28.9116L15.2061 25.51C23.3825 25.4162 30 19.7308 30 12.7556C30 5.72227 23.2711 0 15 0ZM21.738 9.93809C21.738 10.402 21.362 10.7781 20.898 10.7781H9.10195C8.63801 10.7781 8.26195 10.402 8.26195 9.93809C8.26195 9.47414 8.63801 9.09785 9.10195 9.09785H20.898C21.362 9.09785 21.738 9.47414 21.738 9.93809ZM8.26195 14.0452C8.26195 13.5812 8.63801 13.2049 9.10195 13.2049H20.898C21.362 13.2049 21.738 13.5812 21.738 14.0452C21.738 14.5091 21.362 14.8854 20.898 14.8854H9.10195C8.63801 14.8854 8.26195 14.509 8.26195 14.0452ZM9.10195 17.3122H15.8441C16.308 17.3122 16.6843 17.688 16.6843 18.1522C16.6843 18.6161 16.308 18.9922 15.8441 18.9922H9.10195C8.63801 18.9922 8.26195 18.6161 8.26195 18.1522C8.26195 17.688 8.63801 17.3122 9.10195 17.3122Z" fill="white"/>
</svg>
