<svg width="199" height="72" viewBox="0 0 199 72" fill="none" xmlns="http://www.w3.org/2000/svg">
<path d="M6.53169 41L26.0317 7.72H37.8877L41.4237 41H31.1277L30.7117 35.54H20.5717L17.5037 41H6.53169ZM24.1077 28.208H30.6597L30.1397 16.352L24.1077 28.208ZM54.6134 41.52C47.3854 41.52 42.1854 39.388 42.1854 33.616C42.1854 32.94 42.2374 32.264 42.3934 31.536H51.9614C51.4934 34.396 52.3254 35.748 55.2894 35.748C57.0054 35.748 58.6694 35.176 58.6694 32.94C58.6694 29.508 44.9414 30.704 44.9414 23.164C44.9414 18.588 47.9054 13.96 58.6174 13.96C66.0014 13.96 70.1094 16.196 70.1094 21.344C70.1094 22.02 70.0574 22.8 69.9014 23.58H60.6974C61.1134 21.24 60.3334 19.94 57.8894 19.94C55.8614 19.94 54.7174 20.824 54.7174 22.436C54.7174 26.18 68.3414 24.412 68.3414 32.368C68.3414 35.748 65.8974 41.52 54.6134 41.52ZM81.549 41.52C69.745 41.52 68.913 33.408 70.317 27.22C71.825 20.928 75.517 13.96 86.385 13.96C98.137 13.96 99.073 22.176 97.617 28.26C96.109 34.708 92.469 41.52 81.549 41.52ZM79.469 27.74C78.533 31.9 79.937 33.252 82.329 33.252C85.709 33.252 87.529 31.9 88.517 27.74C89.453 23.736 88.153 22.436 85.553 22.436C82.225 22.436 80.457 23.736 79.469 27.74ZM112.649 41.52C109.321 41.52 106.929 39.908 105.109 37.776L102.613 41H96.7371L105.317 4.236H115.249L112.441 16.04C115.093 14.532 117.173 13.96 119.773 13.96C127.937 13.96 128.457 21.812 127.053 28.26C125.649 34.448 121.697 41.52 112.649 41.52ZM108.957 30.548C108.957 32.368 110.049 33.72 112.129 33.72C116.237 33.72 117.641 28.416 117.641 24.828C117.641 22.956 116.549 21.916 114.573 21.916C110.673 21.916 108.957 26.908 108.957 30.548ZM139.519 41.52C127.715 41.52 126.883 33.408 128.287 27.22C129.795 20.928 133.487 13.96 144.355 13.96C156.107 13.96 157.043 22.176 155.587 28.26C154.079 34.708 150.439 41.52 139.519 41.52ZM137.439 27.74C136.503 31.9 137.907 33.252 140.299 33.252C143.679 33.252 145.499 31.9 146.487 27.74C147.423 23.736 146.123 22.436 143.523 22.436C140.195 22.436 138.427 23.736 137.439 27.74ZM158.243 29.768L159.699 18.588L162.247 7.72H171.607L168.799 19.628L165.419 29.768H158.243ZM154.031 36.112C154.759 32.94 157.099 31.796 160.687 31.796C164.275 31.796 167.031 33.252 166.147 37.152C165.419 40.272 163.131 41.52 159.595 41.52C155.955 41.52 153.147 39.96 154.031 36.112Z" fill="white"/>
<path d="M6.084 70.068C1.392 70.068 0.492 67.812 0.492 65.148C0.492 62.676 1.464 60.252 5.532 60.252C9.624 60.252 10.584 62.568 10.584 64.8C10.584 66.528 10.008 67.788 7.86 67.788H7.188L6.864 66.96C6.564 67.5 5.94 67.848 5.148 67.848C4.008 67.848 3.132 67.332 3.132 66.228C3.132 65.196 3.72 64.848 5.16 64.68C5.268 64.668 6.132 64.56 6.324 64.548C6.312 64.056 6.132 63.696 5.544 63.696C4.98 63.696 4.824 64.068 4.824 64.356L3.252 64.368C3.264 63.468 3.672 62.508 5.508 62.508C7.584 62.508 7.908 63.516 7.908 64.848V66.456C8.544 66.456 8.904 66.096 8.904 64.8C8.904 62.952 8.208 61.668 5.532 61.668C2.868 61.668 2.184 63.252 2.184 65.16C2.184 67.296 2.964 68.652 6.024 68.652H8.412V70.068H6.084ZM4.704 66.18C4.704 66.468 4.872 66.672 5.424 66.672C6.012 66.672 6.312 66.24 6.312 65.532L5.424 65.652C4.824 65.736 4.704 65.952 4.704 66.18ZM10.9905 69L13.7025 61.32H16.1505L18.8625 69H16.8225L16.4025 67.68H13.4505L13.0305 69H10.9905ZM13.8705 66.252H15.9825L14.9145 63.012L13.8705 66.252ZM22.1452 69.108C19.9972 69.108 19.0732 68.472 19.0732 66.792H20.8852C20.8852 67.368 21.1492 67.752 22.0852 67.752C22.8292 67.752 23.0932 67.488 23.0932 67.176C23.0932 66.228 19.1692 66.9 19.1692 64.74C19.1692 63.648 19.9732 62.772 21.9892 62.772C24.0772 62.772 24.7372 63.528 24.7372 64.98H23.0092C23.0092 64.44 22.7572 64.092 21.9892 64.092C21.2692 64.092 21.0532 64.296 21.0532 64.632C21.0532 65.568 24.9532 64.848 24.9532 67.152C24.9532 68.088 24.1492 69.108 22.1452 69.108ZM28.6739 69.108C26.2379 69.108 25.6139 67.512 25.6139 65.928C25.6139 64.332 26.2619 62.772 28.6859 62.772C31.0979 62.772 31.7579 64.332 31.7579 65.928C31.7579 67.548 31.0979 69.108 28.6739 69.108ZM27.4259 65.928C27.4259 66.912 27.7379 67.536 28.6739 67.536C29.6459 67.536 29.9579 66.912 29.9579 65.928C29.9579 64.968 29.6819 64.332 28.6859 64.332C27.7259 64.332 27.4259 64.956 27.4259 65.928ZM36.2251 69.108C35.0491 69.108 34.3411 68.556 34.0291 68.04L33.5731 69H32.7331V60.516H34.5931V63.468C34.8811 63.096 35.4811 62.772 36.4291 62.772C38.3251 62.772 38.8891 64.356 38.8891 65.928C38.8891 67.488 38.2531 69.108 36.2251 69.108ZM34.5811 65.928C34.5811 66.9 34.7491 67.56 35.7931 67.56C36.8011 67.56 36.9691 66.888 36.9691 65.928C36.9691 64.98 36.8011 64.308 35.7811 64.308C34.7131 64.308 34.5811 64.992 34.5811 65.928ZM42.6778 69.108C40.2418 69.108 39.6178 67.512 39.6178 65.928C39.6178 64.332 40.2658 62.772 42.6898 62.772C45.1018 62.772 45.7618 64.332 45.7618 65.928C45.7618 67.548 45.1018 69.108 42.6778 69.108ZM41.4298 65.928C41.4298 66.912 41.7418 67.536 42.6778 67.536C43.6498 67.536 43.9618 66.912 43.9618 65.928C43.9618 64.968 43.6858 64.332 42.6898 64.332C41.7298 64.332 41.4298 64.956 41.4298 65.928ZM46.929 66.588L46.677 64.188V61.32H48.405V64.188L48.153 66.588H46.929ZM46.305 68.1C46.305 67.308 46.809 67.116 47.529 67.116C48.237 67.116 48.753 67.308 48.753 68.1C48.753 68.88 48.237 69.108 47.529 69.108C46.809 69.108 46.305 68.88 46.305 68.1ZM55.7134 69.108C52.7374 69.108 52.1134 67.2 52.1134 65.16C52.1134 63.12 52.7494 61.212 55.7134 61.212C58.3174 61.212 59.2294 62.676 59.2294 64.356H57.2614C57.1414 63.348 56.7694 62.808 55.7134 62.808C54.3094 62.808 54.0814 63.852 54.0814 65.16C54.0814 66.48 54.2974 67.512 55.7134 67.512C56.7814 67.512 57.1414 66.996 57.2614 65.952H59.2414C59.2414 67.728 58.3294 69.108 55.7134 69.108ZM63.1153 69.108C60.6793 69.108 60.0553 67.512 60.0553 65.928C60.0553 64.332 60.7033 62.772 63.1273 62.772C65.5393 62.772 66.1993 64.332 66.1993 65.928C66.1993 67.548 65.5393 69.108 63.1153 69.108ZM61.8673 65.928C61.8673 66.912 62.1793 67.536 63.1153 67.536C64.0873 67.536 64.3993 66.912 64.3993 65.928C64.3993 64.968 64.1233 64.332 63.1273 64.332C62.1673 64.332 61.8673 64.956 61.8673 65.928ZM68.0625 69.108C67.3425 69.108 66.8265 68.88 66.8265 68.112C66.8265 67.332 67.3425 67.14 68.0625 67.14C68.7705 67.14 69.2745 67.332 69.2745 68.112C69.2745 68.88 68.7825 69.108 68.0625 69.108ZM70.3193 69V61.32H72.2753L72.2513 67.416H74.8073V69H70.3193ZM78.8423 69.048C76.0823 69.228 75.4223 68.688 75.4223 67.02V64.38H74.4623V63.36L75.4223 62.88V61.32H77.2343V62.88H78.8423V64.38H77.2823V66.828C77.2823 67.296 77.4383 67.68 78.8423 67.536V69.048ZM81.9612 69.108C79.9332 69.108 79.3212 67.488 79.3212 65.928C79.3212 64.356 79.8612 62.772 81.7812 62.772C82.7292 62.772 83.3292 63.096 83.5932 63.468V60.516H85.4772V69H84.6372L84.1812 68.04C83.8572 68.532 83.1492 69.108 81.9612 69.108ZM81.2292 65.928C81.2292 66.888 81.4092 67.56 82.4172 67.56C83.4492 67.56 83.6292 66.9 83.6292 65.928C83.6292 64.992 83.4972 64.296 82.4292 64.296C81.4092 64.296 81.2292 64.968 81.2292 65.928ZM87.5859 69.108C86.8659 69.108 86.3499 68.88 86.3499 68.112C86.3499 67.332 86.8659 67.14 87.5859 67.14C88.2939 67.14 88.7979 67.332 88.7979 68.112C88.7979 68.88 88.3059 69.108 87.5859 69.108ZM88.9788 69L91.6908 61.32H94.1388L96.8508 69H94.8108L94.3908 67.68H91.4388L91.0188 69H88.9788ZM91.8588 66.252H93.9708L92.9028 63.012L91.8588 66.252ZM97.3854 69V60.516H99.2574V69H97.3854ZM100.491 69V60.516H102.363V69H100.491ZM106.448 69V61.32H109.388C112.34 61.32 112.628 62.88 112.628 63.888C112.628 64.74 112.34 66.072 110.504 66.18L112.964 69H110.588L108.392 66.096V69H106.448ZM108.392 64.848H109.364C110.432 64.848 110.66 64.332 110.66 63.888C110.66 63.408 110.432 62.904 109.364 62.904H108.392V64.848ZM113.673 69V62.88H115.557V69H113.673ZM113.373 60.96C113.373 60.108 113.901 59.952 114.621 59.952C115.329 59.952 115.833 60.108 115.833 60.96C115.833 61.788 115.329 61.968 114.621 61.968C113.901 61.968 113.373 61.8 113.373 60.96ZM119.278 71.568C116.962 71.568 116.29 70.824 116.29 69.48H118.15C118.15 69.9 118.342 70.332 119.458 70.332C120.514 70.332 120.646 69.948 120.646 69.756C120.646 69.516 120.538 69.36 119.83 69.252L118.45 69.048C117.226 68.868 116.35 68.64 116.35 67.716C116.35 67.104 116.818 66.78 117.478 66.612C116.722 66.312 116.482 65.712 116.482 65.028C116.482 62.88 118.846 62.88 119.686 62.88H122.458V63.72L121.51 64.176C121.87 64.356 122.23 64.656 122.23 65.46C122.23 67.068 120.778 67.188 119.182 67.236C118.522 67.26 118.126 67.248 118.126 67.5C118.126 67.656 118.246 67.716 119.662 67.92C121.414 68.172 122.578 68.316 122.578 69.6C122.578 70.536 122.014 71.568 119.278 71.568ZM118.378 65.112C118.378 65.628 118.558 65.988 119.35 65.988C120.118 65.988 120.298 65.628 120.298 65.088C120.298 64.608 120.142 64.272 119.338 64.272C118.57 64.272 118.378 64.596 118.378 65.112ZM123.26 69V60.516H125.12V63.528C125.336 63.168 125.912 62.772 126.74 62.772C128.768 62.772 129.116 63.984 129.116 65.652V69H127.232V65.58C127.232 64.68 127.076 64.332 126.212 64.332C125.348 64.332 125.12 64.668 125.12 65.58V69H123.26ZM133.897 69.048C131.137 69.228 130.477 68.688 130.477 67.02V64.38H129.517V63.36L130.477 62.88V61.32H132.289V62.88H133.897V64.38H132.337V66.828C132.337 67.296 132.493 67.68 133.897 67.536V69.048ZM137.516 69.108C135.368 69.108 134.444 68.472 134.444 66.792H136.256C136.256 67.368 136.52 67.752 137.456 67.752C138.2 67.752 138.464 67.488 138.464 67.176C138.464 66.228 134.54 66.9 134.54 64.74C134.54 63.648 135.344 62.772 137.36 62.772C139.448 62.772 140.108 63.528 140.108 64.98H138.38C138.38 64.44 138.128 64.092 137.36 64.092C136.64 64.092 136.424 64.296 136.424 64.632C136.424 65.568 140.324 64.848 140.324 67.152C140.324 68.088 139.52 69.108 137.516 69.108ZM144.088 69V61.32H147.028C149.98 61.32 150.268 62.88 150.268 63.888C150.268 64.74 149.98 66.072 148.144 66.18L150.604 69H148.228L146.032 66.096V69H144.088ZM146.032 64.848H147.004C148.072 64.848 148.3 64.332 148.3 63.888C148.3 63.408 148.072 62.904 147.004 62.904H146.032V64.848ZM154.102 69.108C151.534 69.108 150.922 67.548 150.922 65.94C150.922 64.356 151.546 62.772 154.066 62.772C156.418 62.772 157.006 64.368 157.006 65.976C157.006 66.156 157.006 66.336 156.982 66.516H152.806C152.818 67.332 153.202 67.788 154.018 67.788C154.702 67.788 154.99 67.5 155.062 67.152H157.018C156.91 68.28 155.962 69.108 154.102 69.108ZM152.818 65.268H155.062C155.062 64.632 154.762 64.14 153.97 64.14C153.226 64.14 152.818 64.5 152.818 65.268ZM160.743 69.108C158.595 69.108 157.671 68.472 157.671 66.792H159.483C159.483 67.368 159.747 67.752 160.683 67.752C161.427 67.752 161.691 67.488 161.691 67.176C161.691 66.228 157.767 66.9 157.767 64.74C157.767 63.648 158.571 62.772 160.587 62.772C162.675 62.772 163.335 63.528 163.335 64.98H161.607C161.607 64.44 161.355 64.092 160.587 64.092C159.867 64.092 159.651 64.296 159.651 64.632C159.651 65.568 163.551 64.848 163.551 67.152C163.551 68.088 162.747 69.108 160.743 69.108ZM167.356 69.108C164.788 69.108 164.176 67.548 164.176 65.94C164.176 64.356 164.8 62.772 167.32 62.772C169.672 62.772 170.26 64.368 170.26 65.976C170.26 66.156 170.26 66.336 170.236 66.516H166.06C166.072 67.332 166.456 67.788 167.272 67.788C167.956 67.788 168.244 67.5 168.316 67.152H170.272C170.164 68.28 169.216 69.108 167.356 69.108ZM166.072 65.268H168.316C168.316 64.632 168.016 64.14 167.224 64.14C166.48 64.14 166.072 64.5 166.072 65.268ZM171.249 69V62.88H172.101L172.485 63.756C172.869 63.132 173.457 62.64 174.741 62.784V64.416C173.337 64.272 173.121 65.028 173.121 66.06V69H171.249ZM177.277 69L174.829 62.88H176.893L178.321 67.32L179.809 62.88H181.957L179.377 69H177.277ZM185.168 69.108C182.6 69.108 181.988 67.548 181.988 65.94C181.988 64.356 182.612 62.772 185.132 62.772C187.484 62.772 188.072 64.368 188.072 65.976C188.072 66.156 188.072 66.336 188.048 66.516H183.872C183.884 67.332 184.268 67.788 185.084 67.788C185.768 67.788 186.056 67.5 186.128 67.152H188.084C187.976 68.28 187.028 69.108 185.168 69.108ZM183.884 65.268H186.128C186.128 64.632 185.828 64.14 185.036 64.14C184.292 64.14 183.884 64.5 183.884 65.268ZM191.461 69.108C189.433 69.108 188.821 67.488 188.821 65.928C188.821 64.356 189.361 62.772 191.281 62.772C192.229 62.772 192.829 63.096 193.093 63.468V60.516H194.977V69H194.137L193.681 68.04C193.357 68.532 192.649 69.108 191.461 69.108ZM190.729 65.928C190.729 66.888 190.909 67.56 191.917 67.56C192.949 67.56 193.129 66.9 193.129 65.928C193.129 64.992 192.997 64.296 191.929 64.296C190.909 64.296 190.729 64.968 190.729 65.928ZM196.93 69.108C196.258 69.072 195.85 68.808 195.85 68.124C195.85 67.332 196.366 67.14 197.086 67.14C197.866 67.14 198.382 67.428 198.286 68.22L198.01 70.584H196.93V69.108Z" fill="white"/>
</svg>
