<svg width="30" height="30" viewBox="0 0 30 30" fill="none" xmlns="http://www.w3.org/2000/svg">
<path fill-rule="evenodd" clip-rule="evenodd" d="M1.50244 14.9995C1.50244 9.6068 1.50244 6.91045 2.78748 4.96834C3.36131 4.10109 4.10402 3.35838 4.97127 2.78455C6.91338 1.49951 9.60973 1.49951 15.0024 1.49951C20.3952 1.49951 23.0915 1.49951 25.0336 2.78455C25.9009 3.35838 26.6436 4.10109 27.2174 4.96834C28.5024 6.91045 28.5024 9.6068 28.5024 14.9995C28.5024 20.3922 28.5024 23.0886 27.2174 25.0307C26.6436 25.8979 25.9009 26.6406 25.0336 27.2145C23.0915 28.4995 20.3952 28.4995 15.0024 28.4995C9.60973 28.4995 6.91338 28.4995 4.97127 27.2145C4.10402 26.6406 3.36131 25.8979 2.78748 25.0307C1.50244 23.0886 1.50244 20.3922 1.50244 14.9995ZM21.9919 14.9999C21.9919 18.8599 18.8627 21.9891 15.0027 21.9891C11.1428 21.9891 8.01363 18.8599 8.01363 14.9999C8.01363 11.14 11.1428 8.01083 15.0027 8.01083C18.8627 8.01083 21.9919 11.14 21.9919 14.9999ZM15.0027 19.6244C17.5568 19.6244 19.6273 17.554 19.6273 14.9999C19.6273 12.4459 17.5568 10.3754 15.0027 10.3754C12.4487 10.3754 10.3782 12.4459 10.3782 14.9999C10.3782 17.554 12.4487 19.6244 15.0027 19.6244ZM22.2679 9.30193C23.1749 9.30193 23.9101 8.56667 23.9101 7.65969C23.9101 6.75271 23.1749 6.01746 22.2679 6.01746C21.3609 6.01746 20.6257 6.75271 20.6257 7.65969C20.6257 8.56667 21.3609 9.30193 22.2679 9.30193Z" fill="black"/>
</svg>
