<svg width="166" height="38" viewBox="0 0 166 38" fill="none" xmlns="http://www.w3.org/2000/svg">
<path d="M0.531688 37L20.0317 3.72H31.8877L35.4237 37H25.1277L24.7117 31.54H14.5717L11.5037 37H0.531688ZM18.1077 24.208H24.6597L24.1397 12.352L18.1077 24.208ZM48.6134 37.52C41.3854 37.52 36.1854 35.388 36.1854 29.616C36.1854 28.94 36.2374 28.264 36.3934 27.536H45.9614C45.4934 30.396 46.3254 31.748 49.2894 31.748C51.0054 31.748 52.6694 31.176 52.6694 28.94C52.6694 25.508 38.9414 26.704 38.9414 19.164C38.9414 14.588 41.9054 9.96 52.6174 9.96C60.0014 9.96 64.1094 12.196 64.1094 17.344C64.1094 18.02 64.0574 18.8 63.9014 19.58H54.6974C55.1134 17.24 54.3334 15.94 51.8894 15.94C49.8614 15.94 48.7174 16.824 48.7174 18.436C48.7174 22.18 62.3414 20.412 62.3414 28.368C62.3414 31.748 59.8974 37.52 48.6134 37.52ZM75.549 37.52C63.745 37.52 62.913 29.408 64.317 23.22C65.825 16.928 69.517 9.96 80.385 9.96C92.137 9.96 93.073 18.176 91.617 24.26C90.109 30.708 86.469 37.52 75.549 37.52ZM73.469 23.74C72.533 27.9 73.937 29.252 76.329 29.252C79.709 29.252 81.529 27.9 82.517 23.74C83.453 19.736 82.153 18.436 79.553 18.436C76.225 18.436 74.457 19.736 73.469 23.74ZM106.649 37.52C103.321 37.52 100.929 35.908 99.1091 33.776L96.6131 37H90.7371L99.3171 0.235999H109.249L106.441 12.04C109.093 10.532 111.173 9.96 113.773 9.96C121.937 9.96 122.457 17.812 121.053 24.26C119.649 30.448 115.697 37.52 106.649 37.52ZM102.957 26.548C102.957 28.368 104.049 29.72 106.129 29.72C110.237 29.72 111.641 24.416 111.641 20.828C111.641 18.956 110.549 17.916 108.573 17.916C104.673 17.916 102.957 22.908 102.957 26.548ZM133.519 37.52C121.715 37.52 120.883 29.408 122.287 23.22C123.795 16.928 127.487 9.96 138.355 9.96C150.107 9.96 151.043 18.176 149.587 24.26C148.079 30.708 144.439 37.52 133.519 37.52ZM131.439 23.74C130.503 27.9 131.907 29.252 134.299 29.252C137.679 29.252 139.499 27.9 140.487 23.74C141.423 19.736 140.123 18.436 137.523 18.436C134.195 18.436 132.427 19.736 131.439 23.74ZM152.243 25.768L153.699 14.588L156.247 3.72H165.607L162.799 15.628L159.419 25.768H152.243ZM148.031 32.112C148.759 28.94 151.099 27.796 154.687 27.796C158.275 27.796 161.031 29.252 160.147 33.152C159.419 36.272 157.131 37.52 153.595 37.52C149.955 37.52 147.147 35.96 148.031 32.112Z" fill="white"/>
</svg>
