<svg id="コンポーネント_12_2" data-name="コンポーネント 12 – 2" xmlns="http://www.w3.org/2000/svg" width="31" height="31" viewBox="0 0 31 31">
  <path id="パス_12" data-name="パス 12" d="M9.281,5.374.141-.125" transform="translate(11.858 9.126)" fill="#5f6264"/>
  <g id="グループ_87" data-name="グループ 87" transform="translate(-821 -6784)">
    <g id="グループ_90" data-name="グループ 90" transform="translate(821 6784)">
      <path id="楕円形_1" data-name="楕円形 1" d="M15.5,1.5A14,14,0,0,0,5.6,25.4,14,14,0,1,0,25.4,5.6a13.908,13.908,0,0,0-9.9-4.1m0-1.5A15.5,15.5,0,1,1,0,15.5,15.5,15.5,0,0,1,15.5,0Z" fill="#5f6264"/>
      <path id="パス_13" data-name="パス 13" d="M0,6.25A.749.749,0,0,1-.636,5.9.75.75,0,0,1-.4,4.864l8.825-5.5A.75.75,0,0,1,9.461-.4.75.75,0,0,1,9.222.637L.4,6.136A.747.747,0,0,1,0,6.25Z" transform="translate(12.315 14.5)" fill="#5f6264"/>
      <path id="パス_12_-_アウトライン" data-name="パス 12 - アウトライン" d="M9.537,6.4-.888.131l.773-1.285L10.31,5.118Z" transform="translate(11.858 9.126)" fill="#5f6264"/>
    </g>
  </g>
</svg>
