<svg id="グループ_2" data-name="グループ 2" xmlns="http://www.w3.org/2000/svg" width="334.835" height="78.556" viewBox="0 0 334.835 78.556">
  <g id="グループ_1" data-name="グループ 1">
    <path id="パス_1" data-name="パス 1" d="M29.709,38.155v4.659a57.693,57.693,0,0,1-4.932,4.5,33.757,33.757,0,0,1-4.5,3.12A17.637,17.637,0,0,1,11.75,52.7a11.282,11.282,0,0,1-8.409-3.407A11.932,11.932,0,0,1,0,40.572a22.893,22.893,0,0,1,1.651-8.4,27.436,27.436,0,0,1,4.421-7.564A22.337,22.337,0,0,1,12.4,19.279a14.179,14.179,0,0,1,6.936-1.988,8.212,8.212,0,0,1,5.718,1.965A6.718,6.718,0,0,1,27.233,24.5a6.355,6.355,0,0,1-.058.871,2.354,2.354,0,0,1-.414.953,3.378,3.378,0,0,1-1.492,1.012l-4.56,2.228a5.591,5.591,0,0,1-1.217.406q-.55,0-.55-.81l.236-2.147.236-2.188a5.277,5.277,0,0,0-.706-2.836,2.206,2.206,0,0,0-1.965-1.135,4.967,4.967,0,0,0-3.655,2.008A15.2,15.2,0,0,0,10.219,28.2a22.186,22.186,0,0,0-1.1,7.02,12.274,12.274,0,0,0,2.239,7.669,7.149,7.149,0,0,0,5.975,2.921,10.155,10.155,0,0,0,3.791-.729A15.317,15.317,0,0,0,25,42.692,48.273,48.273,0,0,0,29.709,38.155Z" transform="translate(0 6.014)" fill="#fff"/>
    <path id="パス_2" data-name="パス 2" d="M64.134,38.155v4.659a104.073,104.073,0,0,1-8.7,7.819A9.172,9.172,0,0,1,49.948,52.7q-5.855,0-5.855-11.3a39.19,39.19,0,0,1-7.387,8.649,10.786,10.786,0,0,1-6.72,2.654,6.6,6.6,0,0,1-4.166-1.518,10.037,10.037,0,0,1-3.025-4.23,15.219,15.219,0,0,1-1.1-5.786,21.381,21.381,0,0,1,2.082-9.389,27.87,27.87,0,0,1,5.247-7.547,26.708,26.708,0,0,1,6.759-5.079,14.274,14.274,0,0,1,6.426-1.861,7,7,0,0,1,6.877,4.577L57.1,17.291h2.2L55.848,29.179l-1.809,6.9q-.392,1.7-.628,3.144a14.817,14.817,0,0,0-.236,2.251,4.3,4.3,0,0,0,.667,2.577,2.05,2.05,0,0,0,1.729.912,4.912,4.912,0,0,0,2.907-1.337Q60.124,42.287,64.134,38.155Zm-21.5-17.542q-2.634,0-5.188,3.3a27.419,27.419,0,0,0-4.166,8.029,26.068,26.068,0,0,0-1.611,8.21,5.86,5.86,0,0,0,1.022,3.519,3.316,3.316,0,0,0,2.673,1.375q2.711,0,5.207-3.3a27.954,27.954,0,0,0,4.087-8.069,26.74,26.74,0,0,0,1.592-8.251,5.853,5.853,0,0,0-.943-3.518A3.1,3.1,0,0,0,42.638,20.613Z" transform="translate(7.546 6.014)" fill="#fff"/>
    <path id="パス_3" data-name="パス 3" d="M52.512,45.181,59.96,37.2l2.177-10.531q.392-1.785.806-3.267t1.179-3.917q.766-2.434,1.433-4.383t1.3-3.491Q68.19,8.2,69.132,6.191a28.614,28.614,0,0,1,1.356-2.658q.412-.649,5.4-2.111Q78.37.733,79.685.387A15.131,15.131,0,0,1,81.4,0q1.494,0,2.438,2.028A12.6,12.6,0,0,1,84.775,7.3a21.072,21.072,0,0,1-3.418,11.849A77.145,77.145,0,0,1,70.864,31.245l-3.3,16.894q1.886,4.254,5.777,4.254a10.111,10.111,0,0,0,5.7-1.985,29.815,29.815,0,0,0,6.249-6.239v4.659A39.468,39.468,0,0,1,77.349,56q-4.088,2.713-7.309,2.715a11.293,11.293,0,0,1-4.087-1.175L65.166,62l-.59,3.774-.708,4.707-.824,6.329q-3.3.485-9.826,1.744,1.3-11.192,4.362-28.833L56.048,45.83l-2.632,3h-.9V45.181ZM72.082,25.736a33.984,33.984,0,0,0,7.113-8.77,18.454,18.454,0,0,0,2.713-8.893,5.613,5.613,0,0,0-.629-2.755q-.631-1.134-1.493-1.134-1.179,0-2.357,2.107-.433.851-.983,2.268t-1.1,3.119q-.983,3.364-1.768,6.968-.59,3.037-.706,3.565Q72.593,23.549,72.082,25.736Z" transform="translate(24.402)" fill="#fff"/>
    <path id="パス_4" data-name="パス 4" d="M106.255,38.123v4.659q-2.044,2.026-3.615,3.423t-3.105,2.573a20.3,20.3,0,0,1-5.4,2.937,16.9,16.9,0,0,1-5.6.953,11.194,11.194,0,0,1-8.625-3.545,13.084,13.084,0,0,1-3.282-9.257,23.464,23.464,0,0,1,1.551-8.305,24.964,24.964,0,0,1,4.146-7.251,21.184,21.184,0,0,1,6.013-5.023,14.011,14.011,0,0,1,6.878-1.9,8.59,8.59,0,0,1,5.835,1.925,6.44,6.44,0,0,1,2.22,5.124,8.534,8.534,0,0,1-2.712,6.2,20.962,20.962,0,0,1-6.327,4.335q-3.417,1.5-8.251,3.08A10.8,10.8,0,0,0,88.9,43.919a7.4,7.4,0,0,0,5.285,2.026,8.635,8.635,0,0,0,3.91-.891,14.884,14.884,0,0,0,3.321-2.27q.667-.566,1.926-1.762T106.255,38.123ZM85.664,35.288a16.6,16.6,0,0,0,7.486-4.173,9.243,9.243,0,0,0,2.574-6.6,4.8,4.8,0,0,0-.747-2.876,2.368,2.368,0,0,0-2-1.012,4.745,4.745,0,0,0-3.223,1.7,13.616,13.616,0,0,0-2.89,5.044A23.48,23.48,0,0,0,85.664,35.288Z" transform="translate(35.508 6.046)" fill="#fff"/>
    <path id="パス_5" data-name="パス 5" d="M155.628,38.155v4.659a104.07,104.07,0,0,1-8.7,7.819,9.172,9.172,0,0,1-5.482,2.066q-5.855,0-5.855-11.3a39.19,39.19,0,0,1-7.387,8.649,10.786,10.786,0,0,1-6.72,2.654,6.6,6.6,0,0,1-4.166-1.518,10.037,10.037,0,0,1-3.025-4.23,15.219,15.219,0,0,1-1.1-5.786,21.381,21.381,0,0,1,2.082-9.389,27.87,27.87,0,0,1,5.247-7.547,26.708,26.708,0,0,1,6.759-5.079,14.274,14.274,0,0,1,6.426-1.861,7,7,0,0,1,6.877,4.577l8.017-4.577h2.2l-3.457,11.888-1.809,6.9q-.392,1.7-.628,3.144a14.817,14.817,0,0,0-.236,2.251,4.3,4.3,0,0,0,.667,2.577,2.05,2.05,0,0,0,1.729.912,4.912,4.912,0,0,0,2.907-1.337Q151.618,42.287,155.628,38.155Zm-21.5-17.542q-2.634,0-5.188,3.3a27.419,27.419,0,0,0-4.166,8.029,26.068,26.068,0,0,0-1.611,8.21,5.86,5.86,0,0,0,1.022,3.519,3.316,3.316,0,0,0,2.673,1.375q2.711,0,5.207-3.3a27.954,27.954,0,0,0,4.087-8.069,26.74,26.74,0,0,0,1.592-8.251,5.854,5.854,0,0,0-.943-3.518A3.107,3.107,0,0,0,134.133,20.613Z" transform="translate(53.077 6.014)" fill="#fff"/>
    <path id="パス_6" data-name="パス 6" d="M144.006,42.784V39.138a103.836,103.836,0,0,0,8.057-9.642l2.987-4.173,2.593-4.011,1.493-2.593q.548-1.336,1.061-1.337l1.179.162a33.442,33.442,0,0,0,3.849.689,32.748,32.748,0,0,0,3.969.244,49.391,49.391,0,0,0,8.528-.85,11.617,11.617,0,0,1,1.847-.243c.472,0,.72.135.747.4a9.526,9.526,0,0,1-1.609,3.161l-3.062,4.092-5.538,6.974-5.662,7.006L161.3,42.948l2.595-.163a36.728,36.728,0,0,1,5.363.911,44.768,44.768,0,0,0,4.932.912,6.916,6.916,0,0,0,2.888-.547,9.57,9.57,0,0,0,2.613-1.944q1.413-1.4,3.773-3.991v4.659l-3.93,4.254a35.864,35.864,0,0,1-3.321,3.14,14.6,14.6,0,0,1-3.046,1.925,9.714,9.714,0,0,1-1.492.487,7.066,7.066,0,0,1-1.572.162,21.589,21.589,0,0,1-5.266-1.256,22.031,22.031,0,0,0-6.249-1.418,5.556,5.556,0,0,0-4.285,1.9,2.212,2.212,0,0,1-.942.77q-2.673,0-2.751-.365,0-.609,2.356-3.77l5.693-7.336,7.406-9.181,4.823-6.085a22.2,22.2,0,0,1-4.913.485,24.576,24.576,0,0,1-7.309-1.214q-2.517,3.767-4.952,6.968-.669.892-1.651,2.147-1.731,2.188-2.693,3.363T147.287,40.2q-1.12,1.256-2.378,2.592h-.9Z" transform="translate(67.336 6.046)" fill="#fff"/>
    <path id="パス_7" data-name="パス 7" d="M192.686,42.319v4.659q-9.195,9.967-13.755,9.967-2.515,0-4.243-2.715a12.048,12.048,0,0,1-1.729-6.6,42.461,42.461,0,0,1,1.631-11.384q1.632-5.873,4.029-12.519l9.981-2.147h.472l-3.929,12.68q-1.336,4.458-1.886,6.968a20.468,20.468,0,0,0-.55,4.254,3.738,3.738,0,0,0,.57,2.188,1.7,1.7,0,0,0,1.433.81,4.9,4.9,0,0,0,3.2-1.276A59.225,59.225,0,0,0,192.686,42.319Zm-9.982-37,2.829,1.588a5.975,5.975,0,0,0,2.162.407,7.047,7.047,0,0,0,4.205-1.58q0,4.781-1.749,7.251a5.958,5.958,0,0,1-5.207,2.471,8.443,8.443,0,0,1-5.775-2.107A32.69,32.69,0,0,0,182.7,5.32Z" transform="translate(79.469 1.85)" fill="#fff"/>
    <path id="パス_8" data-name="パス 8" d="M192.969,21.974l3.674-12.645,10.545-2.235L203.18,21.2l5.461-.325-1.3,6.239-6.092.485-1.376,4.538q-1.179,3.971-1.886,6.989a22.95,22.95,0,0,0-.706,5.084,5.162,5.162,0,0,0,.942,3.119,2.906,2.906,0,0,0,2.359,1.175,6.781,6.781,0,0,0,4.224-1.5,52.924,52.924,0,0,0,5.522-5.308V46.36a52.472,52.472,0,0,1-8.725,7.576,12.676,12.676,0,0,1-6.719,2.309,6.438,6.438,0,0,1-5.482-2.957,12.992,12.992,0,0,1-2.1-7.7,28.391,28.391,0,0,1,.55-5.53q.55-2.776,1.573-6.219L191,28.332l-3.026.163,1.26-6.359Z" transform="translate(89.253 2.468)" fill="#fff"/>
    <path id="パス_9" data-name="パス 9" d="M239.751,38.155v4.659a14.577,14.577,0,0,1-3.44,2.471,7.642,7.642,0,0,1-3.438.85,8.144,8.144,0,0,1-1.4-.1,7.6,7.6,0,0,1-1.4-.425,14.316,14.316,0,0,1-2.829-1.741,22.411,22.411,0,0,1-6.052,6.6,13.35,13.35,0,0,1-3.341,1.661,11.422,11.422,0,0,1-3.576.567,9.307,9.307,0,0,1-5.306-1.582,10.119,10.119,0,0,1-3.634-4.542,16.946,16.946,0,0,1-1.278-6.773,23.424,23.424,0,0,1,.708-5.84,22.017,22.017,0,0,1,2.2-5.394,22.691,22.691,0,0,1,7.879-8.193,20.085,20.085,0,0,1,10.787-3.082,11.779,11.779,0,0,1,4.855.751,3.542,3.542,0,0,1,1.926,1.744,7.444,7.444,0,0,1,.372,2.577q0,7.547-4.008,18.624a8.611,8.611,0,0,0,2.024,1.4,4.915,4.915,0,0,0,2.181.507,5.383,5.383,0,0,0,3.045-1.2A22.616,22.616,0,0,0,239.751,38.155Zm-14.737,3.476a16.55,16.55,0,0,1-3.694-10.306,13.273,13.273,0,0,1,1.278-6,18.281,18.281,0,0,1,4.184-5.193,4.608,4.608,0,0,0-1.69-.244,7.754,7.754,0,0,0-6.249,2.941,18.273,18.273,0,0,0-3.537,7.183,32.976,32.976,0,0,0-1.1,8.3,12.92,12.92,0,0,0,1.3,6.41,3.9,3.9,0,0,0,3.459,2.231Q221.674,46.946,225.014,41.631Z" transform="translate(95.084 6.015)" fill="#fff"/>
  </g>
</svg>
