<svg xmlns="http://www.w3.org/2000/svg" width="30" height="31.51" viewBox="0 0 30 31.51">
  <path id="Icon_awesome-instagram" data-name="Icon awesome-instagram" d="M15,9.914a7.879,7.879,0,0,0-7.69,8.079A7.879,7.879,0,0,0,15,26.072a7.879,7.879,0,0,0,7.69-8.079A7.879,7.879,0,0,0,15,9.914Zm0,13.331a5.14,5.14,0,0,1-5-5.252,5.135,5.135,0,0,1,5-5.252,5.135,5.135,0,0,1,5,5.252,5.14,5.14,0,0,1-5,5.252ZM24.8,9.584A1.8,1.8,0,1,1,23,7.7,1.836,1.836,0,0,1,24.8,9.584ZM29.889,11.5a9.593,9.593,0,0,0-2.423-6.6,8.7,8.7,0,0,0-6.284-2.545c-2.476-.148-9.9-.148-12.375,0A8.687,8.687,0,0,0,2.523,4.887,9.624,9.624,0,0,0,.1,11.489c-.141,2.6-.141,10.4,0,13a9.593,9.593,0,0,0,2.423,6.6,8.711,8.711,0,0,0,6.284,2.545c2.476.148,9.9.148,12.375,0a8.643,8.643,0,0,0,6.284-2.545,9.656,9.656,0,0,0,2.423-6.6c.141-2.6.141-10.392,0-12.994Zm-3.2,15.785a5.2,5.2,0,0,1-2.851,3c-1.974.823-6.659.633-8.841.633s-6.873.183-8.841-.633a5.2,5.2,0,0,1-2.851-3c-.783-2.074-.6-7-.6-9.288s-.174-7.221.6-9.288a5.2,5.2,0,0,1,2.851-3c1.974-.823,6.659-.633,8.841-.633s6.873-.183,8.841.633a5.2,5.2,0,0,1,2.851,3c.783,2.074.6,7,.6,9.288S27.473,25.214,26.69,27.281Z" transform="translate(0.005 -2.238)" fill="#5f6264"/>
</svg>
