<svg width="38" height="37" viewBox="0 0 38 37" fill="none" xmlns="http://www.w3.org/2000/svg">
<path d="M18.9996 0.700665C14.1887 0.65075 9.55522 2.55319 6.11748 5.98987C2.67974 9.42656 0.719027 14.1163 0.66626 19.0284C0.684797 22.9103 1.90783 26.6864 4.1597 29.8142C6.41156 32.9421 9.57638 35.2607 13.1996 36.4371C14.1163 36.6073 14.4496 36.0457 14.4496 35.5522C14.4496 35.0587 14.4496 33.9696 14.4496 32.438C9.34959 33.5442 8.26626 29.9875 8.26626 29.9875C7.92675 28.871 7.20498 27.9166 6.23293 27.2988C4.56626 26.1757 6.36626 26.1927 6.36626 26.1927C6.94234 26.2713 7.49352 26.4821 7.97844 26.8092C8.46337 27.1364 8.86946 27.5714 9.16626 28.0816C9.68348 28.9973 10.5321 29.6691 11.5296 29.9524C12.5271 30.2356 13.5936 30.1077 14.4996 29.5961C14.5928 28.6642 15.0061 27.7961 15.6663 27.1456C11.5996 26.6862 7.33293 25.1206 7.33293 18.0924C7.29656 16.2591 7.96 14.4832 9.18293 13.1404C8.62597 11.5664 8.69174 9.83271 9.36626 8.30743C9.36626 8.30743 10.9163 7.81392 14.3663 10.1793C17.3694 9.36223 20.5298 9.36223 23.5329 10.1793C27.0329 7.81392 28.5329 8.30743 28.5329 8.30743C29.2074 9.83271 29.2732 11.5664 28.7163 13.1404C29.9676 14.4586 30.667 16.2226 30.6663 18.0584C30.6663 25.1036 26.3663 26.6521 22.3329 27.1116C22.7746 27.5494 23.1157 28.0817 23.3318 28.6702C23.548 29.2587 23.6337 29.8887 23.5829 30.5151V35.5352C23.5829 35.5352 23.9163 36.6073 24.8329 36.4201C28.4459 35.2364 31.6 32.9172 33.8449 29.7938C36.0898 26.6704 37.3106 22.9025 37.3329 19.0284C37.2802 14.1163 35.3194 9.42656 31.8817 5.98987C28.444 2.55319 23.8105 0.65075 18.9996 0.700665Z" fill="white"/>
</svg>
