<svg width="125" height="80" viewBox="0 0 125 80" fill="none" xmlns="http://www.w3.org/2000/svg">
<path d="M4.8 -3.8147e-06H15.6C18 -3.8147e-06 22.64 0.239998 26.16 2.72C31.2 6.32 31.28 12.32 31.28 15.6C31.28 19.28 30.96 21.84 28.88 24.32C27.84 25.6 26.64 26.4 25.84 26.88C28 27.84 28.96 29.2 29.68 30.4C31.28 33.2 31.28 34.72 31.28 37.44V41.68C31.28 44 31.28 49.76 26.48 53.36C24.72 54.72 21.76 56 16.96 56H4.8V-3.8147e-06ZM12.8 7.2V23.2H16.64C19.36 23.2 20.96 22.08 21.76 21.12C22.72 20 23.28 18.08 23.28 16.32V12.88C23.28 11.44 22.64 10 21.76 9.04C20.8 8.08 19.2 7.2 16.56 7.2H12.8ZM12.8 30.4V48.8H16.4C17.6 48.8 20.16 48.64 21.84 46.32C23.2 44.48 23.28 41.6 23.28 40.64V38C23.28 35.28 22.88 33.36 21.12 31.84C19.84 30.8 18.64 30.4 16.88 30.4H12.8ZM39.3125 56V-3.8147e-06H63.0725V7.6H47.3125V24.08H61.2325V31.28H47.3125V48.4H63.3125V56H39.3125ZM97.595 56H89.595L86.955 44H76.715L74.075 56H66.075L78.315 -3.8147e-06H85.355L97.595 56ZM85.995 36.88L81.675 15.6L77.515 36.88H85.995ZM94.9031 -3.8147e-06H122.743V7.6H112.823V56H104.823V7.6H94.9031V-3.8147e-06Z" fill="black"/>
<path d="M4.96 64.8H7.12C7.6 64.8 8.528 64.848 9.232 65.344C10.24 66.064 10.256 67.264 10.256 67.92C10.256 68.656 10.192 69.168 9.776 69.664C9.568 69.92 9.328 70.08 9.168 70.176C9.6 70.368 9.792 70.64 9.936 70.88C10.256 71.44 10.256 71.744 10.256 72.288V73.136C10.256 73.6 10.256 74.752 9.296 75.472C8.944 75.744 8.352 76 7.392 76H4.96V64.8ZM6.56 66.24V69.44H7.328C7.872 69.44 8.192 69.216 8.352 69.024C8.544 68.8 8.656 68.416 8.656 68.064V67.376C8.656 67.088 8.528 66.8 8.352 66.608C8.16 66.416 7.84 66.24 7.312 66.24H6.56ZM6.56 70.88V74.56H7.28C7.52 74.56 8.032 74.528 8.368 74.064C8.64 73.696 8.656 73.12 8.656 72.928V72.4C8.656 71.856 8.576 71.472 8.224 71.168C7.968 70.96 7.728 70.88 7.376 70.88H6.56ZM13.3025 72.624V73.648C13.3025 73.888 13.3185 74.144 13.5105 74.336C13.6385 74.48 13.8625 74.56 14.1185 74.56C14.3905 74.56 14.5985 74.464 14.7585 74.224C14.8545 74.064 14.9025 73.856 14.9025 73.68H16.5025V73.744C16.5025 74.336 16.3905 75.12 15.6065 75.68C15.2065 75.968 14.6625 76.128 14.1185 76.128C13.3825 76.128 12.6945 75.824 12.2785 75.36C11.7185 74.736 11.7025 73.92 11.7025 73.44V70.4C11.7025 69.84 11.8145 69.056 12.4865 68.48C12.8545 68.16 13.3985 67.936 14.0705 67.936C14.7585 67.936 15.3345 68.16 15.7345 68.512C16.4385 69.12 16.5345 69.92 16.5345 70.544V72.624H13.3025ZM13.3025 71.392H14.9345V70.352C14.9345 70.144 14.9025 69.92 14.7105 69.728C14.5825 69.6 14.3745 69.504 14.1185 69.504C13.8465 69.504 13.6225 69.616 13.4945 69.776C13.3345 69.968 13.3025 70.208 13.3025 70.416V71.392ZM21.6363 76V64.8H26.3883V66.32H23.2363V69.616H26.0203V71.056H23.2363V74.48H26.4363V76H21.6363ZM32.4448 68.064L30.3328 76H29.0528L26.9408 68.064H28.6208L29.6928 73.104H29.7728L30.8448 68.064H32.4448ZM33.2031 73.44V70.624C33.2031 70 33.2511 69.12 33.9871 68.496C34.4191 68.128 35.0271 67.936 35.6191 67.936C36.2111 67.936 36.8191 68.128 37.2511 68.496C37.9871 69.12 38.0351 70 38.0351 70.624V73.44C38.0351 74.064 37.9871 74.944 37.2511 75.568C36.8191 75.936 36.2111 76.128 35.6191 76.128C35.0271 76.128 34.4191 75.936 33.9871 75.568C33.2511 74.944 33.2031 74.064 33.2031 73.44ZM36.4351 73.536V70.528C36.4351 70.16 36.3391 69.888 36.1951 69.728C36.0671 69.6 35.8591 69.504 35.6191 69.504C35.3791 69.504 35.1711 69.6 35.0431 69.728C34.8991 69.888 34.8031 70.16 34.8031 70.528V73.536C34.8031 73.904 34.8991 74.176 35.0431 74.336C35.1711 74.464 35.3791 74.56 35.6191 74.56C35.8591 74.56 36.0671 74.464 36.1951 74.336C36.3391 74.176 36.4351 73.904 36.4351 73.536ZM39.5446 64.8H41.1446V73.744C41.1446 73.936 41.1766 74.176 41.3686 74.352C41.5286 74.496 41.7526 74.512 41.8806 74.512H42.0406V76H41.5766C41.2086 76 40.4406 75.952 39.9446 75.328C39.5606 74.848 39.5446 74.288 39.5446 73.824V64.8ZM47.8241 68.064L45.7121 76H44.4321L42.3201 68.064H44.0001L45.0721 73.104H45.1521L46.2241 68.064H47.8241ZM50.1825 72.624V73.648C50.1825 73.888 50.1985 74.144 50.3905 74.336C50.5185 74.48 50.7425 74.56 50.9985 74.56C51.2705 74.56 51.4785 74.464 51.6385 74.224C51.7345 74.064 51.7825 73.856 51.7825 73.68H53.3825V73.744C53.3825 74.336 53.2705 75.12 52.4865 75.68C52.0865 75.968 51.5425 76.128 50.9985 76.128C50.2625 76.128 49.5745 75.824 49.1585 75.36C48.5985 74.736 48.5825 73.92 48.5825 73.44V70.4C48.5825 69.84 48.6945 69.056 49.3665 68.48C49.7345 68.16 50.2785 67.936 50.9505 67.936C51.6385 67.936 52.2145 68.16 52.6145 68.512C53.3185 69.12 53.4145 69.92 53.4145 70.544V72.624H50.1825ZM50.1825 71.392H51.8145V70.352C51.8145 70.144 51.7825 69.92 51.5905 69.728C51.4625 69.6 51.2545 69.504 50.9985 69.504C50.7265 69.504 50.5025 69.616 50.3745 69.776C50.2145 69.968 50.1825 70.208 50.1825 70.416V71.392ZM64.0203 76H62.4203L61.8923 73.6H59.8443L59.3163 76H57.7163L60.1643 64.8H61.5723L64.0203 76ZM61.7003 72.176L60.8363 67.92L60.0043 72.176H61.7003ZM64.8853 64.8H66.4853V73.744C66.4853 73.936 66.5173 74.176 66.7093 74.352C66.8693 74.496 67.0933 74.512 67.2213 74.512H67.3813V76H66.9173C66.5493 76 65.7813 75.952 65.2853 75.328C64.9013 74.848 64.8853 74.288 64.8853 73.824V64.8ZM68.4128 64.8H70.0128V73.744C70.0128 73.936 70.0448 74.176 70.2368 74.352C70.3968 74.496 70.6208 74.512 70.7488 74.512H70.9088V76H70.4448C70.0768 76 69.3088 75.952 68.8128 75.328C68.4288 74.848 68.4128 74.288 68.4128 73.824V64.8ZM75.7066 65.648H77.3066V68.064H78.3306V69.344H77.3066V73.696C77.3066 73.856 77.3226 74.192 77.5306 74.368C77.7066 74.512 77.9786 74.512 78.1226 74.512H78.3306V76H77.8986C77.4346 76 76.6666 75.984 76.1706 75.44C75.7226 74.96 75.7066 74.32 75.7066 73.84V69.344H74.8906V68.064H75.7066V65.648ZM79.4327 76V64.8H81.0327V68.704C81.1767 68.528 81.3527 68.368 81.5607 68.24C81.8487 68.064 82.1527 67.936 82.6167 67.936C83.0807 67.936 83.4807 68.064 83.8007 68.4C84.2167 68.832 84.2647 69.36 84.2647 69.744V76H82.6647V70.384C82.6647 70.192 82.6487 69.952 82.4567 69.744C82.3127 69.584 82.1367 69.504 81.8967 69.504C81.5927 69.504 81.4007 69.648 81.2887 69.76C81.0487 70.016 81.0327 70.304 81.0327 70.56V76H79.4327ZM87.3713 72.624V73.648C87.3713 73.888 87.3873 74.144 87.5793 74.336C87.7073 74.48 87.9313 74.56 88.1873 74.56C88.4593 74.56 88.6673 74.464 88.8273 74.224C88.9233 74.064 88.9713 73.856 88.9713 73.68H90.5713V73.744C90.5713 74.336 90.4593 75.12 89.6753 75.68C89.2753 75.968 88.7313 76.128 88.1873 76.128C87.4513 76.128 86.7633 75.824 86.3473 75.36C85.7873 74.736 85.7713 73.92 85.7713 73.44V70.4C85.7713 69.84 85.8833 69.056 86.5553 68.48C86.9233 68.16 87.4673 67.936 88.1393 67.936C88.8273 67.936 89.4033 68.16 89.8033 68.512C90.5073 69.12 90.6033 69.92 90.6033 70.544V72.624H87.3713ZM87.3713 71.392H89.0033V70.352C89.0033 70.144 88.9713 69.92 88.7793 69.728C88.6513 69.6 88.4433 69.504 88.1873 69.504C87.9153 69.504 87.6913 69.616 87.5633 69.776C87.4033 69.968 87.3713 70.208 87.3713 70.416V71.392ZM95.065 64.8H100.633V66.32H98.649V76H97.049V66.32H95.065V64.8ZM101.168 76V68.064H102.768V76H101.168ZM101.168 65.024H102.768V66.592H101.168V65.024ZM104.336 68.064H105.936V68.784C106.08 68.592 106.272 68.416 106.432 68.288C106.704 68.08 107.056 67.936 107.52 67.936C107.824 67.936 108.112 68.016 108.384 68.192C108.672 68.384 108.848 68.624 108.96 68.88C109.136 68.592 109.376 68.32 109.664 68.16C109.936 68 110.208 67.936 110.544 67.936C111.04 67.936 111.584 68.016 111.984 68.576C112.304 69.024 112.336 69.536 112.336 69.952V76H110.736V70.384C110.736 70.176 110.704 69.952 110.528 69.744C110.368 69.568 110.192 69.504 109.984 69.504C109.744 69.504 109.552 69.584 109.392 69.76C109.152 70.016 109.136 70.304 109.136 70.56V76H107.536V70.384C107.536 70.176 107.52 69.968 107.328 69.744C107.184 69.584 107.024 69.504 106.784 69.504C106.592 69.504 106.384 69.552 106.192 69.76C105.952 70.016 105.936 70.304 105.936 70.56V76H104.336V68.064ZM115.446 72.624V73.648C115.446 73.888 115.462 74.144 115.654 74.336C115.782 74.48 116.006 74.56 116.262 74.56C116.534 74.56 116.742 74.464 116.902 74.224C116.998 74.064 117.046 73.856 117.046 73.68H118.646V73.744C118.646 74.336 118.534 75.12 117.75 75.68C117.35 75.968 116.806 76.128 116.262 76.128C115.526 76.128 114.838 75.824 114.422 75.36C113.862 74.736 113.846 73.92 113.846 73.44V70.4C113.846 69.84 113.958 69.056 114.63 68.48C114.998 68.16 115.542 67.936 116.214 67.936C116.902 67.936 117.478 68.16 117.878 68.512C118.582 69.12 118.678 69.92 118.678 70.544V72.624H115.446ZM115.446 71.392H117.078V70.352C117.078 70.144 117.046 69.92 116.854 69.728C116.726 69.6 116.518 69.504 116.262 69.504C115.99 69.504 115.766 69.616 115.638 69.776C115.478 69.968 115.446 70.208 115.446 70.416V71.392Z" fill="black"/>
</svg>
