<svg width="291" height="267" viewBox="0 0 291 267" fill="none" xmlns="http://www.w3.org/2000/svg">
<path d="M7.5 210V-1.43051e-05H50.4C73.8 -1.43051e-05 80.1 7.5 80.1 33V68.7C80.1 87.6 76.5 96.6 65.4 99.9C76.5 103.2 80.1 111.6 80.1 130.5V177C80.1 202.5 73.8 210 50.4 210H7.5ZM45.6 111.9H33.6V185.4H45.6C53.1 185.4 54 182.4 54 173.4V123.9C54 114.9 53.1 111.9 45.6 111.9ZM54 75.6V36.6C54 27.6 53.1 24.6 45.6 24.6H33.6V87.3H45.6C53.1 87.3 54 84.6 54 75.6ZM120.033 24.6V88.2H144.033V112.8H120.033V185.4H149.433V210H93.9328V-1.43051e-05H149.433V24.6H120.033ZM207.223 210L204.223 180H181.723L178.723 210H155.323L176.323 -1.43051e-05H212.323L233.623 210H207.223ZM185.323 140.7L184.123 155.4H201.823L200.623 141.6C196.723 97.2 194.323 62.1 192.823 27.9C191.323 62.1 188.923 96.3 185.323 140.7ZM272.623 210H246.523V24.3H229.123V-1.43051e-05H290.323V24.3H272.623V210Z" fill="white"/>
<path d="M3.4 228H8.8C10 228 12.32 228.12 14.08 229.36C16.6 231.16 16.64 234.16 16.64 235.8C16.64 237.64 16.48 238.92 15.44 240.16C14.92 240.8 14.32 241.2 13.92 241.44C15 241.92 15.48 242.6 15.84 243.2C16.64 244.6 16.64 245.36 16.64 246.72V248.84C16.64 250 16.64 252.88 14.24 254.68C13.36 255.36 11.88 256 9.48 256H3.4V228ZM7.4 231.6V239.6H9.32C10.68 239.6 11.48 239.04 11.88 238.56C12.36 238 12.64 237.04 12.64 236.16V234.44C12.64 233.72 12.32 233 11.88 232.52C11.4 232.04 10.6 231.6 9.28 231.6H7.4ZM7.4 243.2V252.4H9.2C9.8 252.4 11.08 252.32 11.92 251.16C12.6 250.24 12.64 248.8 12.64 248.32V247C12.64 245.64 12.44 244.68 11.56 243.92C10.92 243.4 10.32 243.2 9.44 243.2H7.4ZM24.2563 247.56V250.12C24.2563 250.72 24.2963 251.36 24.7763 251.84C25.0963 252.2 25.6563 252.4 26.2963 252.4C26.9763 252.4 27.4963 252.16 27.8963 251.56C28.1363 251.16 28.2563 250.64 28.2563 250.2H32.2563V250.36C32.2563 251.84 31.9763 253.8 30.0163 255.2C29.0163 255.92 27.6563 256.32 26.2963 256.32C24.4563 256.32 22.7363 255.56 21.6963 254.4C20.2963 252.84 20.2563 250.8 20.2563 249.6V242C20.2563 240.6 20.5363 238.64 22.2163 237.2C23.1363 236.4 24.4963 235.84 26.1763 235.84C27.8963 235.84 29.3363 236.4 30.3363 237.28C32.0963 238.8 32.3363 240.8 32.3363 242.36V247.56H24.2563ZM24.2563 244.48H28.3363V241.88C28.3363 241.36 28.2563 240.8 27.7763 240.32C27.4563 240 26.9363 239.76 26.2963 239.76C25.6163 239.76 25.0563 240.04 24.7363 240.44C24.3363 240.92 24.2563 241.52 24.2563 242.04V244.48ZM45.0906 256V228H56.9706V231.8H49.0906V240.04H56.0506V243.64H49.0906V252.2H57.0906V256H45.0906ZM72.1119 236.16L66.8319 256H63.6319L58.3519 236.16H62.5519L65.2319 248.76H65.4319L68.1119 236.16H72.1119ZM74.0078 249.6V242.56C74.0078 241 74.1278 238.8 75.9678 237.24C77.0478 236.32 78.5678 235.84 80.0478 235.84C81.5278 235.84 83.0478 236.32 84.1278 237.24C85.9678 238.8 86.0878 241 86.0878 242.56V249.6C86.0878 251.16 85.9678 253.36 84.1278 254.92C83.0478 255.84 81.5278 256.32 80.0478 256.32C78.5678 256.32 77.0478 255.84 75.9678 254.92C74.1278 253.36 74.0078 251.16 74.0078 249.6ZM82.0878 249.84V242.32C82.0878 241.4 81.8478 240.72 81.4878 240.32C81.1678 240 80.6478 239.76 80.0478 239.76C79.4478 239.76 78.9278 240 78.6078 240.32C78.2478 240.72 78.0078 241.4 78.0078 242.32V249.84C78.0078 250.76 78.2478 251.44 78.6078 251.84C78.9278 252.16 79.4478 252.4 80.0478 252.4C80.6478 252.4 81.1678 252.16 81.4878 251.84C81.8478 251.44 82.0878 250.76 82.0878 249.84ZM89.8616 228H93.8616V250.36C93.8616 250.84 93.9416 251.44 94.4216 251.88C94.8216 252.24 95.3816 252.28 95.7016 252.28H96.1016V256H94.9416C94.0216 256 92.1016 255.88 90.8616 254.32C89.9016 253.12 89.8616 251.72 89.8616 250.56V228ZM110.56 236.16L105.28 256H102.08L96.8003 236.16H101L103.68 248.76H103.88L106.56 236.16H110.56ZM116.456 247.56V250.12C116.456 250.72 116.496 251.36 116.976 251.84C117.296 252.2 117.856 252.4 118.496 252.4C119.176 252.4 119.696 252.16 120.096 251.56C120.336 251.16 120.456 250.64 120.456 250.2H124.456V250.36C124.456 251.84 124.176 253.8 122.216 255.2C121.216 255.92 119.856 256.32 118.496 256.32C116.656 256.32 114.936 255.56 113.896 254.4C112.496 252.84 112.456 250.8 112.456 249.6V242C112.456 240.6 112.736 238.64 114.416 237.2C115.336 236.4 116.696 235.84 118.376 235.84C120.096 235.84 121.536 236.4 122.536 237.28C124.296 238.8 124.536 240.8 124.536 242.36V247.56H116.456ZM116.456 244.48H120.536V241.88C120.536 241.36 120.456 240.8 119.976 240.32C119.656 240 119.136 239.76 118.496 239.76C117.816 239.76 117.256 240.04 116.936 240.44C116.536 240.92 116.456 241.52 116.456 242.04V244.48ZM151.051 256H147.051L145.731 250H140.611L139.291 256H135.291L141.411 228H144.931L151.051 256ZM145.251 246.44L143.091 235.8L141.011 246.44H145.251ZM153.213 228H157.213V250.36C157.213 250.84 157.293 251.44 157.773 251.88C158.173 252.24 158.733 252.28 159.053 252.28H159.453V256H158.293C157.373 256 155.453 255.88 154.213 254.32C153.253 253.12 153.213 251.72 153.213 250.56V228ZM162.032 228H166.032V250.36C166.032 250.84 166.112 251.44 166.592 251.88C166.992 252.24 167.552 252.28 167.872 252.28H168.272V256H167.112C166.192 256 164.272 255.88 163.032 254.32C162.072 253.12 162.032 251.72 162.032 250.56V228ZM180.267 230.12H184.267V236.16H186.827V239.36H184.267V250.24C184.267 250.64 184.307 251.48 184.827 251.92C185.267 252.28 185.947 252.28 186.307 252.28H186.827V256H185.747C184.587 256 182.667 255.96 181.427 254.6C180.307 253.4 180.267 251.8 180.267 250.6V239.36H178.227V236.16H180.267V230.12ZM189.582 256V228H193.582V237.76C193.942 237.32 194.382 236.92 194.902 236.6C195.622 236.16 196.382 235.84 197.542 235.84C198.702 235.84 199.702 236.16 200.502 237C201.542 238.08 201.662 239.4 201.662 240.36V256H197.662V241.96C197.662 241.48 197.622 240.88 197.142 240.36C196.782 239.96 196.342 239.76 195.742 239.76C194.982 239.76 194.502 240.12 194.222 240.4C193.622 241.04 193.582 241.76 193.582 242.4V256H189.582ZM209.428 247.56V250.12C209.428 250.72 209.468 251.36 209.948 251.84C210.268 252.2 210.828 252.4 211.468 252.4C212.148 252.4 212.668 252.16 213.068 251.56C213.308 251.16 213.428 250.64 213.428 250.2H217.428V250.36C217.428 251.84 217.148 253.8 215.188 255.2C214.188 255.92 212.828 256.32 211.468 256.32C209.628 256.32 207.908 255.56 206.868 254.4C205.468 252.84 205.428 250.8 205.428 249.6V242C205.428 240.6 205.708 238.64 207.388 237.2C208.308 236.4 209.668 235.84 211.348 235.84C213.068 235.84 214.508 236.4 215.508 237.28C217.268 238.8 217.508 240.8 217.508 242.36V247.56H209.428ZM209.428 244.48H213.508V241.88C213.508 241.36 213.428 240.8 212.948 240.32C212.628 240 212.108 239.76 211.468 239.76C210.788 239.76 210.228 240.04 209.908 240.44C209.508 240.92 209.428 241.52 209.428 242.04V244.48ZM228.663 228H242.583V231.8H237.623V256H233.623V231.8H228.663V228ZM243.919 256V236.16H247.919V256H243.919ZM243.919 228.56H247.919V232.48H243.919V228.56ZM251.84 236.16H255.84V237.96C256.2 237.48 256.68 237.04 257.08 236.72C257.76 236.2 258.64 235.84 259.8 235.84C260.56 235.84 261.28 236.04 261.96 236.48C262.68 236.96 263.12 237.56 263.4 238.2C263.84 237.48 264.44 236.8 265.16 236.4C265.84 236 266.52 235.84 267.36 235.84C268.6 235.84 269.96 236.04 270.96 237.44C271.76 238.56 271.84 239.84 271.84 240.88V256H267.84V241.96C267.84 241.44 267.76 240.88 267.32 240.36C266.92 239.92 266.48 239.76 265.96 239.76C265.36 239.76 264.88 239.96 264.48 240.4C263.88 241.04 263.84 241.76 263.84 242.4V256H259.84V241.96C259.84 241.44 259.8 240.92 259.32 240.36C258.96 239.96 258.56 239.76 257.96 239.76C257.48 239.76 256.96 239.88 256.48 240.4C255.88 241.04 255.84 241.76 255.84 242.4V256H251.84V236.16ZM279.616 247.56V250.12C279.616 250.72 279.656 251.36 280.136 251.84C280.456 252.2 281.016 252.4 281.656 252.4C282.336 252.4 282.856 252.16 283.256 251.56C283.496 251.16 283.616 250.64 283.616 250.2H287.616V250.36C287.616 251.84 287.336 253.8 285.376 255.2C284.376 255.92 283.016 256.32 281.656 256.32C279.816 256.32 278.096 255.56 277.056 254.4C275.656 252.84 275.616 250.8 275.616 249.6V242C275.616 240.6 275.896 238.64 277.576 237.2C278.496 236.4 279.856 235.84 281.536 235.84C283.256 235.84 284.696 236.4 285.696 237.28C287.456 238.8 287.696 240.8 287.696 242.36V247.56H279.616ZM279.616 244.48H283.696V241.88C283.696 241.36 283.616 240.8 283.136 240.32C282.816 240 282.296 239.76 281.656 239.76C280.976 239.76 280.416 240.04 280.096 240.44C279.696 240.92 279.616 241.52 279.616 242.04V244.48Z" fill="white"/>
</svg>
