<svg width="311" height="198" viewBox="0 0 311 198" fill="none" xmlns="http://www.w3.org/2000/svg">
<path d="M12 -9.53674e-06H39C45 -9.53674e-06 56.6 0.599995 65.4 6.8C78 15.8 78.2 30.8 78.2 39C78.2 48.2 77.4 54.6 72.2 60.8C69.6 64 66.6 66 64.6 67.2C70 69.6 72.4 73 74.2 76C78.2 83 78.2 86.8 78.2 93.6V104.2C78.2 110 78.2 124.4 66.2 133.4C61.8 136.8 54.4 140 42.4 140H12V-9.53674e-06ZM32 18V58H41.6C48.4 58 52.4 55.2 54.4 52.8C56.8 50 58.2 45.2 58.2 40.8V32.2C58.2 28.6 56.6 25 54.4 22.6C52 20.2 48 18 41.4 18H32ZM32 76V122H41C44 122 50.4 121.6 54.6 115.8C58 111.2 58.2 104 58.2 101.6V95C58.2 88.2 57.2 83.4 52.8 79.6C49.6 77 46.6 76 42.2 76H32ZM98.2813 140V-9.53674e-06H157.681V19H118.281V60.2H153.081V78.2H118.281V121H158.281V140H98.2813ZM243.988 140H223.988L217.388 110H191.788L185.188 140H165.188L195.788 -9.53674e-06H213.388L243.988 140ZM214.988 92.2L204.188 39L193.788 92.2H214.988ZM237.258 -9.53674e-06H306.858V19H282.058V140H262.058V19H237.258V-9.53674e-06Z" fill="white"/>
<path d="M13.4 159H18.8C20 159 22.32 159.12 24.08 160.36C26.6 162.16 26.64 165.16 26.64 166.8C26.64 168.64 26.48 169.92 25.44 171.16C24.92 171.8 24.32 172.2 23.92 172.44C25 172.92 25.48 173.6 25.84 174.2C26.64 175.6 26.64 176.36 26.64 177.72V179.84C26.64 181 26.64 183.88 24.24 185.68C23.36 186.36 21.88 187 19.48 187H13.4V159ZM17.4 162.6V170.6H19.32C20.68 170.6 21.48 170.04 21.88 169.56C22.36 169 22.64 168.04 22.64 167.16V165.44C22.64 164.72 22.32 164 21.88 163.52C21.4 163.04 20.6 162.6 19.28 162.6H17.4ZM17.4 174.2V183.4H19.2C19.8 183.4 21.08 183.32 21.92 182.16C22.6 181.24 22.64 179.8 22.64 179.32V178C22.64 176.64 22.44 175.68 21.56 174.92C20.92 174.4 20.32 174.2 19.44 174.2H17.4ZM34.2563 178.56V181.12C34.2563 181.72 34.2963 182.36 34.7763 182.84C35.0963 183.2 35.6563 183.4 36.2963 183.4C36.9763 183.4 37.4963 183.16 37.8963 182.56C38.1363 182.16 38.2563 181.64 38.2563 181.2H42.2563V181.36C42.2563 182.84 41.9763 184.8 40.0163 186.2C39.0163 186.92 37.6563 187.32 36.2963 187.32C34.4563 187.32 32.7363 186.56 31.6963 185.4C30.2963 183.84 30.2563 181.8 30.2563 180.6V173C30.2563 171.6 30.5363 169.64 32.2163 168.2C33.1363 167.4 34.4963 166.84 36.1763 166.84C37.8963 166.84 39.3363 167.4 40.3363 168.28C42.0963 169.8 42.3363 171.8 42.3363 173.36V178.56H34.2563ZM34.2563 175.48H38.3363V172.88C38.3363 172.36 38.2563 171.8 37.7763 171.32C37.4563 171 36.9363 170.76 36.2963 170.76C35.6163 170.76 35.0563 171.04 34.7363 171.44C34.3363 171.92 34.2563 172.52 34.2563 173.04V175.48ZM55.0906 187V159H66.9706V162.8H59.0906V171.04H66.0506V174.64H59.0906V183.2H67.0906V187H55.0906ZM82.1119 167.16L76.8319 187H73.6319L68.3519 167.16H72.5519L75.2319 179.76H75.4319L78.1119 167.16H82.1119ZM84.0078 180.6V173.56C84.0078 172 84.1278 169.8 85.9678 168.24C87.0478 167.32 88.5678 166.84 90.0478 166.84C91.5278 166.84 93.0478 167.32 94.1278 168.24C95.9678 169.8 96.0878 172 96.0878 173.56V180.6C96.0878 182.16 95.9678 184.36 94.1278 185.92C93.0478 186.84 91.5278 187.32 90.0478 187.32C88.5678 187.32 87.0478 186.84 85.9678 185.92C84.1278 184.36 84.0078 182.16 84.0078 180.6ZM92.0878 180.84V173.32C92.0878 172.4 91.8478 171.72 91.4878 171.32C91.1678 171 90.6478 170.76 90.0478 170.76C89.4478 170.76 88.9278 171 88.6078 171.32C88.2478 171.72 88.0078 172.4 88.0078 173.32V180.84C88.0078 181.76 88.2478 182.44 88.6078 182.84C88.9278 183.16 89.4478 183.4 90.0478 183.4C90.6478 183.4 91.1678 183.16 91.4878 182.84C91.8478 182.44 92.0878 181.76 92.0878 180.84ZM99.8616 159H103.862V181.36C103.862 181.84 103.942 182.44 104.422 182.88C104.822 183.24 105.382 183.28 105.702 183.28H106.102V187H104.942C104.022 187 102.102 186.88 100.862 185.32C99.9016 184.12 99.8616 182.72 99.8616 181.56V159ZM120.56 167.16L115.28 187H112.08L106.8 167.16H111L113.68 179.76H113.88L116.56 167.16H120.56ZM126.456 178.56V181.12C126.456 181.72 126.496 182.36 126.976 182.84C127.296 183.2 127.856 183.4 128.496 183.4C129.176 183.4 129.696 183.16 130.096 182.56C130.336 182.16 130.456 181.64 130.456 181.2H134.456V181.36C134.456 182.84 134.176 184.8 132.216 186.2C131.216 186.92 129.856 187.32 128.496 187.32C126.656 187.32 124.936 186.56 123.896 185.4C122.496 183.84 122.456 181.8 122.456 180.6V173C122.456 171.6 122.736 169.64 124.416 168.2C125.336 167.4 126.696 166.84 128.376 166.84C130.096 166.84 131.536 167.4 132.536 168.28C134.296 169.8 134.536 171.8 134.536 173.36V178.56H126.456ZM126.456 175.48H130.536V172.88C130.536 172.36 130.456 171.8 129.976 171.32C129.656 171 129.136 170.76 128.496 170.76C127.816 170.76 127.256 171.04 126.936 171.44C126.536 171.92 126.456 172.52 126.456 173.04V175.48ZM161.051 187H157.051L155.731 181H150.611L149.291 187H145.291L151.411 159H154.931L161.051 187ZM155.251 177.44L153.091 166.8L151.011 177.44H155.251ZM163.213 159H167.213V181.36C167.213 181.84 167.293 182.44 167.773 182.88C168.173 183.24 168.733 183.28 169.053 183.28H169.453V187H168.293C167.373 187 165.453 186.88 164.213 185.32C163.253 184.12 163.213 182.72 163.213 181.56V159ZM172.032 159H176.032V181.36C176.032 181.84 176.112 182.44 176.592 182.88C176.992 183.24 177.552 183.28 177.872 183.28H178.272V187H177.112C176.192 187 174.272 186.88 173.032 185.32C172.072 184.12 172.032 182.72 172.032 181.56V159ZM190.267 161.12H194.267V167.16H196.827V170.36H194.267V181.24C194.267 181.64 194.307 182.48 194.827 182.92C195.267 183.28 195.947 183.28 196.307 183.28H196.827V187H195.747C194.587 187 192.667 186.96 191.427 185.6C190.307 184.4 190.267 182.8 190.267 181.6V170.36H188.227V167.16H190.267V161.12ZM199.582 187V159H203.582V168.76C203.942 168.32 204.382 167.92 204.902 167.6C205.622 167.16 206.382 166.84 207.542 166.84C208.702 166.84 209.702 167.16 210.502 168C211.542 169.08 211.662 170.4 211.662 171.36V187H207.662V172.96C207.662 172.48 207.622 171.88 207.142 171.36C206.782 170.96 206.342 170.76 205.742 170.76C204.982 170.76 204.502 171.12 204.222 171.4C203.622 172.04 203.582 172.76 203.582 173.4V187H199.582ZM219.428 178.56V181.12C219.428 181.72 219.468 182.36 219.948 182.84C220.268 183.2 220.828 183.4 221.468 183.4C222.148 183.4 222.668 183.16 223.068 182.56C223.308 182.16 223.428 181.64 223.428 181.2H227.428V181.36C227.428 182.84 227.148 184.8 225.188 186.2C224.188 186.92 222.828 187.32 221.468 187.32C219.628 187.32 217.908 186.56 216.868 185.4C215.468 183.84 215.428 181.8 215.428 180.6V173C215.428 171.6 215.708 169.64 217.388 168.2C218.308 167.4 219.668 166.84 221.348 166.84C223.068 166.84 224.508 167.4 225.508 168.28C227.268 169.8 227.508 171.8 227.508 173.36V178.56H219.428ZM219.428 175.48H223.508V172.88C223.508 172.36 223.428 171.8 222.948 171.32C222.628 171 222.108 170.76 221.468 170.76C220.788 170.76 220.228 171.04 219.908 171.44C219.508 171.92 219.428 172.52 219.428 173.04V175.48ZM238.663 159H252.583V162.8H247.623V187H243.623V162.8H238.663V159ZM253.919 187V167.16H257.919V187H253.919ZM253.919 159.56H257.919V163.48H253.919V159.56ZM261.84 167.16H265.84V168.96C266.2 168.48 266.68 168.04 267.08 167.72C267.76 167.2 268.64 166.84 269.8 166.84C270.56 166.84 271.28 167.04 271.96 167.48C272.68 167.96 273.12 168.56 273.4 169.2C273.84 168.48 274.44 167.8 275.16 167.4C275.84 167 276.52 166.84 277.36 166.84C278.6 166.84 279.96 167.04 280.96 168.44C281.76 169.56 281.84 170.84 281.84 171.88V187H277.84V172.96C277.84 172.44 277.76 171.88 277.32 171.36C276.92 170.92 276.48 170.76 275.96 170.76C275.36 170.76 274.88 170.96 274.48 171.4C273.88 172.04 273.84 172.76 273.84 173.4V187H269.84V172.96C269.84 172.44 269.8 171.92 269.32 171.36C268.96 170.96 268.56 170.76 267.96 170.76C267.48 170.76 266.96 170.88 266.48 171.4C265.88 172.04 265.84 172.76 265.84 173.4V187H261.84V167.16ZM289.616 178.56V181.12C289.616 181.72 289.656 182.36 290.136 182.84C290.456 183.2 291.016 183.4 291.656 183.4C292.336 183.4 292.856 183.16 293.256 182.56C293.496 182.16 293.616 181.64 293.616 181.2H297.616V181.36C297.616 182.84 297.336 184.8 295.376 186.2C294.376 186.92 293.016 187.32 291.656 187.32C289.816 187.32 288.096 186.56 287.056 185.4C285.656 183.84 285.616 181.8 285.616 180.6V173C285.616 171.6 285.896 169.64 287.576 168.2C288.496 167.4 289.856 166.84 291.536 166.84C293.256 166.84 294.696 167.4 295.696 168.28C297.456 169.8 297.696 171.8 297.696 173.36V178.56H289.616ZM289.616 175.48H293.696V172.88C293.696 172.36 293.616 171.8 293.136 171.32C292.816 171 292.296 170.76 291.656 170.76C290.976 170.76 290.416 171.04 290.096 171.44C289.696 171.92 289.616 172.52 289.616 173.04V175.48Z" fill="white"/>
</svg>
