<svg width="311" height="198" viewBox="0 0 311 198" fill="none" xmlns="http://www.w3.org/2000/svg">
<path d="M24.1928 159L18.3128 175.2V187H14.3128L14.3128 175.08L8.43281 159H12.8328L16.3128 170.12H16.5528L19.9528 159H24.1928ZM36.6384 167.16V187H32.6384V185C32.5584 185.12 31.9984 185.92 31.2384 186.48C30.4384 187.04 29.5184 187.32 28.4784 187.32C26.7984 187.32 25.8384 186.52 25.3584 185.84C24.7184 184.96 24.5584 183.76 24.5584 182.8V167.16H28.5584V181.2C28.5584 181.76 28.5984 182.4 29.0384 182.88C29.2784 183.12 29.6784 183.4 30.3184 183.4C31.0384 183.4 31.6384 183.08 31.9984 182.68C32.5984 182.04 32.6384 181.28 32.6384 180.76V167.16H36.6384ZM40.5647 167.16H44.5647V169.28L44.6447 169.32C46.2847 167.28 48.4847 166.84 49.8847 166.84V171.12C47.9647 170.8 44.5647 171.28 44.5647 175.64V187H40.5647V167.16ZM52.0397 187V167.16H56.0397V187H52.0397ZM52.0397 159.56H56.0397V163.48H52.0397V159.56ZM82.8959 187H78.8959L77.5759 181H72.4559L71.1359 187H67.1359L73.2559 159H76.7759L82.8959 187ZM77.0959 177.44L74.9359 166.8L72.8559 177.44H77.0959ZM85.0584 167.16H89.0584V169.28L89.1384 169.32C90.7784 167.28 92.9784 166.84 94.3784 166.84V171.12C92.4584 170.8 89.0584 171.28 89.0584 175.64V187H85.0584V167.16ZM103.632 187V185.04H103.552C103.272 185.48 102.752 186.12 102.192 186.56C101.432 187.16 100.712 187.32 99.8722 187.32C99.0722 187.32 97.8322 187.2 96.8322 186.28C95.5922 185.12 95.3922 183.32 95.3922 181.72C95.3922 180.28 95.4722 178.12 96.6322 176.76C97.9522 175.2 100.192 175.04 101.352 175.04C101.632 175.04 102.392 175.04 103.632 175.16V173.08C103.632 172.52 103.592 171.92 103.112 171.4C102.712 170.96 102.112 170.76 101.512 170.76C100.952 170.76 100.352 170.96 99.9122 171.48C99.6322 171.8 99.4322 172.24 99.3922 172.76H95.5922C95.5522 170.96 96.3122 169.4 97.2322 168.48C98.2322 167.48 99.8722 166.84 101.712 166.84C103.512 166.84 104.992 167.48 105.992 168.44C107.432 169.88 107.632 171.76 107.632 173.12V187H103.632ZM103.632 181.16V178.36C103.152 178.28 102.672 178.24 102.232 178.24C101.592 178.24 100.632 178.32 99.9922 179.08C99.4722 179.68 99.3922 180.52 99.3922 181.16C99.3922 181.72 99.4722 182.28 99.7922 182.8C100.192 183.44 100.712 183.72 101.392 183.72C102.592 183.72 103.632 182.92 103.632 181.16ZM111.563 187V159H115.563V175.8H115.643L120.443 167.16H124.443L119.683 175.24L125.403 187H121.083L117.483 178.44L115.563 181.44V187H111.563ZM127.452 187V167.16H131.452V187H127.452ZM127.452 159.56H131.452V163.48H127.452V159.56ZM135.212 159H139.412V163.2L135.212 167.6V159ZM153.87 172.52H149.95C149.91 171.92 149.67 171.4 149.35 171.08C148.99 170.72 148.47 170.56 147.91 170.56C146.91 170.56 145.95 171.2 145.95 172.56C145.95 172.92 146.03 173.4 146.35 173.84C146.75 174.4 147.39 174.68 147.91 174.88L150.31 175.88C151.31 176.28 152.31 177.08 152.87 177.8C153.43 178.52 153.87 179.72 153.87 181.44C153.87 182.4 153.67 184 152.59 185.32C151.75 186.36 150.27 187.32 147.75 187.32C145.35 187.32 143.91 186.44 143.11 185.56C142.11 184.48 141.63 182.88 141.63 181.44H145.63C145.63 181.96 145.79 182.56 146.15 182.96C146.51 183.36 147.23 183.6 147.79 183.6C148.35 183.6 148.95 183.4 149.35 182.92C149.79 182.44 149.87 181.84 149.87 181.32C149.87 180.28 149.55 179.52 147.87 178.8L145.51 177.8C143.99 177.16 143.27 176.4 143.03 176.12C142.15 175.08 141.95 173.76 141.95 172.76C141.95 170.8 142.59 169.32 143.43 168.44C144.23 167.64 145.55 166.84 147.71 166.84C150.23 166.84 151.67 167.72 152.35 168.44C153.31 169.4 153.87 170.96 153.87 172.52ZM166.209 187V159H172.169C173.889 159 176.009 159.08 177.769 160.84C179.609 162.72 179.809 165.16 179.809 167.24V168.04C179.809 169.6 179.649 171.92 178.089 173.72C176.449 175.6 174.289 175.92 172.569 175.92H170.209V187H166.209ZM170.209 162.6V172.32H172.369C173.129 172.32 174.209 172.2 175.049 171.28C175.889 170.36 175.809 169.4 175.809 168.4V166.56C175.809 165.6 175.849 164.24 174.729 163.32C173.809 162.56 172.689 162.6 171.609 162.6H170.209ZM181.112 180.6V173.56C181.112 172 181.232 169.8 183.072 168.24C184.152 167.32 185.672 166.84 187.152 166.84C188.632 166.84 190.152 167.32 191.232 168.24C193.072 169.8 193.192 172 193.192 173.56V180.6C193.192 182.16 193.072 184.36 191.232 185.92C190.152 186.84 188.632 187.32 187.152 187.32C185.672 187.32 184.152 186.84 183.072 185.92C181.232 184.36 181.112 182.16 181.112 180.6ZM189.192 180.84V173.32C189.192 172.4 188.952 171.72 188.592 171.32C188.272 171 187.752 170.76 187.152 170.76C186.552 170.76 186.032 171 185.712 171.32C185.352 171.72 185.112 172.4 185.112 173.32V180.84C185.112 181.76 185.352 182.44 185.712 182.84C186.032 183.16 186.552 183.4 187.152 183.4C187.752 183.4 188.272 183.16 188.592 182.84C188.952 182.44 189.192 181.76 189.192 180.84ZM196.966 167.16H200.966V169.28L201.046 169.32C202.686 167.28 204.886 166.84 206.286 166.84V171.12C204.366 170.8 200.966 171.28 200.966 175.64V187H196.966V167.16ZM208.921 161.12H212.921V167.16H215.481V170.36H212.921V181.24C212.921 181.64 212.961 182.48 213.481 182.92C213.921 183.28 214.601 183.28 214.961 183.28H215.481V187H214.401C213.241 187 211.321 186.96 210.081 185.6C208.961 184.4 208.921 182.8 208.921 181.6V170.36H206.881V167.16H208.921V161.12ZM227.412 187V159H239.572V162.8H231.412V171.2H238.572V175H231.412V187H227.412ZM240.441 180.6V173.56C240.441 172 240.561 169.8 242.401 168.24C243.481 167.32 245.001 166.84 246.481 166.84C247.961 166.84 249.481 167.32 250.561 168.24C252.401 169.8 252.521 172 252.521 173.56V180.6C252.521 182.16 252.401 184.36 250.561 185.92C249.481 186.84 247.961 187.32 246.481 187.32C245.001 187.32 243.481 186.84 242.401 185.92C240.561 184.36 240.441 182.16 240.441 180.6ZM248.521 180.84V173.32C248.521 172.4 248.281 171.72 247.921 171.32C247.601 171 247.081 170.76 246.481 170.76C245.881 170.76 245.361 171 245.041 171.32C244.681 171.72 244.441 172.4 244.441 173.32V180.84C244.441 181.76 244.681 182.44 245.041 182.84C245.361 183.16 245.881 183.4 246.481 183.4C247.081 183.4 247.601 183.16 247.921 182.84C248.281 182.44 248.521 181.76 248.521 180.84ZM256.294 159H260.294V181.36C260.294 181.84 260.374 182.44 260.854 182.88C261.254 183.24 261.814 183.28 262.134 183.28H262.534V187H261.374C260.454 187 258.534 186.88 257.294 185.32C256.334 184.12 256.294 182.72 256.294 181.56V159ZM265.113 187V167.16H269.113V187H265.113ZM265.113 159.56H269.113V163.48H265.113V159.56ZM272.873 180.6V173.56C272.873 172 272.993 169.8 274.833 168.24C275.913 167.32 277.433 166.84 278.913 166.84C280.393 166.84 281.913 167.32 282.993 168.24C284.833 169.8 284.953 172 284.953 173.56V180.6C284.953 182.16 284.833 184.36 282.993 185.92C281.913 186.84 280.393 187.32 278.913 187.32C277.433 187.32 275.913 186.84 274.833 185.92C272.993 184.36 272.873 182.16 272.873 180.6ZM280.953 180.84V173.32C280.953 172.4 280.713 171.72 280.353 171.32C280.033 171 279.513 170.76 278.913 170.76C278.313 170.76 277.793 171 277.473 171.32C277.113 171.72 276.873 172.4 276.873 173.32V180.84C276.873 181.76 277.113 182.44 277.473 182.84C277.793 183.16 278.313 183.4 278.913 183.4C279.513 183.4 280.033 183.16 280.353 182.84C280.713 182.44 280.953 181.76 280.953 180.84Z" fill="black"/>
<path d="M12 -9.53674e-06H39C45 -9.53674e-06 56.6 0.599995 65.4 6.8C78 15.8 78.2 30.8 78.2 39C78.2 48.2 77.4 54.6 72.2 60.8C69.6 64 66.6 66 64.6 67.2C70 69.6 72.4 73 74.2 76C78.2 83 78.2 86.8 78.2 93.6V104.2C78.2 110 78.2 124.4 66.2 133.4C61.8 136.8 54.4 140 42.4 140H12V-9.53674e-06ZM32 18V58H41.6C48.4 58 52.4 55.2 54.4 52.8C56.8 50 58.2 45.2 58.2 40.8V32.2C58.2 28.6 56.6 25 54.4 22.6C52 20.2 48 18 41.4 18H32ZM32 76V122H41C44 122 50.4 121.6 54.6 115.8C58 111.2 58.2 104 58.2 101.6V95C58.2 88.2 57.2 83.4 52.8 79.6C49.6 77 46.6 76 42.2 76H32ZM98.2813 140V-9.53674e-06H157.681V19H118.281V60.2H153.081V78.2H118.281V121H158.281V140H98.2813ZM243.988 140H223.988L217.388 110H191.788L185.188 140H165.188L195.788 -9.53674e-06H213.388L243.988 140ZM214.988 92.2L204.188 39L193.788 92.2H214.988ZM237.258 -9.53674e-06H306.858V19H282.058V140H262.058V19H237.258V-9.53674e-06Z" fill="black"/>
</svg>
