<svg width="311" height="198" viewBox="0 0 311 198" fill="none" xmlns="http://www.w3.org/2000/svg">
<path d="M22.3647 159L16.4847 175.2V187H12.4847L12.4847 175.08L6.60468 159H11.0047L14.4847 170.12H14.7247L18.1247 159H22.3647ZM34.8103 167.16V187H30.8103V185C30.7303 185.12 30.1703 185.92 29.4103 186.48C28.6103 187.04 27.6903 187.32 26.6503 187.32C24.9703 187.32 24.0103 186.52 23.5303 185.84C22.8903 184.96 22.7303 183.76 22.7303 182.8V167.16H26.7303V181.2C26.7303 181.76 26.7703 182.4 27.2103 182.88C27.4503 183.12 27.8503 183.4 28.4903 183.4C29.2103 183.4 29.8103 183.08 30.1703 182.68C30.7703 182.04 30.8103 181.28 30.8103 180.76V167.16H34.8103ZM38.7366 167.16H42.7366V169.28L42.8166 169.32C44.4566 167.28 46.6566 166.84 48.0566 166.84V171.12C46.1366 170.8 42.7366 171.28 42.7366 175.64V187H38.7366V167.16ZM50.2116 187V167.16H54.2116V187H50.2116ZM50.2116 159.56H54.2116V163.48H50.2116V159.56ZM81.0678 187H77.0678L75.7478 181H70.6278L69.3078 187H65.3078L71.4278 159H74.9478L81.0678 187ZM75.2678 177.44L73.1078 166.8L71.0278 177.44H75.2678ZM83.2303 167.16H87.2303V169.28L87.3103 169.32C88.9503 167.28 91.1503 166.84 92.5503 166.84V171.12C90.6303 170.8 87.2303 171.28 87.2303 175.64V187H83.2303V167.16ZM101.804 187V185.04H101.724C101.444 185.48 100.924 186.12 100.364 186.56C99.6041 187.16 98.8841 187.32 98.0441 187.32C97.2441 187.32 96.0041 187.2 95.0041 186.28C93.7641 185.12 93.5641 183.32 93.5641 181.72C93.5641 180.28 93.6441 178.12 94.8041 176.76C96.1241 175.2 98.3641 175.04 99.5241 175.04C99.8041 175.04 100.564 175.04 101.804 175.16V173.08C101.804 172.52 101.764 171.92 101.284 171.4C100.884 170.96 100.284 170.76 99.6841 170.76C99.1241 170.76 98.5241 170.96 98.0841 171.48C97.8041 171.8 97.6041 172.24 97.5641 172.76H93.7641C93.7241 170.96 94.4841 169.4 95.4041 168.48C96.4041 167.48 98.0441 166.84 99.8841 166.84C101.684 166.84 103.164 167.48 104.164 168.44C105.604 169.88 105.804 171.76 105.804 173.12V187H101.804ZM101.804 181.16V178.36C101.324 178.28 100.844 178.24 100.404 178.24C99.7641 178.24 98.8041 178.32 98.1641 179.08C97.6441 179.68 97.5641 180.52 97.5641 181.16C97.5641 181.72 97.6441 182.28 97.9641 182.8C98.3641 183.44 98.8841 183.72 99.5641 183.72C100.764 183.72 101.804 182.92 101.804 181.16ZM109.735 187V159H113.735V175.8H113.815L118.615 167.16H122.615L117.855 175.24L123.575 187H119.255L115.655 178.44L113.735 181.44V187H109.735ZM125.624 187V167.16H129.624V187H125.624ZM125.624 159.56H129.624V163.48H125.624V159.56ZM133.384 159H137.584V163.2L133.384 167.6V159ZM152.042 172.52H148.122C148.082 171.92 147.842 171.4 147.522 171.08C147.162 170.72 146.642 170.56 146.082 170.56C145.082 170.56 144.122 171.2 144.122 172.56C144.122 172.92 144.202 173.4 144.522 173.84C144.922 174.4 145.562 174.68 146.082 174.88L148.482 175.88C149.482 176.28 150.482 177.08 151.042 177.8C151.602 178.52 152.042 179.72 152.042 181.44C152.042 182.4 151.842 184 150.762 185.32C149.922 186.36 148.442 187.32 145.922 187.32C143.522 187.32 142.082 186.44 141.282 185.56C140.282 184.48 139.802 182.88 139.802 181.44H143.802C143.802 181.96 143.962 182.56 144.322 182.96C144.682 183.36 145.402 183.6 145.962 183.6C146.522 183.6 147.122 183.4 147.522 182.92C147.962 182.44 148.042 181.84 148.042 181.32C148.042 180.28 147.722 179.52 146.042 178.8L143.682 177.8C142.162 177.16 141.442 176.4 141.202 176.12C140.322 175.08 140.122 173.76 140.122 172.76C140.122 170.8 140.762 169.32 141.602 168.44C142.402 167.64 143.722 166.84 145.882 166.84C148.402 166.84 149.842 167.72 150.522 168.44C151.482 169.4 152.042 170.96 152.042 172.52ZM164.381 187V159H170.341C172.061 159 174.181 159.08 175.941 160.84C177.781 162.72 177.981 165.16 177.981 167.24V168.04C177.981 169.6 177.821 171.92 176.261 173.72C174.621 175.6 172.461 175.92 170.741 175.92H168.381V187H164.381ZM168.381 162.6V172.32H170.541C171.301 172.32 172.381 172.2 173.221 171.28C174.061 170.36 173.981 169.4 173.981 168.4V166.56C173.981 165.6 174.021 164.24 172.901 163.32C171.981 162.56 170.861 162.6 169.781 162.6H168.381ZM179.284 180.6V173.56C179.284 172 179.404 169.8 181.244 168.24C182.324 167.32 183.844 166.84 185.324 166.84C186.804 166.84 188.324 167.32 189.404 168.24C191.244 169.8 191.364 172 191.364 173.56V180.6C191.364 182.16 191.244 184.36 189.404 185.92C188.324 186.84 186.804 187.32 185.324 187.32C183.844 187.32 182.324 186.84 181.244 185.92C179.404 184.36 179.284 182.16 179.284 180.6ZM187.364 180.84V173.32C187.364 172.4 187.124 171.72 186.764 171.32C186.444 171 185.924 170.76 185.324 170.76C184.724 170.76 184.204 171 183.884 171.32C183.524 171.72 183.284 172.4 183.284 173.32V180.84C183.284 181.76 183.524 182.44 183.884 182.84C184.204 183.16 184.724 183.4 185.324 183.4C185.924 183.4 186.444 183.16 186.764 182.84C187.124 182.44 187.364 181.76 187.364 180.84ZM195.138 167.16H199.138V169.28L199.218 169.32C200.858 167.28 203.058 166.84 204.458 166.84V171.12C202.538 170.8 199.138 171.28 199.138 175.64V187H195.138V167.16ZM207.093 161.12H211.093V167.16H213.653V170.36H211.093V181.24C211.093 181.64 211.133 182.48 211.653 182.92C212.093 183.28 212.773 183.28 213.133 183.28H213.653V187H212.573C211.413 187 209.493 186.96 208.253 185.6C207.133 184.4 207.093 182.8 207.093 181.6V170.36H205.053V167.16H207.093V161.12ZM225.584 187V159H237.744V162.8H229.584V171.2H236.744V175H229.584V187H225.584ZM238.612 180.6V173.56C238.612 172 238.732 169.8 240.572 168.24C241.652 167.32 243.172 166.84 244.652 166.84C246.132 166.84 247.652 167.32 248.732 168.24C250.572 169.8 250.692 172 250.692 173.56V180.6C250.692 182.16 250.572 184.36 248.732 185.92C247.652 186.84 246.132 187.32 244.652 187.32C243.172 187.32 241.652 186.84 240.572 185.92C238.732 184.36 238.612 182.16 238.612 180.6ZM246.692 180.84V173.32C246.692 172.4 246.452 171.72 246.092 171.32C245.772 171 245.252 170.76 244.652 170.76C244.052 170.76 243.532 171 243.212 171.32C242.852 171.72 242.612 172.4 242.612 173.32V180.84C242.612 181.76 242.852 182.44 243.212 182.84C243.532 183.16 244.052 183.4 244.652 183.4C245.252 183.4 245.772 183.16 246.092 182.84C246.452 182.44 246.692 181.76 246.692 180.84ZM254.466 167.16H258.466V169.28L258.546 169.32C260.186 167.28 262.386 166.84 263.786 166.84V171.12C261.866 170.8 258.466 171.28 258.466 175.64V187H254.466V167.16ZM265.941 187V167.16H269.941V187H265.941ZM265.941 159.56H269.941V163.48H265.941V159.56ZM273.702 180.6V173.56C273.702 172 273.822 169.8 275.662 168.24C276.742 167.32 278.262 166.84 279.742 166.84C281.222 166.84 282.742 167.32 283.822 168.24C285.662 169.8 285.782 172 285.782 173.56V180.6C285.782 182.16 285.662 184.36 283.822 185.92C282.742 186.84 281.222 187.32 279.742 187.32C278.262 187.32 276.742 186.84 275.662 185.92C273.822 184.36 273.702 182.16 273.702 180.6ZM281.782 180.84V173.32C281.782 172.4 281.542 171.72 281.182 171.32C280.862 171 280.342 170.76 279.742 170.76C279.142 170.76 278.622 171 278.302 171.32C277.942 171.72 277.702 172.4 277.702 173.32V180.84C277.702 181.76 277.942 182.44 278.302 182.84C278.622 183.16 279.142 183.4 279.742 183.4C280.342 183.4 280.862 183.16 281.182 182.84C281.542 182.44 281.782 181.76 281.782 180.84Z" fill="black"/>
<path d="M12 -9.53674e-06H39C45 -9.53674e-06 56.6 0.599995 65.4 6.8C78 15.8 78.2 30.8 78.2 39C78.2 48.2 77.4 54.6 72.2 60.8C69.6 64 66.6 66 64.6 67.2C70 69.6 72.4 73 74.2 76C78.2 83 78.2 86.8 78.2 93.6V104.2C78.2 110 78.2 124.4 66.2 133.4C61.8 136.8 54.4 140 42.4 140H12V-9.53674e-06ZM32 18V58H41.6C48.4 58 52.4 55.2 54.4 52.8C56.8 50 58.2 45.2 58.2 40.8V32.2C58.2 28.6 56.6 25 54.4 22.6C52 20.2 48 18 41.4 18H32ZM32 76V122H41C44 122 50.4 121.6 54.6 115.8C58 111.2 58.2 104 58.2 101.6V95C58.2 88.2 57.2 83.4 52.8 79.6C49.6 77 46.6 76 42.2 76H32ZM98.2813 140V-9.53674e-06H157.681V19H118.281V60.2H153.081V78.2H118.281V121H158.281V140H98.2813ZM243.988 140H223.988L217.388 110H191.788L185.188 140H165.188L195.788 -9.53674e-06H213.388L243.988 140ZM214.988 92.2L204.188 39L193.788 92.2H214.988ZM237.258 -9.53674e-06H306.858V19H282.058V140H262.058V19H237.258V-9.53674e-06Z" fill="black"/>
</svg>
