<svg width="291" height="268" viewBox="0 0 291 268" fill="none" xmlns="http://www.w3.org/2000/svg">
<path d="M22.1928 229L16.3128 245.2V257H12.3128L12.3128 245.08L6.43281 229H10.8328L14.3128 240.12H14.5528L17.9528 229H22.1928ZM34.6384 237.16V257H30.6384V255C30.5584 255.12 29.9984 255.92 29.2384 256.48C28.4384 257.04 27.5184 257.32 26.4784 257.32C24.7984 257.32 23.8384 256.52 23.3584 255.84C22.7184 254.96 22.5584 253.76 22.5584 252.8V237.16H26.5584V251.2C26.5584 251.76 26.5984 252.4 27.0384 252.88C27.2784 253.12 27.6784 253.4 28.3184 253.4C29.0384 253.4 29.6384 253.08 29.9984 252.68C30.5984 252.04 30.6384 251.28 30.6384 250.76V237.16H34.6384ZM38.5647 237.16H42.5647V239.28L42.6447 239.32C44.2847 237.28 46.4847 236.84 47.8847 236.84V241.12C45.9647 240.8 42.5647 241.28 42.5647 245.64V257H38.5647V237.16ZM50.0397 257V237.16H54.0397V257H50.0397ZM50.0397 229.56H54.0397V233.48H50.0397V229.56ZM80.8959 257H76.8959L75.5759 251H70.4559L69.1359 257H65.1359L71.2559 229H74.7759L80.8959 257ZM75.0959 247.44L72.9359 236.8L70.8559 247.44H75.0959ZM83.0584 237.16H87.0584V239.28L87.1384 239.32C88.7784 237.28 90.9784 236.84 92.3784 236.84V241.12C90.4584 240.8 87.0584 241.28 87.0584 245.64V257H83.0584V237.16ZM101.632 257V255.04H101.552C101.272 255.48 100.752 256.12 100.192 256.56C99.4322 257.16 98.7122 257.32 97.8722 257.32C97.0722 257.32 95.8322 257.2 94.8322 256.28C93.5922 255.12 93.3922 253.32 93.3922 251.72C93.3922 250.28 93.4722 248.12 94.6322 246.76C95.9522 245.2 98.1922 245.04 99.3522 245.04C99.6322 245.04 100.392 245.04 101.632 245.16V243.08C101.632 242.52 101.592 241.92 101.112 241.4C100.712 240.96 100.112 240.76 99.5122 240.76C98.9522 240.76 98.3522 240.96 97.9122 241.48C97.6322 241.8 97.4322 242.24 97.3922 242.76H93.5922C93.5522 240.96 94.3122 239.4 95.2322 238.48C96.2322 237.48 97.8722 236.84 99.7122 236.84C101.512 236.84 102.992 237.48 103.992 238.44C105.432 239.88 105.632 241.76 105.632 243.12V257H101.632ZM101.632 251.16V248.36C101.152 248.28 100.672 248.24 100.232 248.24C99.5922 248.24 98.6322 248.32 97.9922 249.08C97.4722 249.68 97.3922 250.52 97.3922 251.16C97.3922 251.72 97.4722 252.28 97.7922 252.8C98.1922 253.44 98.7122 253.72 99.3922 253.72C100.592 253.72 101.632 252.92 101.632 251.16ZM109.563 257V229H113.563V245.8H113.643L118.443 237.16H122.443L117.683 245.24L123.403 257H119.083L115.483 248.44L113.563 251.44V257H109.563ZM125.452 257V237.16H129.452V257H125.452ZM125.452 229.56H129.452V233.48H125.452V229.56ZM133.212 229H137.412V233.2L133.212 237.6V229ZM151.87 242.52H147.95C147.91 241.92 147.67 241.4 147.35 241.08C146.99 240.72 146.47 240.56 145.91 240.56C144.91 240.56 143.95 241.2 143.95 242.56C143.95 242.92 144.03 243.4 144.35 243.84C144.75 244.4 145.39 244.68 145.91 244.88L148.31 245.88C149.31 246.28 150.31 247.08 150.87 247.8C151.43 248.52 151.87 249.72 151.87 251.44C151.87 252.4 151.67 254 150.59 255.32C149.75 256.36 148.27 257.32 145.75 257.32C143.35 257.32 141.91 256.44 141.11 255.56C140.11 254.48 139.63 252.88 139.63 251.44H143.63C143.63 251.96 143.79 252.56 144.15 252.96C144.51 253.36 145.23 253.6 145.79 253.6C146.35 253.6 146.95 253.4 147.35 252.92C147.79 252.44 147.87 251.84 147.87 251.32C147.87 250.28 147.55 249.52 145.87 248.8L143.51 247.8C141.99 247.16 141.27 246.4 141.03 246.12C140.15 245.08 139.95 243.76 139.95 242.76C139.95 240.8 140.59 239.32 141.43 238.44C142.23 237.64 143.55 236.84 145.71 236.84C148.23 236.84 149.67 237.72 150.35 238.44C151.31 239.4 151.87 240.96 151.87 242.52ZM164.209 257V229H170.169C171.889 229 174.009 229.08 175.769 230.84C177.609 232.72 177.809 235.16 177.809 237.24V238.04C177.809 239.6 177.649 241.92 176.089 243.72C174.449 245.6 172.289 245.92 170.569 245.92H168.209V257H164.209ZM168.209 232.6V242.32H170.369C171.129 242.32 172.209 242.2 173.049 241.28C173.889 240.36 173.809 239.4 173.809 238.4V236.56C173.809 235.6 173.849 234.24 172.729 233.32C171.809 232.56 170.689 232.6 169.609 232.6H168.209ZM179.112 250.6V243.56C179.112 242 179.232 239.8 181.072 238.24C182.152 237.32 183.672 236.84 185.152 236.84C186.632 236.84 188.152 237.32 189.232 238.24C191.072 239.8 191.192 242 191.192 243.56V250.6C191.192 252.16 191.072 254.36 189.232 255.92C188.152 256.84 186.632 257.32 185.152 257.32C183.672 257.32 182.152 256.84 181.072 255.92C179.232 254.36 179.112 252.16 179.112 250.6ZM187.192 250.84V243.32C187.192 242.4 186.952 241.72 186.592 241.32C186.272 241 185.752 240.76 185.152 240.76C184.552 240.76 184.032 241 183.712 241.32C183.352 241.72 183.112 242.4 183.112 243.32V250.84C183.112 251.76 183.352 252.44 183.712 252.84C184.032 253.16 184.552 253.4 185.152 253.4C185.752 253.4 186.272 253.16 186.592 252.84C186.952 252.44 187.192 251.76 187.192 250.84ZM194.966 237.16H198.966V239.28L199.046 239.32C200.686 237.28 202.886 236.84 204.286 236.84V241.12C202.366 240.8 198.966 241.28 198.966 245.64V257H194.966V237.16ZM206.921 231.12H210.921V237.16H213.481V240.36H210.921V251.24C210.921 251.64 210.961 252.48 211.481 252.92C211.921 253.28 212.601 253.28 212.961 253.28H213.481V257H212.401C211.241 257 209.321 256.96 208.081 255.6C206.961 254.4 206.921 252.8 206.921 251.6V240.36H204.881V237.16H206.921V231.12ZM225.412 257V229H237.572V232.8H229.412V241.2H236.572V245H229.412V257H225.412ZM238.441 250.6V243.56C238.441 242 238.561 239.8 240.401 238.24C241.481 237.32 243.001 236.84 244.481 236.84C245.961 236.84 247.481 237.32 248.561 238.24C250.401 239.8 250.521 242 250.521 243.56V250.6C250.521 252.16 250.401 254.36 248.561 255.92C247.481 256.84 245.961 257.32 244.481 257.32C243.001 257.32 241.481 256.84 240.401 255.92C238.561 254.36 238.441 252.16 238.441 250.6ZM246.521 250.84V243.32C246.521 242.4 246.281 241.72 245.921 241.32C245.601 241 245.081 240.76 244.481 240.76C243.881 240.76 243.361 241 243.041 241.32C242.681 241.72 242.441 242.4 242.441 243.32V250.84C242.441 251.76 242.681 252.44 243.041 252.84C243.361 253.16 243.881 253.4 244.481 253.4C245.081 253.4 245.601 253.16 245.921 252.84C246.281 252.44 246.521 251.76 246.521 250.84ZM254.294 229H258.294V251.36C258.294 251.84 258.374 252.44 258.854 252.88C259.254 253.24 259.814 253.28 260.134 253.28H260.534V257H259.374C258.454 257 256.534 256.88 255.294 255.32C254.334 254.12 254.294 252.72 254.294 251.56V229ZM263.113 257V237.16H267.113V257H263.113ZM263.113 229.56H267.113V233.48H263.113V229.56ZM270.873 250.6V243.56C270.873 242 270.993 239.8 272.833 238.24C273.913 237.32 275.433 236.84 276.913 236.84C278.393 236.84 279.913 237.32 280.993 238.24C282.833 239.8 282.953 242 282.953 243.56V250.6C282.953 252.16 282.833 254.36 280.993 255.92C279.913 256.84 278.393 257.32 276.913 257.32C275.433 257.32 273.913 256.84 272.833 255.92C270.993 254.36 270.873 252.16 270.873 250.6ZM278.953 250.84V243.32C278.953 242.4 278.713 241.72 278.353 241.32C278.033 241 277.513 240.76 276.913 240.76C276.313 240.76 275.793 241 275.473 241.32C275.113 241.72 274.873 242.4 274.873 243.32V250.84C274.873 251.76 275.113 252.44 275.473 252.84C275.793 253.16 276.313 253.4 276.913 253.4C277.513 253.4 278.033 253.16 278.353 252.84C278.713 252.44 278.953 251.76 278.953 250.84Z" fill="black"/>
<path d="M7.5 210V-1.43051e-05H50.4C73.8 -1.43051e-05 80.1 7.5 80.1 33V68.7C80.1 87.6 76.5 96.6 65.4 99.9C76.5 103.2 80.1 111.6 80.1 130.5V177C80.1 202.5 73.8 210 50.4 210H7.5ZM45.6 111.9H33.6V185.4H45.6C53.1 185.4 54 182.4 54 173.4V123.9C54 114.9 53.1 111.9 45.6 111.9ZM54 75.6V36.6C54 27.6 53.1 24.6 45.6 24.6H33.6V87.3H45.6C53.1 87.3 54 84.6 54 75.6ZM120.033 24.6V88.2H144.033V112.8H120.033V185.4H149.433V210H93.9328V-1.43051e-05H149.433V24.6H120.033ZM207.223 210L204.223 180H181.723L178.723 210H155.323L176.323 -1.43051e-05H212.323L233.623 210H207.223ZM185.323 140.7L184.123 155.4H201.823L200.623 141.6C196.723 97.2 194.323 62.1 192.823 27.9C191.323 62.1 188.923 96.3 185.323 140.7ZM272.623 210H246.523V24.3H229.123V-1.43051e-05H290.323V24.3H272.623V210Z" fill="black"/>
</svg>
