<svg width="869" height="869" viewBox="0 0 869 869" fill="none" xmlns="http://www.w3.org/2000/svg">
<path d="M845.114 543.932L841.321 557.325L837.665 556.289L839.016 551.517L815.732 544.922L816.822 541.073L840.106 547.668L841.458 542.896L845.114 543.932Z" fill="white"/>
<path d="M813.703 551.826L840.336 560.47L839.101 564.274L829.818 561.261C830.125 561.74 830.37 562.282 830.513 562.875C830.71 563.696 830.779 564.517 830.421 565.621C830.063 566.724 829.45 567.576 828.404 568.078C827.056 568.734 825.763 568.441 824.85 568.144L809.974 563.316L811.209 559.512L824.563 563.846C825.02 563.994 825.603 564.141 826.246 563.845C826.737 563.626 827.063 563.269 827.248 562.699C827.483 561.976 827.289 561.408 827.109 561.055C826.685 560.287 826.013 560.027 825.404 559.829L812.468 555.631L813.703 551.826Z" fill="white"/>
<path d="M805.642 575.192L807.48 575.874L807.508 575.799C807.193 575.383 806.773 574.673 806.556 573.995C806.257 573.074 806.358 572.343 806.65 571.555C806.928 570.805 807.472 569.685 808.682 569.067C810.201 568.308 811.958 568.746 813.459 569.303C814.809 569.804 816.806 570.63 817.678 572.19C818.681 573.971 818.052 576.126 817.649 577.214C817.551 577.476 817.287 578.189 816.743 579.31L818.693 580.033C819.218 580.228 819.795 580.399 820.449 580.13C821.001 579.908 821.397 579.415 821.606 578.852C821.801 578.327 821.822 577.695 821.487 577.102C821.285 576.728 820.942 576.388 820.468 576.169L821.79 572.606C823.491 573.195 824.689 574.45 825.232 575.633C825.822 576.918 825.851 578.678 825.212 580.403C824.586 582.091 823.471 583.256 822.223 583.86C820.372 584.709 818.54 584.243 817.265 583.77L804.251 578.942L805.642 575.192ZM811.118 577.223L813.743 578.197C813.985 577.775 814.189 577.339 814.342 576.926C814.565 576.326 814.824 575.398 814.334 574.534C813.952 573.838 813.192 573.47 812.592 573.248C812.067 573.053 811.514 572.933 810.916 573.052C810.176 573.205 809.733 573.595 809.497 574.233C809.079 575.358 809.468 576.611 811.118 577.223Z" fill="white"/>
<path d="M802.872 582.376L821.173 590.036L819.629 593.726L817.969 593.031C819.184 595.1 818.704 596.764 818.395 597.502C817.87 598.757 817.057 599.457 816.182 599.785C814.784 600.327 813.52 599.928 812.635 599.558L798.208 593.519L799.752 589.829L812.703 595.25C813.146 595.435 813.715 595.63 814.38 595.388C814.888 595.21 815.242 594.882 815.474 594.328C815.768 593.627 815.621 593.045 815.471 592.679C815.112 591.878 814.463 591.564 813.873 591.316L801.327 586.065L802.872 582.376Z" fill="white"/>
<path d="M796.322 597.718L821.686 609.579L819.992 613.202L804.773 606.086L804.74 606.158L810.533 614.166L808.838 617.79L803.535 610.055L790.46 610.255L792.29 606.342L801.569 606.707L799.664 603.697L794.628 601.342L796.322 597.718Z" fill="white"/>
<path d="M803.578 628.122L801.505 631.912L789.141 628.844L789.064 628.985L798.684 637.071L796.765 640.581L779.616 625.003C778.732 624.201 777.221 622.964 776.779 621.355C776.336 619.745 777.015 618.338 777.61 617.25L778.109 616.338L781.411 618.052L781.046 618.719C780.778 619.21 780.483 619.916 780.881 620.772C780.98 621.008 781.251 621.43 782.22 622.325L784.195 624.134L803.578 628.122Z" fill="white"/>
<path d="M783.734 636.221L789.782 639.824C791.122 640.623 792.951 641.852 793.349 644.231C793.587 645.63 793.221 647.181 792.464 648.453C791.706 649.724 790.516 650.784 789.173 651.241C786.891 652.024 784.939 651.001 783.599 650.203L777.551 646.6C776.211 645.801 774.382 644.572 773.984 642.193C773.746 640.794 774.112 639.243 774.869 637.971C775.627 636.7 776.817 635.64 778.16 635.183C780.442 634.4 782.393 635.423 783.734 636.221ZM779.392 643.04L785.853 646.889C786.643 647.36 787.35 647.502 787.878 647.397C788.317 647.286 788.789 646.962 789.096 646.446C789.403 645.931 789.463 645.361 789.352 644.923C789.192 644.409 788.731 643.855 787.941 643.384L781.48 639.535C780.69 639.064 779.983 638.922 779.455 639.027C779.016 639.138 778.544 639.462 778.237 639.977C777.93 640.493 777.87 641.063 777.981 641.501C778.14 642.015 778.602 642.569 779.392 643.04Z" fill="white"/>
<path d="M780.224 667.2L763.604 656.366L765.788 653.015L767.463 654.107C767.406 653.975 767.042 653.069 766.988 652.126C766.956 651.15 767.224 650.226 767.791 649.355C768.709 647.948 769.903 647.58 770.735 647.55C771.822 647.494 772.914 648.015 773.719 648.539L786.821 657.08L784.637 660.431L772.875 652.764C772.406 652.458 771.848 652.142 771.205 652.249C770.873 652.319 770.42 652.501 770.071 653.037C769.677 653.64 769.618 654.318 769.756 654.838C769.965 655.69 770.58 656.138 771.015 656.422L782.409 663.849L780.224 667.2Z" fill="white"/>
<path d="M764.241 689.357L751.478 673.275L753.388 670.708L772.456 678.319L769.949 681.688L758.241 676.315L758.121 676.475L766.629 686.148L764.241 689.357Z" fill="white"/>
<path d="M751.619 686.862L749.622 685.259C749.155 684.884 748.63 684.514 747.956 684.588C747.475 684.612 746.968 684.924 746.567 685.423C746.142 685.953 746.004 686.509 746.221 687.197C746.383 687.634 746.713 688.053 747.056 688.329L744.553 691.448L744.428 691.348C743.274 690.422 741.92 688.977 742.055 686.572C742.12 685.341 742.659 684.03 743.51 682.969C744.662 681.534 746.331 680.669 747.887 680.584C749.98 680.468 751.596 681.714 752.532 682.465L758.459 687.222C759.551 688.098 760.904 689.544 760.976 691.755C761.024 692.973 760.609 694.384 759.558 695.695C758.481 697.036 757.143 697.809 755.831 698.038C753.544 698.459 751.834 697.394 750.617 696.418L746.562 693.163L751.619 686.862ZM754.021 688.789L751.467 691.971L753.495 693.599C753.901 693.924 754.387 694.212 755.062 694.138C755.512 694.089 756.025 693.834 756.425 693.335C756.851 692.804 756.983 692.192 756.871 691.692C756.747 691.08 756.33 690.642 755.924 690.317L754.021 688.789Z" fill="white"/>
<path d="M752.751 703.462L750.147 706.498L748.538 705.117L748.455 705.152C748.936 707.725 747.837 709.681 746.926 710.744L743.677 707.957C745.17 706.708 747.02 703.815 743.711 700.976L735.089 693.579L737.693 690.544L752.751 703.462Z" fill="white"/>
<path d="M745.949 711.364L743.03 714.549L731.758 708.614L731.65 708.732L739.058 718.884L736.355 721.833L723.427 702.607C722.761 701.617 721.589 700.055 721.545 698.386C721.5 696.718 722.495 695.514 723.333 694.599L724.035 693.833L726.832 696.287L726.319 696.847C725.94 697.26 725.486 697.874 725.668 698.801C725.707 699.054 725.869 699.528 726.597 700.629L728.081 702.857L745.949 711.364Z" fill="white"/>
<path d="M726.847 731.539L723.937 734.284L722.702 732.975C722.77 733.571 722.723 734.22 722.651 734.728C722.513 735.573 722.12 736.438 721.277 737.234C720.724 737.756 720.063 738.105 719.266 738.251C718.413 738.396 717.682 738.262 717.039 737.988C717.213 738.814 717.243 739.72 716.994 740.505C716.774 741.263 716.389 741.846 715.778 742.422C714.876 743.273 713.75 744.061 712.061 743.729C710.711 743.464 709.774 742.587 709.061 741.831L698.684 730.833L701.594 728.088L711.229 738.3C711.586 738.679 712.028 739.031 712.705 739.107C713.298 739.153 713.728 738.967 714.106 738.61C714.542 738.199 714.754 737.724 714.743 737.129C714.741 736.252 714.276 735.701 713.836 735.235L704.503 725.343L707.413 722.598L717.048 732.81C717.405 733.189 717.791 733.539 718.524 733.617C719.06 733.661 719.489 733.532 719.925 733.12C720.274 732.791 720.57 732.347 720.562 731.639C720.559 730.762 720.094 730.211 719.655 729.745L710.322 719.853L713.232 717.108L726.847 731.539Z" fill="white"/>
<path d="M699.698 755.976L686.835 740.871L689.88 738.277L691.177 739.8C691.16 739.657 691.068 738.685 691.283 737.766C691.529 736.821 692.048 736.011 692.84 735.337C694.119 734.247 695.368 734.234 696.175 734.44C697.233 734.695 698.132 735.505 698.755 736.236L708.895 748.143L705.85 750.737L696.747 740.048C696.384 739.621 695.938 739.16 695.292 739.08C694.954 739.053 694.468 739.099 693.981 739.514C693.432 739.981 693.183 740.613 693.168 741.151C693.126 742.028 693.589 742.632 693.926 743.028L702.744 753.382L699.698 755.976Z" fill="white"/>
<path d="M683.452 761.237L686.59 758.756L686.64 758.819C686.937 759.196 687.347 759.585 687.952 759.77C688.42 759.91 689.051 759.87 689.679 759.374C690.055 759.076 690.451 758.61 690.481 757.873C690.51 757.136 690.151 756.553 689.729 756.019L684.966 749.995C684.618 749.556 684.103 749.097 683.547 748.975C683.242 748.91 682.592 748.863 681.839 749.458C681.4 749.806 681.004 750.272 681.006 750.984C681.015 751.64 681.43 752.23 681.653 752.512L681.678 752.544L678.54 755.024L678.317 754.742C676.853 752.891 676.863 751.098 677.082 749.956C677.326 748.845 677.965 747.525 679.376 746.408C680.788 745.292 682.51 744.696 684.052 744.905C686.324 745.199 687.483 746.73 688.55 748.079L692.792 753.444C693.785 754.699 694.924 756.399 694.549 758.633C694.362 759.75 693.773 761.134 692.235 762.349C690.729 763.54 689.015 764.08 687.56 763.853C686.018 763.644 684.494 762.555 683.527 761.331L683.452 761.237Z" fill="white"/>
<path d="M672.015 752.51L688.486 775.153L685.252 777.506L679.51 769.613C679.478 770.181 679.357 770.763 679.125 771.328C678.802 772.107 678.375 772.813 677.437 773.495C676.499 774.178 675.502 774.507 674.361 774.298C672.885 774.037 672.011 773.04 671.447 772.264L662.246 759.616L665.481 757.263L673.74 768.617C674.023 769.005 674.408 769.466 675.102 769.605C675.628 769.716 676.102 769.619 676.587 769.266C677.202 768.819 677.378 768.246 677.44 767.855C677.548 766.984 677.157 766.378 676.781 765.861L668.781 754.863L672.015 752.51Z" fill="white"/>
<path d="M651.107 790.647L644.911 771.074L647.611 769.356L662.716 783.261L659.172 785.515L650.147 776.323L649.979 776.431L654.481 788.5L651.107 790.647Z" fill="white"/>
<path d="M638.929 774.742L649.145 791.749L645.716 793.809L635.5 776.802L638.929 774.742ZM653.059 798.264L649.63 800.324L647.611 796.964L651.04 794.904L653.059 798.264Z" fill="white"/>
<path d="M633.394 787.745L632.141 785.513C631.848 784.989 631.5 784.451 630.846 784.267C630.391 784.11 629.805 784.21 629.247 784.523C628.654 784.856 628.318 785.319 628.262 786.038C628.249 786.505 628.399 787.017 628.614 787.401L625.126 789.358L625.048 789.219C624.323 787.928 623.608 786.082 624.632 783.902C625.152 782.785 626.142 781.77 627.328 781.104C628.932 780.204 630.804 780.025 632.279 780.527C634.263 781.202 635.297 782.962 635.884 784.008L639.604 790.635C640.289 791.856 641.004 793.703 640.244 795.781C639.834 796.928 638.922 798.082 637.457 798.905C635.957 799.747 634.427 799.963 633.124 799.685C630.846 799.221 629.657 797.595 628.894 796.234L626.349 791.7L633.394 787.745ZM634.902 790.431L631.344 792.428L632.617 794.695C632.871 795.148 633.215 795.598 633.869 795.781C634.304 795.904 634.875 795.858 635.433 795.545C636.026 795.212 636.378 794.694 636.461 794.189C636.575 793.574 636.351 793.012 636.096 792.558L634.902 790.431Z" fill="white"/>
<path d="M629.604 802.965L625.954 804.789L618.05 794.698L621.553 806.988L618.583 808.472L610.786 798.327L614.182 810.671L610.604 812.459L605.958 792.602L608.999 791.082L616.582 800.887L616.76 800.797L613.472 788.847L616.513 787.327L629.604 802.965Z" fill="white"/>
<path d="M590.037 799.767L596.52 815.093L598.435 814.282L599.682 817.23L597.766 818.04L598.794 820.471C599.324 821.724 599.868 823.318 599.062 825.005C598.341 826.483 596.892 827.269 595.603 827.815L594.277 828.376L592.906 825.134L593.642 824.822C594.269 824.557 594.806 824.287 595.109 823.463C595.354 822.708 595.194 822.124 594.914 821.461L594.119 819.583L591.135 820.845L589.888 817.897L592.835 816.651L586.353 801.325L590.037 799.767Z" fill="white"/>
<path d="M583.268 809.508L585.79 816.081C586.349 817.537 587.025 819.634 585.867 821.75C585.188 822.996 583.941 823.989 582.559 824.519C581.177 825.049 579.586 825.146 578.248 824.674C575.972 823.877 575.071 821.866 574.512 820.409L571.99 813.837C571.431 812.38 570.754 810.284 571.913 808.168C572.592 806.922 573.839 805.929 575.221 805.399C576.602 804.869 578.194 804.772 579.531 805.244C581.808 806.041 582.709 808.052 583.268 809.508ZM575.638 812.18L578.333 819.2C578.662 820.059 579.13 820.608 579.61 820.852C580.023 821.037 580.594 821.074 581.155 820.859C581.715 820.644 582.114 820.234 582.298 819.82C582.491 819.318 582.471 818.597 582.142 817.738L579.447 810.718C579.118 809.859 578.65 809.31 578.17 809.065C577.757 808.881 577.186 808.844 576.625 809.059C576.065 809.274 575.666 809.684 575.482 810.097C575.289 810.6 575.308 811.321 575.638 812.18Z" fill="white"/>
<path d="M573.099 827.654L569.318 828.96L568.626 826.957L568.537 826.945C567.653 829.409 565.718 830.543 564.394 831L562.997 826.955C564.916 826.63 567.973 825.066 566.549 820.945L562.839 810.208L566.62 808.902L573.099 827.654Z" fill="white"/>
<path d="M553.554 834.042L549.398 835.22L542.923 824.249L542.769 824.292L543.741 836.822L539.892 837.912L538.989 814.762C538.942 813.57 538.765 811.624 539.604 810.181C540.442 808.738 541.921 808.236 543.114 807.898L544.115 807.614L545.206 811.172L544.475 811.379C543.936 811.532 543.226 811.816 542.895 812.7C542.795 812.936 542.684 813.424 542.725 814.743L542.818 817.419L553.554 834.042Z" fill="white"/>
<path d="M533.661 825.589L535.295 832.436C535.657 833.954 536.051 836.121 534.623 838.066C533.786 839.211 532.419 840.031 530.979 840.375C529.54 840.718 527.95 840.604 526.686 839.96C524.534 838.87 523.907 836.757 523.545 835.24L521.91 828.392C521.548 826.875 521.154 824.707 522.582 822.763C523.419 821.617 524.786 820.797 526.226 820.454C527.665 820.11 529.255 820.225 530.519 820.869C532.671 821.959 533.299 824.071 533.661 825.589ZM525.746 827.23L527.491 834.545C527.705 835.44 528.096 836.046 528.539 836.351C528.924 836.588 529.486 836.701 530.069 836.562C530.653 836.422 531.103 836.068 531.34 835.683C531.597 835.21 531.673 834.493 531.46 833.598L529.714 826.283C529.501 825.389 529.109 824.783 528.666 824.477C528.281 824.24 527.719 824.128 527.136 824.267C526.552 824.406 526.102 824.76 525.865 825.146C525.608 825.618 525.532 826.336 525.746 827.23Z" fill="white"/>
<path d="M509.104 844.68L505.238 825.22L509.161 824.441L509.551 826.403C509.606 826.269 510 825.376 510.636 824.678C511.311 823.973 512.159 823.519 513.179 823.316C514.827 822.989 515.925 823.587 516.528 824.16C517.327 824.899 517.718 826.044 517.905 826.986L520.953 842.326L517.029 843.106L514.293 829.335C514.184 828.785 514.02 828.166 513.495 827.78C513.213 827.592 512.766 827.395 512.138 827.52C511.432 827.66 510.906 828.091 510.631 828.553C510.167 829.298 510.276 830.051 510.377 830.561L513.027 843.901L509.104 844.68Z" fill="white"/>
<path d="M504.246 845.477L500.299 846.121L499.957 844.029L499.872 844.002C498.582 846.279 496.481 847.068 495.1 847.293L494.411 843.069C496.357 843.076 499.635 842.055 498.933 837.752L497.105 826.54L501.053 825.896L504.246 845.477Z" fill="white"/>
<path d="M481.922 854.707L477.945 855.138L477.294 849.133L474.749 849.409L474.404 846.228L476.949 845.952L475.777 835.135C475.734 834.738 475.604 833.907 475.04 833.525C474.563 833.215 473.887 833.288 473.529 833.327L473.012 833.383L472.612 829.685L473.685 829.568C474.839 829.443 476.752 829.276 478.131 830.495C479.374 831.567 479.586 833.153 479.715 834.346L480.926 845.521L482.954 845.301L483.299 848.483L481.271 848.702L481.922 854.707Z" fill="white"/>
<path d="M469.976 829.895L471.733 849.657L467.749 850.011L465.991 830.249L469.976 829.895ZM472.406 857.227L468.422 857.581L468.075 853.677L472.059 853.323L472.406 857.227Z" fill="white"/>
<path d="M463.504 850.384L459.509 850.584L459.419 848.787C459.083 849.284 458.626 849.748 458.242 850.087C457.589 850.641 456.729 851.044 455.57 851.103C454.811 851.141 454.082 850.977 453.381 850.572C452.637 850.128 452.168 849.551 451.856 848.926C451.453 849.667 450.888 850.376 450.189 850.812C449.53 851.246 448.858 851.439 448.019 851.482C446.781 851.544 445.413 851.412 444.344 850.064C443.489 848.986 443.345 847.711 443.292 846.673L442.534 831.572L446.529 831.371L447.233 845.393C447.259 845.913 447.367 846.468 447.833 846.965C448.254 847.385 448.702 847.522 449.221 847.496C449.82 847.466 450.29 847.242 450.667 846.783C451.234 846.114 451.238 845.393 451.206 844.753L450.524 831.17L454.519 830.97L455.223 844.992C455.249 845.512 455.315 846.029 455.823 846.564C456.202 846.946 456.612 847.125 457.211 847.095C457.69 847.071 458.204 846.925 458.657 846.382C459.224 845.712 459.228 844.991 459.196 844.352L458.514 830.769L462.509 830.569L463.504 850.384Z" fill="white"/>
<path d="M434.02 839.92L434.03 837.36C434.032 836.76 433.995 836.12 433.517 835.638C433.198 835.277 432.639 835.075 431.999 835.072C431.319 835.07 430.798 835.308 430.396 835.906C430.154 836.305 430.032 836.825 430.03 837.265L426.03 837.249L426.031 837.089C426.037 835.609 426.324 833.65 428.29 832.258C429.292 831.542 430.654 831.147 432.014 831.152C433.854 831.159 435.571 831.926 436.606 833.09C438 834.655 438.033 836.695 438.028 837.895L437.999 845.495C437.993 846.895 437.706 848.854 436.02 850.288C435.097 851.084 433.735 851.639 432.055 851.633C430.335 851.626 428.897 851.06 427.9 850.176C426.146 848.65 425.914 846.649 425.92 845.089L425.94 839.889L434.02 839.92ZM434.008 843L429.928 842.984L429.918 845.584C429.916 846.104 429.994 846.665 430.472 847.146C430.791 847.468 431.31 847.71 431.95 847.712C432.63 847.715 433.191 847.437 433.513 847.038C433.914 846.56 433.997 845.96 433.999 845.44L434.008 843Z" fill="white"/>
<path d="M421.492 859.288L416.694 859.14L418.262 838.178L421.461 838.277L421.492 859.288ZM422.141 835.697L417.743 835.561L417.878 831.163L422.276 831.299L422.141 835.697Z" fill="white"/>
<path d="M332.154 847.173L318.691 843.634L319.657 839.959L324.454 841.22L330.606 817.815L334.475 818.832L328.323 842.236L333.12 843.497L332.154 847.173Z" fill="white"/>
<path d="M322.968 815.71L314.727 842.47L310.905 841.293L313.777 831.965C313.303 832.28 312.765 832.533 312.174 832.685C311.356 832.894 310.536 832.976 309.427 832.635C308.319 832.293 307.457 831.693 306.94 830.655C306.264 829.317 306.537 828.02 306.82 827.103L311.423 812.155L315.245 813.332L311.114 826.751C310.972 827.209 310.834 827.794 311.14 828.433C311.366 828.921 311.728 829.242 312.301 829.418C313.027 829.642 313.592 829.439 313.942 829.254C314.704 828.819 314.954 828.142 315.142 827.531L319.145 814.533L322.968 815.71Z" fill="white"/>
<path d="M299.757 808.124L299.11 809.975L299.186 810.001C299.595 809.678 300.297 809.246 300.971 809.015C301.887 808.7 302.619 808.786 303.412 809.064C304.167 809.328 305.298 809.85 305.938 811.049C306.726 812.553 306.32 814.318 305.792 815.829C305.317 817.188 304.528 819.2 302.984 820.101C301.223 821.138 299.056 820.55 297.961 820.167C297.697 820.074 296.98 819.823 295.849 819.301L295.162 821.264C294.977 821.793 294.817 822.372 295.098 823.022C295.331 823.569 295.831 823.956 296.397 824.154C296.926 824.339 297.558 824.348 298.145 824.002C298.515 823.793 298.849 823.444 299.059 822.966L302.646 824.22C302.089 825.933 300.857 827.154 299.685 827.719C298.411 828.333 296.651 828.396 294.915 827.788C293.215 827.194 292.03 826.101 291.403 824.865C290.519 823.03 290.951 821.19 291.4 819.906L295.981 806.804L299.757 808.124ZM297.829 813.637L296.905 816.28C297.332 816.514 297.772 816.71 298.187 816.856C298.791 817.067 299.724 817.308 300.579 816.802C301.268 816.407 301.62 815.641 301.832 815.037C302.017 814.508 302.126 813.953 301.995 813.357C301.829 812.62 301.431 812.185 300.789 811.96C299.656 811.564 298.41 811.976 297.829 813.637Z" fill="white"/>
<path d="M292.729 805.537L285.412 823.978L281.694 822.503L282.358 820.83C280.312 822.084 278.639 821.635 277.895 821.34C276.631 820.839 275.916 820.038 275.572 819.17C275.003 817.783 275.379 816.512 275.733 815.619L281.501 801.082L285.219 802.557L280.041 815.607C279.864 816.053 279.68 816.626 279.934 817.286C280.121 817.791 280.456 818.139 281.014 818.36C281.721 818.64 282.3 818.483 282.663 818.326C283.457 817.952 283.76 817.298 283.996 816.703L289.011 804.062L292.729 805.537Z" fill="white"/>
<path d="M277.415 799.316L266.028 824.896L262.374 823.269L269.206 807.921L269.133 807.888L261.234 813.83L257.579 812.203L265.214 806.757L264.771 793.687L268.717 795.444L268.525 804.728L271.499 802.768L273.76 797.689L277.415 799.316Z" fill="white"/>
<path d="M247.292 807.182L243.464 805.18L246.303 792.761L246.162 792.687L238.254 802.454L234.71 800.6L249.968 783.167C250.753 782.269 251.962 780.734 253.563 780.262C255.164 779.791 256.584 780.443 257.682 781.017L258.604 781.5L256.951 784.833L256.277 784.481C255.781 784.221 255.07 783.94 254.222 784.354C253.988 784.457 253.571 784.735 252.694 785.721L250.922 787.729L247.292 807.182Z" fill="white"/>
<path d="M238.722 787.422L235.231 793.535C234.458 794.89 233.262 796.741 230.891 797.183C229.497 797.446 227.939 797.109 226.654 796.375C225.369 795.642 224.287 794.471 223.805 793.136C222.981 790.869 223.967 788.899 224.741 787.545L228.232 781.431C229.006 780.077 230.201 778.226 232.572 777.783C233.966 777.52 235.524 777.857 236.809 778.591C238.095 779.325 239.177 780.495 239.658 781.83C240.483 784.097 239.496 786.067 238.722 787.422ZM231.825 783.206L228.096 789.737C227.639 790.536 227.511 791.245 227.625 791.771C227.744 792.208 228.077 792.674 228.598 792.971C229.119 793.269 229.689 793.318 230.126 793.199C230.637 793.03 231.182 792.559 231.639 791.76L235.368 785.23C235.824 784.431 235.953 783.721 235.838 783.195C235.719 782.759 235.387 782.292 234.866 781.995C234.345 781.697 233.774 781.648 233.337 781.767C232.826 781.936 232.281 782.407 231.825 783.206Z" fill="white"/>
<path d="M207.746 784.505L218.273 767.689L221.663 769.811L220.602 771.506C220.734 771.447 221.633 771.066 222.574 770.995C223.549 770.945 224.478 771.195 225.359 771.747C226.783 772.639 227.172 773.826 227.218 774.657C227.294 775.743 226.793 776.845 226.283 777.658L217.985 790.915L214.594 788.793L222.044 776.892C222.341 776.418 222.647 775.854 222.529 775.214C222.452 774.883 222.262 774.433 221.72 774.094C221.109 773.712 220.431 773.664 219.913 773.812C219.065 774.037 218.628 774.66 218.352 775.1L211.136 786.628L207.746 784.505Z" fill="white"/>
<path d="M185.368 768.96L201.213 755.906L203.815 757.769L196.554 776.973L193.139 774.527L198.298 762.723L198.135 762.607L188.619 771.289L185.368 768.96Z" fill="white"/>
<path d="M187.663 756.312L189.229 754.286C189.596 753.812 189.956 753.281 189.869 752.608C189.836 752.127 189.516 751.626 189.009 751.235C188.471 750.819 187.913 750.691 187.23 750.921C186.795 751.091 186.382 751.429 186.113 751.777L182.949 749.33L183.046 749.204C183.952 748.033 185.372 746.653 187.779 746.744C189.01 746.786 190.331 747.302 191.407 748.134C192.863 749.259 193.759 750.912 193.872 752.466C194.025 754.556 192.809 756.195 192.076 757.144L187.427 763.157C186.571 764.265 185.151 765.644 182.941 765.756C181.724 765.826 180.305 765.437 178.976 764.41C177.615 763.358 176.819 762.034 176.566 760.726C176.103 758.447 177.136 756.718 178.09 755.484L181.271 751.37L187.663 756.312ZM185.779 758.749L182.552 756.253L180.961 758.31C180.643 758.722 180.364 759.214 180.45 759.887C180.508 760.336 180.772 760.844 181.279 761.235C181.817 761.651 182.431 761.772 182.929 761.651C183.539 761.516 183.969 761.09 184.287 760.679L185.779 758.749Z" fill="white"/>
<path d="M171.065 757.724L167.982 755.175L169.333 753.541L169.297 753.459C166.733 753.986 164.757 752.924 163.678 752.032L166.406 748.733C167.681 750.203 170.608 752 173.386 748.639L180.625 739.884L183.707 742.433L171.065 757.724Z" fill="white"/>
<path d="M163.083 751.097L159.845 748.237L165.574 736.859L165.454 736.753L155.439 744.344L152.441 741.696L171.428 728.421C172.406 727.737 173.947 726.536 175.614 726.461C177.282 726.387 178.504 727.36 179.433 728.181L180.213 728.869L177.809 731.71L177.24 731.207C176.82 730.836 176.198 730.393 175.275 730.591C175.023 730.635 174.551 730.806 173.464 731.554L171.263 733.078L163.083 751.097Z" fill="white"/>
<path d="M142.64 732.435L139.843 729.576L141.129 728.317C140.535 728.396 139.884 728.36 139.376 728.298C138.529 728.176 137.656 727.799 136.845 726.97C136.313 726.426 135.953 725.772 135.791 724.978C135.631 724.128 135.752 723.394 136.014 722.746C135.191 722.935 134.286 722.982 133.496 722.747C132.735 722.54 132.145 722.166 131.557 721.566C130.69 720.68 129.882 719.568 130.183 717.874C130.424 716.519 131.283 715.566 132.027 714.839L142.834 704.265L145.632 707.124L135.596 716.943C135.224 717.306 134.88 717.755 134.816 718.433C134.781 719.027 134.975 719.453 135.338 719.825C135.758 720.254 136.237 720.457 136.831 720.435C137.708 720.417 138.251 719.942 138.708 719.494L148.429 709.983L151.226 712.842L141.191 722.661C140.819 723.025 140.476 723.417 140.411 724.152C140.377 724.689 140.514 725.114 140.933 725.543C141.269 725.886 141.718 726.174 142.426 726.153C143.303 726.135 143.846 725.66 144.303 725.212L154.024 715.701L156.821 718.56L142.64 732.435Z" fill="white"/>
<path d="M117.714 705.737L132.583 692.601L135.231 695.599L133.732 696.923C133.875 696.903 134.846 696.793 135.768 696.992C136.718 697.221 137.537 697.725 138.225 698.504C139.338 699.763 139.374 701.013 139.182 701.823C138.946 702.885 138.153 703.799 137.433 704.435L125.712 714.79L123.064 711.792L133.586 702.497C134.006 702.126 134.459 701.672 134.527 701.024C134.548 700.686 134.493 700.201 134.069 699.721C133.593 699.181 132.956 698.944 132.417 698.939C131.541 698.913 130.944 699.386 130.555 699.73L120.363 708.735L117.714 705.737Z" fill="white"/>
<path d="M112.259 689.714L114.797 692.807L114.735 692.857C114.364 693.162 113.982 693.579 113.808 694.187C113.677 694.657 113.728 695.288 114.236 695.906C114.54 696.277 115.014 696.665 115.751 696.68C116.489 696.696 117.065 696.327 117.591 695.895L123.527 691.023C123.96 690.668 124.41 690.144 124.521 689.586C124.58 689.279 124.616 688.629 124.007 687.887C123.651 687.454 123.178 687.067 122.466 687.082C121.81 687.102 121.228 687.528 120.95 687.757L120.919 687.782L118.382 684.69L118.66 684.462C120.484 682.964 122.277 682.942 123.423 683.14C124.537 683.364 125.87 683.978 127.011 685.369C128.153 686.761 128.781 688.471 128.6 690.016C128.347 692.294 126.838 693.481 125.508 694.572L120.221 698.911C118.984 699.926 117.306 701.097 115.065 700.762C113.945 700.595 112.551 700.032 111.307 698.517C110.089 697.032 109.518 695.328 109.719 693.87C109.899 692.324 110.961 690.78 112.167 689.791L112.259 689.714Z" fill="white"/>
<path d="M120.749 678.095L98.4102 694.976L95.9985 691.785L103.785 685.901C103.217 685.879 102.633 685.769 102.064 685.547C101.279 685.238 100.565 684.824 99.8658 683.899C99.1665 682.973 98.8189 681.983 99.0067 680.838C99.2413 679.357 100.222 678.466 100.988 677.887L113.466 668.457L115.877 671.648L104.676 680.113C104.293 680.403 103.839 680.796 103.713 681.493C103.611 682.021 103.717 682.493 104.078 682.972C104.537 683.578 105.113 683.744 105.506 683.798C106.378 683.891 106.976 683.489 107.487 683.103L118.337 674.904L120.749 678.095Z" fill="white"/>
<path d="M82.2533 657.929L101.71 651.376L103.477 654.043L89.8515 669.401L87.5323 665.899L96.5572 656.707L96.4468 656.541L84.4621 661.264L82.2533 657.929Z" fill="white"/>
<path d="M98.021 645.611L81.2043 656.138L79.0818 652.748L95.8985 642.221L98.021 645.611ZM74.7624 660.171L72.6399 656.781L75.9626 654.701L78.085 658.091L74.7624 660.171Z" fill="white"/>
<path d="M84.9218 640.341L87.1308 639.047C87.6485 638.744 88.1805 638.386 88.352 637.729C88.5009 637.271 88.3904 636.686 88.067 636.134C87.7232 635.547 87.2533 635.22 86.5334 635.178C86.067 635.173 85.5576 635.333 85.178 635.555L83.1562 632.103L83.2942 632.023C84.5713 631.275 86.404 630.525 88.6027 631.509C89.7294 632.008 90.7619 632.979 91.4493 634.153C92.3794 635.74 92.593 637.609 92.1177 639.092C91.4793 641.089 89.7393 642.154 88.7039 642.761L82.1462 646.602C80.9382 647.31 79.1054 648.059 77.0138 647.337C75.8585 646.948 74.6879 646.058 73.8387 644.608C72.9693 643.124 72.7247 641.598 72.9785 640.291C73.4005 638.004 75.0049 636.786 76.351 635.997L80.8378 633.369L84.9218 640.341ZM82.2642 641.898L80.202 638.377L77.9586 639.691C77.5099 639.954 77.0671 640.306 76.8956 640.963C76.7812 641.401 76.837 641.971 77.1604 642.523C77.5042 643.11 78.0288 643.451 78.5357 643.525C79.152 643.628 79.7102 643.394 80.1589 643.131L82.2642 641.898Z" fill="white"/>
<path d="M69.5256 636.657L67.6346 633.041L77.5776 624.951L65.3542 628.682L63.8155 625.74L73.8141 617.756L61.5352 621.38L59.6812 617.836L79.4492 612.823L81.0251 615.835L71.3623 623.598L71.455 623.775L83.3425 620.266L84.9183 623.279L69.5256 636.657Z" fill="white"/>
<path d="M72.149 597.413L56.9471 604.18L57.7929 606.081L54.8695 607.382L54.0236 605.482L51.6118 606.555C50.3693 607.108 48.7857 607.682 47.0835 606.907C45.5926 606.213 44.7795 604.78 44.2102 603.501L43.6246 602.186L46.8404 600.754L47.1657 601.485C47.4422 602.106 47.7228 602.638 48.5515 602.926C49.3111 603.157 49.8918 602.986 50.5495 602.693L52.4132 601.864L51.0956 598.904L54.0191 597.603L55.3204 600.526L70.5224 593.759L72.149 597.413Z" fill="white"/>
<path d="M62.2463 590.778L55.7222 593.423C54.2765 594.009 52.1926 594.725 50.0555 593.606C48.7971 592.951 47.7812 591.722 47.2251 590.351C46.669 588.979 46.5427 587.39 46.9895 586.044C47.7438 583.752 49.7375 582.815 51.1832 582.228L57.7074 579.583C59.1531 578.997 61.237 578.282 63.374 579.401C64.6324 580.056 65.6483 581.284 66.2044 582.656C66.7605 584.027 66.8868 585.616 66.44 586.963C65.6857 589.254 63.692 590.192 62.2463 590.778ZM59.4327 583.2L52.4638 586.026C51.6112 586.371 51.0712 586.849 50.8358 587.333C50.6595 587.75 50.6324 588.322 50.8579 588.878C51.0833 589.434 51.5011 589.826 51.9179 590.002C52.4239 590.185 53.1442 590.152 53.9968 589.807L60.9658 586.981C61.8184 586.635 62.3583 586.157 62.5938 585.673C62.7701 585.257 62.7971 584.685 62.5717 584.129C62.3462 583.573 61.9284 583.181 61.5116 583.005C61.0057 582.821 60.2853 582.854 59.4327 583.2Z" fill="white"/>
<path d="M43.9693 581.144L42.5922 577.389L44.5826 576.659L44.5926 576.57C42.1127 575.733 40.9422 573.818 40.4603 572.504L44.4786 571.031C44.8392 572.943 46.4603 575.97 50.5538 574.469L61.2194 570.558L62.5965 574.314L43.9693 581.144Z" fill="white"/>
<path d="M36.9588 561.079L35.7187 556.94L46.5901 550.3L46.5442 550.147L34.0308 551.308L32.8826 547.476L56.0164 546.223C57.208 546.158 59.1505 545.952 60.6061 546.768C62.0618 547.585 62.5862 549.056 62.9422 550.244L63.2407 551.24L59.7002 552.385L59.4821 551.657C59.3213 551.12 59.0265 550.415 58.1378 550.097C57.9003 550.001 57.4099 549.897 56.0919 549.958L53.4176 550.092L36.9588 561.079Z" fill="white"/>
<path d="M45.1042 541.163L38.2887 542.926C36.7785 543.317 34.6186 543.752 32.6474 542.362C31.4861 541.547 30.6406 540.196 30.2698 538.763C29.8989 537.33 29.9828 535.738 30.6028 534.462C31.6521 532.29 33.7518 531.623 35.2621 531.232L42.0775 529.468C43.5878 529.077 45.7477 528.642 47.7189 530.032C48.8802 530.847 49.7257 532.199 50.0965 533.632C50.4673 535.064 50.3835 536.656 49.7634 537.932C48.7142 540.104 46.6144 540.772 45.1042 541.163ZM43.3121 533.28L36.0319 535.164C35.1413 535.395 34.5431 535.798 34.2461 536.246C34.0164 536.636 33.9144 537.2 34.0647 537.781C34.2151 538.362 34.5777 538.805 34.9677 539.034C35.4451 539.283 36.1635 539.345 37.0542 539.114L44.3343 537.23C45.225 537 45.8232 536.597 46.1202 536.148C46.3498 535.758 46.4519 535.195 46.3015 534.614C46.1512 534.033 45.7886 533.59 45.3986 533.36C44.9212 533.112 44.2027 533.05 43.3121 533.28Z" fill="white"/>
<path d="M25.7162 517.736L45.0986 513.499L45.9528 517.407L43.9989 517.834C44.1332 517.887 45.0344 518.263 45.7437 518.886C46.4616 519.548 46.9316 520.387 47.1537 521.403C47.5125 523.044 46.9359 524.153 46.3741 524.767C45.6511 525.58 44.5129 525.993 43.5751 526.198L28.2958 529.537L27.4416 525.63L41.1578 522.631C41.7049 522.512 42.3216 522.336 42.6966 521.804C42.8798 521.518 43.0679 521.067 42.9312 520.442C42.7775 519.739 42.3367 519.221 41.8691 518.955C41.1157 518.505 40.3647 518.628 39.8567 518.739L26.5704 521.644L25.7162 517.736Z" fill="white"/>
<path d="M24.6353 512.046L23.931 508.108L26.0179 507.735L26.0432 507.649C23.7463 506.394 22.9258 504.306 22.6793 502.928L26.8924 502.174C26.9155 504.121 27.9867 507.383 32.2785 506.615L43.4611 504.615L44.1654 508.552L24.6353 512.046Z" fill="white"/>
<path d="M15.079 490.47L14.5718 486.502L20.563 485.736L20.2384 483.197L23.4125 482.791L23.7372 485.33L34.5293 483.95C34.9261 483.9 35.7542 483.754 36.1247 483.182C36.426 482.7 36.3398 482.025 36.2942 481.668L36.2282 481.152L39.9182 480.681L40.0551 481.752C40.2022 482.903 40.4061 484.812 39.2143 486.215C38.166 487.478 36.584 487.72 35.3937 487.873L24.2444 489.298L24.5031 491.321L21.329 491.727L21.0703 489.704L15.079 490.47Z" fill="white"/>
<path d="M39.6084 477.691L19.8758 479.752L19.4601 475.774L39.1927 473.713L39.6084 477.691ZM12.3169 480.542L11.9013 476.564L15.8001 476.156L16.2157 480.135L12.3169 480.542Z" fill="white"/>
<path d="M18.9766 471.664L18.7144 467.672L20.5105 467.554C20.008 467.227 19.5375 466.777 19.1919 466.398C18.6285 465.754 18.2116 464.899 18.1356 463.742C18.0857 462.984 18.2381 462.252 18.6326 461.545C19.0644 460.795 19.6343 460.316 20.2545 459.995C19.5073 459.603 18.7894 459.049 18.3431 458.357C17.8994 457.704 17.6951 457.036 17.6401 456.198C17.5588 454.961 17.6692 453.591 19.0007 452.501C20.0659 451.629 21.3379 451.466 22.3756 451.397L37.4631 450.407L37.7253 454.398L23.7155 455.318C23.1966 455.352 22.643 455.469 22.153 455.942C21.7401 456.37 21.6093 456.819 21.6434 457.338C21.6827 457.937 21.9138 458.403 22.379 458.773C23.057 459.33 23.7781 459.323 24.4167 459.281L37.9874 458.389L38.2496 462.381L24.2398 463.301C23.7209 463.335 23.2046 463.409 22.6773 463.925C22.3018 464.31 22.1284 464.722 22.1677 465.321C22.1992 465.8 22.353 466.311 22.9033 466.756C23.5813 467.313 24.3024 467.305 24.941 467.263L38.5118 466.372L38.7739 470.364L18.9766 471.664Z" fill="white"/>
<path d="M28.9617 444.386L31.5213 444.336C32.1212 444.325 32.7603 444.272 33.2309 443.783C33.5847 443.456 33.7738 442.893 33.7615 442.253C33.7484 441.573 33.4984 441.058 32.8908 440.669C32.4862 440.437 31.964 440.327 31.5241 440.336L31.4469 436.336L31.6068 436.333C33.0866 436.305 35.0516 436.547 36.4892 438.479C37.2283 439.465 37.6545 440.817 37.6807 442.177C37.7163 444.017 36.9896 445.751 35.8499 446.813C34.3172 448.243 32.2783 448.322 31.0786 448.346L23.48 448.492C22.0802 448.519 20.1152 448.277 18.643 446.625C17.8254 445.721 17.2393 444.372 17.2069 442.692C17.1737 440.973 17.7058 439.522 18.5663 438.505C20.0521 436.716 22.0471 436.438 23.6068 436.408L28.8058 436.307L28.9617 444.386ZM25.8823 444.445L25.8036 440.366L23.2041 440.416C22.6842 440.426 22.1258 440.517 21.6552 441.006C21.3414 441.332 21.1115 441.857 21.1238 442.497C21.137 443.177 21.4277 443.731 21.8338 444.043C22.3214 444.434 22.9229 444.502 23.4428 444.492L25.8823 444.445Z" fill="white"/>
<path d="M9.3098 429.693L9.38391 424.894L30.3672 426.138L30.3178 429.337L9.3098 429.693ZM32.9082 429.977L32.9762 425.578L37.3756 425.646L37.3077 430.045L32.9082 429.977Z" fill="white"/>
<path d="M19.574 340.858L22.8564 327.331L26.5492 328.227L25.3796 333.047L48.8972 338.754L47.954 342.641L24.4364 336.934L23.2668 341.754L19.574 340.858Z" fill="white"/>
<path d="M50.9872 330.512L24.0761 322.78L25.1808 318.935L34.5612 321.631C34.2377 321.163 33.9748 320.63 33.8109 320.042C33.5868 319.228 33.4891 318.409 33.8095 317.294C34.1298 316.179 34.7135 315.307 35.7418 314.77C37.067 314.068 38.3688 314.318 39.2915 314.583L54.3233 318.902L53.2186 322.746L39.7246 318.869C39.2633 318.737 38.6756 318.609 38.0432 318.927C37.5594 319.163 37.2456 319.53 37.0799 320.107C36.8701 320.837 37.0835 321.398 37.2753 321.744C37.7247 322.498 38.4057 322.735 39.0208 322.912L52.0919 326.668L50.9872 330.512Z" fill="white"/>
<path d="M57.6775 308.515L55.8156 307.903L55.7906 307.979C56.1211 308.383 56.5668 309.076 56.8099 309.746C57.1425 310.655 57.0697 311.389 56.8074 312.187C56.5576 312.947 56.0563 314.088 54.8701 314.75C53.3809 315.566 51.6084 315.194 50.0884 314.694C48.7204 314.245 46.6934 313.494 45.7637 311.968C44.6939 310.226 45.2414 308.048 45.6037 306.946C45.6911 306.68 45.9284 305.958 46.4296 304.818L44.4537 304.168C43.9217 303.994 43.3392 303.844 42.6953 304.138C42.1524 304.38 41.775 304.888 41.5877 305.458C41.4128 305.99 41.4154 306.622 41.772 307.203C41.9886 307.569 42.3441 307.896 42.8256 308.096L41.639 311.706C39.9165 311.182 38.6718 309.973 38.0851 308.812C37.4474 307.55 37.3516 305.792 37.9261 304.044C38.4882 302.334 39.5584 301.128 40.7827 300.477C42.6003 299.559 44.4488 299.956 45.7408 300.381L58.9266 304.715L57.6775 308.515ZM52.1296 306.692L49.4696 305.817C49.2437 306.248 49.0558 306.692 48.9184 307.11C48.7186 307.718 48.4948 308.655 49.0169 309.5C49.4245 310.181 50.1976 310.52 50.8055 310.72C51.3375 310.894 51.8945 310.993 52.4884 310.852C53.2213 310.672 53.6497 310.265 53.8621 309.619C54.2368 308.479 53.8016 307.241 52.1296 306.692Z" fill="white"/>
<path d="M60.207 301.049L41.6316 294.079L43.0368 290.334L44.722 290.966C43.4303 288.944 43.8473 287.263 44.1284 286.514C44.6061 285.241 45.3928 284.51 46.2543 284.15C47.6308 283.556 48.9088 283.907 49.8076 284.244L64.4507 289.739L63.0455 293.484L49.9004 288.552C49.451 288.383 48.8752 288.21 48.2197 288.476C47.7188 288.673 47.3769 289.015 47.1661 289.576C46.8991 290.288 47.0676 290.864 47.2314 291.224C47.6198 292.011 48.2798 292.301 48.879 292.526L61.6122 297.304L60.207 301.049Z" fill="white"/>
<path d="M66.2176 285.302L40.4294 274.394L41.9876 270.71L57.4605 277.254L57.4917 277.181L51.4041 269.394L52.9623 265.71L58.5497 273.242L71.609 272.555L69.9261 276.534L60.6399 276.515L62.655 279.452L67.7758 281.617L66.2176 285.302Z" fill="white"/>
<path d="M57.9058 254.962L59.8368 251.098L72.3058 253.707L72.3773 253.563L62.4652 245.838L64.2531 242.26L81.9665 257.192C82.879 257.961 84.4356 259.142 84.9368 260.734C85.4381 262.326 84.8124 263.757 84.2581 264.866L83.7932 265.796L80.4298 264.205L80.7695 263.525C81.0198 263.024 81.288 262.309 80.8584 261.468C80.751 261.236 80.4647 260.824 79.4628 259.966L77.423 258.231L57.9058 254.962Z" fill="white"/>
<path d="M77.2367 246.465L71.0598 243.088C69.6911 242.339 67.8184 241.178 67.3325 238.815C67.0434 237.426 67.3516 235.863 68.0616 234.564C68.7717 233.265 69.9221 232.162 71.2475 231.656C73.499 230.79 75.4868 231.74 76.8556 232.489L83.0324 235.866C84.4011 236.615 86.2738 237.776 86.7597 240.138C87.0488 241.527 86.7406 243.091 86.0306 244.39C85.3205 245.688 84.1701 246.792 82.8447 247.298C80.5932 248.164 78.6054 247.214 77.2367 246.465ZM81.3238 239.491L74.7259 235.883C73.9187 235.442 73.2069 235.326 72.6832 235.45C72.2489 235.577 71.7889 235.918 71.501 236.445C71.2131 236.971 71.1742 237.543 71.3015 237.977C71.4797 238.485 71.9612 239.021 72.7684 239.463L79.3663 243.071C80.1735 243.512 80.8853 243.628 81.409 243.504C81.8433 243.377 82.3033 243.036 82.5912 242.509C82.8791 241.983 82.918 241.411 82.7908 240.977C82.6125 240.469 82.131 239.932 81.3238 239.491Z" fill="white"/>
<path d="M79.606 215.308L96.6134 225.524L94.5536 228.953L92.8391 227.923C92.9008 228.054 93.2982 228.946 93.3869 229.886C93.455 230.86 93.2213 231.793 92.6857 232.684C91.8206 234.124 90.6405 234.535 89.8104 234.597C88.7265 234.692 87.6154 234.211 86.7925 233.717L73.3855 225.663L75.4453 222.234L87.4807 229.464C87.9607 229.753 88.53 230.048 89.168 229.918C89.4973 229.836 89.9433 229.637 90.2729 229.088C90.6437 228.471 90.6783 227.792 90.5208 227.277C90.2811 226.434 89.6503 226.008 89.2045 225.74L77.5463 218.737L79.606 215.308Z" fill="white"/>
<path d="M94.7515 192.515L108.093 208.12L106.278 210.755L86.9445 203.846L89.3274 200.387L101.224 205.329L101.337 205.165L92.482 195.809L94.7515 192.515Z" fill="white"/>
<path d="M107.432 194.531L109.485 196.06C109.967 196.418 110.504 196.768 111.176 196.67C111.655 196.628 112.15 196.298 112.532 195.785C112.938 195.239 113.056 194.679 112.814 194C112.636 193.568 112.291 193.161 111.938 192.899L114.326 189.69L114.454 189.786C115.642 190.669 117.047 192.064 117 194.472C116.98 195.704 116.489 197.034 115.677 198.125C114.578 199.601 112.942 200.527 111.39 200.669C109.303 200.86 107.643 199.675 106.68 198.958L100.583 194.42C99.4602 193.584 98.0551 192.19 97.903 189.982C97.8106 188.766 98.1734 187.341 99.1764 185.993C100.203 184.614 101.512 183.793 102.815 183.516C105.086 183.012 106.833 184.013 108.085 184.945L112.256 188.05L107.432 194.531ZM104.961 192.692L107.397 189.419L105.311 187.867C104.894 187.556 104.397 187.286 103.726 187.385C103.278 187.45 102.775 187.724 102.393 188.238C101.987 188.783 101.877 189.4 102.007 189.895C102.153 190.503 102.586 190.925 103.004 191.235L104.961 192.692Z" fill="white"/>
<path d="M105.267 178.476L107.759 175.347L109.417 176.668L109.498 176.63C108.924 174.077 109.951 172.082 110.823 170.987L114.171 173.653C112.724 174.956 110.981 177.914 114.392 180.631L123.277 187.709L120.785 190.838L105.267 178.476Z" fill="white"/>
<path d="M111.706 170.34L114.507 167.051L125.987 172.572L126.091 172.451L118.319 162.575L120.913 159.529L134.531 178.272C135.232 179.237 136.461 180.756 136.566 182.422C136.671 184.088 135.72 185.327 134.916 186.271L134.242 187.063L131.358 184.712L131.851 184.134C132.214 183.707 132.646 183.077 132.43 182.158C132.382 181.906 132.202 181.438 131.435 180.365L129.871 178.192L111.706 170.34Z" fill="white"/>
<path d="M130.383 149L133.191 146.151L134.473 147.414C134.384 146.821 134.407 146.17 134.46 145.661C134.567 144.812 134.928 143.932 135.743 143.106C136.276 142.565 136.924 142.192 137.715 142.017C138.562 141.841 139.298 141.949 139.951 142.198C139.747 141.38 139.683 140.475 139.904 139.681C140.096 138.916 140.46 138.32 141.049 137.721C141.92 136.838 143.017 136.01 144.716 136.281C146.075 136.497 147.043 137.338 147.784 138.068L158.553 148.682L155.745 151.531L145.745 141.676C145.375 141.31 144.92 140.974 144.241 140.923C143.646 140.899 143.224 141.1 142.859 141.47C142.437 141.898 142.243 142.38 142.276 142.974C142.31 143.85 142.795 144.384 143.251 144.833L152.937 154.38L150.129 157.229L140.13 147.373C139.759 147.008 139.361 146.672 138.625 146.621C138.087 146.596 137.664 146.741 137.243 147.168C136.906 147.51 136.627 147.964 136.66 148.671C136.695 149.548 137.179 150.082 137.635 150.531L147.321 160.078L144.514 162.927L130.383 149Z" fill="white"/>
<path d="M157.094 123.098L170.499 137.726L167.55 140.428L166.198 138.954C166.22 139.096 166.348 140.064 166.166 140.991C165.955 141.944 165.465 142.772 164.699 143.474C163.46 144.61 162.212 144.668 161.399 144.491C160.332 144.275 159.403 143.498 158.755 142.79L148.188 131.26L151.137 128.557L160.623 138.908C161.001 139.321 161.463 139.766 162.112 139.823C162.451 139.838 162.935 139.774 163.407 139.341C163.938 138.855 164.164 138.214 164.159 137.675C164.169 136.798 163.685 136.211 163.334 135.828L154.145 125.801L157.094 123.098Z" fill="white"/>
<path d="M171.939 118.254L168.893 120.847L168.842 120.786C168.53 120.421 168.106 120.046 167.495 119.884C167.023 119.761 166.393 119.824 165.784 120.343C165.419 120.654 165.04 121.134 165.038 121.872C165.035 122.609 165.415 123.179 165.856 123.697L170.835 129.544C171.199 129.97 171.731 130.41 172.29 130.512C172.598 130.565 173.249 130.588 173.98 129.966C174.406 129.603 174.785 129.123 174.757 128.411C174.724 127.756 174.288 127.182 174.054 126.907L174.029 126.877L177.074 124.284L177.307 124.558C178.837 126.354 178.892 128.146 178.715 129.296C178.512 130.414 177.922 131.757 176.552 132.924C175.181 134.092 173.483 134.75 171.934 134.597C169.653 134.386 168.438 132.899 167.323 131.589L162.888 126.382C161.851 125.163 160.65 123.507 160.944 121.26C161.091 120.137 161.629 118.733 163.121 117.462C164.583 116.217 166.277 115.615 167.738 115.789C169.287 115.942 170.85 116.975 171.861 118.162L171.939 118.254Z" fill="white"/>
<path d="M184.225 126.044L166.939 104.017L170.086 101.547L176.112 109.225C176.123 108.657 176.222 108.071 176.434 107.498C176.729 106.707 177.129 105.986 178.042 105.27C178.954 104.554 179.938 104.188 181.086 104.355C182.571 104.563 183.48 105.527 184.073 106.283L193.729 118.586L190.582 121.056L181.914 110.011C181.618 109.633 181.216 109.186 180.517 109.073C179.987 108.981 179.518 109.095 179.046 109.465C178.448 109.934 178.292 110.514 178.245 110.907C178.168 111.781 178.581 112.372 178.976 112.876L187.372 123.575L184.225 126.044Z" fill="white"/>
<path d="M203.695 87.1076L210.604 106.441L207.969 108.256L192.365 94.9145L195.823 92.5316L205.179 101.387L205.344 101.273L200.402 89.377L203.695 87.1076Z" fill="white"/>
<path d="M215.75 102.977L204.916 86.3565L208.267 84.1722L219.101 100.793L215.75 102.977ZM200.766 79.9897L204.117 77.8054L206.258 81.0893L202.907 83.2736L200.766 79.9897Z" fill="white"/>
<path d="M220.816 89.7086L222.151 91.8934C222.463 92.4054 222.831 92.9307 223.491 93.0902C223.952 93.2306 224.534 93.1094 225.08 92.7758C225.66 92.4214 225.979 91.9455 226.008 91.225C226.004 90.7585 225.835 90.2522 225.606 89.8767L229.02 87.7917L229.103 87.9283C229.874 89.1913 230.657 91.01 229.714 93.2264C229.236 94.3621 228.284 95.4123 227.123 96.1212C225.553 97.0803 223.689 97.3282 222.197 96.8803C220.189 96.2787 219.091 94.5586 218.466 93.5345L214.504 87.0486C213.775 85.8538 212.992 84.0352 213.675 81.9306C214.043 80.7683 214.912 79.5815 216.346 78.7058C217.814 77.8093 219.335 77.5367 220.647 77.7664C222.941 78.1462 224.188 79.728 225.001 81.0593L227.712 85.497L220.816 89.7086ZM219.211 87.0801L222.693 84.9535L221.338 82.7346C221.066 82.2908 220.706 81.8546 220.046 81.6952C219.607 81.5889 219.038 81.6551 218.492 81.9887C217.911 82.3431 217.579 82.874 217.515 83.3821C217.423 84.0003 217.668 84.554 217.939 84.9978L219.211 87.0801Z" fill="white"/>
<path d="M224.914 73.7902L228.494 71.8327L236.766 81.6244L232.811 69.4722L235.723 67.8793L243.89 77.7286L240.04 65.5188L243.55 63.5997L248.927 83.2716L245.944 84.9029L238.004 75.3853L237.829 75.4812L241.557 87.3018L238.574 88.933L224.914 73.7902Z" fill="white"/>
<path d="M263.266 76.0809L256.217 61.0075L254.333 61.8886L252.978 58.9898L254.862 58.1088L253.744 55.7173C253.168 54.4854 252.565 52.9127 253.308 51.1964C253.973 49.6928 255.391 48.8532 256.659 48.2602L257.964 47.6502L259.455 50.8388L258.73 51.1777C258.114 51.4657 257.588 51.7561 257.315 52.59C257.098 53.3538 257.28 53.9312 257.585 54.5834L258.449 56.4313L261.384 55.0589L262.74 57.9576L259.841 59.3131L266.889 74.3865L263.266 76.0809Z" fill="white"/>
<path d="M269.906 65.9193L267.139 59.4458C266.526 58.0113 265.772 55.9411 266.851 53.7835C267.482 52.5131 268.691 51.4744 270.052 50.8928C271.413 50.3112 273 50.1552 274.354 50.5767C276.659 51.2881 277.634 53.264 278.247 54.6985L281.014 61.1721C281.627 62.6065 282.381 64.6767 281.302 66.8343C280.671 68.1047 279.462 69.1434 278.101 69.725C276.74 70.3067 275.153 70.4626 273.799 70.0411C271.494 69.3297 270.519 67.3538 269.906 65.9193ZM277.43 62.9647L274.475 56.0497C274.113 55.2037 273.625 54.6728 273.137 54.4464C272.717 54.2779 272.145 54.2616 271.593 54.4974C271.041 54.7332 270.657 55.1582 270.489 55.5782C270.315 56.0875 270.361 56.8071 270.723 57.6531L273.678 64.5681C274.04 65.4141 274.528 65.945 275.016 66.1714C275.436 66.3399 276.008 66.3562 276.56 66.1204C277.112 65.8846 277.496 65.4596 277.664 65.0396C277.838 64.5303 277.792 63.8107 277.43 62.9647Z" fill="white"/>
<path d="M278.836 47.5573L282.565 46.11L283.332 48.0864L283.421 48.0947C284.212 45.5995 286.104 44.3934 287.409 43.8868L288.957 47.8768C287.052 48.2732 284.056 49.9509 285.633 54.0155L289.744 64.6058L286.015 66.0531L278.836 47.5573Z" fill="white"/>
<path d="M299.902 39.7065L304.016 38.3884L310.86 49.1325L311.013 49.0837L309.616 36.5945L313.425 35.3741L315.115 58.4801C315.203 59.6702 315.445 61.6085 314.657 63.0793C313.868 64.5501 312.407 65.1022 311.226 65.4806L310.235 65.7979L309.024 62.2796L309.748 62.0478C310.281 61.8769 310.981 61.5688 311.282 60.6742C311.373 60.4349 311.468 59.9427 311.382 58.6261L311.198 55.9548L299.902 39.7065Z" fill="white"/>
<path d="M319.807 47.5048L317.914 40.724C317.495 39.2215 317.019 37.0702 318.371 35.0729C319.164 33.8964 320.499 33.0254 321.925 32.6275C323.35 32.2296 324.943 32.2832 326.231 32.8789C328.423 33.8868 329.13 35.9735 329.549 37.476L331.442 44.2568C331.861 45.7594 332.337 47.9106 330.985 49.9079C330.192 51.0844 328.857 51.9554 327.431 52.3533C326.006 52.7513 324.413 52.6976 323.125 52.1019C320.933 51.094 320.226 49.0073 319.807 47.5048ZM327.654 45.5635L325.632 38.3204C325.385 37.4342 324.971 36.8438 324.516 36.5553C324.122 36.3332 323.557 36.2418 322.979 36.4031C322.401 36.5645 321.964 36.9354 321.742 37.3297C321.503 37.8118 321.455 38.5312 321.702 39.4174L323.724 46.6604C323.971 47.5466 324.385 48.137 324.84 48.4255C325.234 48.6477 325.799 48.739 326.377 48.5777C326.955 48.4164 327.391 48.0454 327.614 47.6511C327.853 47.1691 327.901 46.4496 327.654 45.5635Z" fill="white"/>
<path d="M341.626 27.9479L346.231 47.2461L342.34 48.1745L341.876 46.2291C341.826 46.3644 341.467 47.2725 340.858 47.9936C340.21 48.724 339.38 49.2099 338.368 49.4513C336.734 49.8413 335.615 49.2859 334.99 48.7359C334.163 48.0285 333.729 46.8984 333.506 45.9646L329.876 30.7517L333.767 29.8233L337.026 43.4799C337.156 44.0246 337.343 44.6378 337.882 45.0026C338.172 45.1803 338.626 45.3598 339.248 45.2113C339.949 45.0442 340.458 44.5937 340.715 44.121C341.15 43.3592 341.013 42.6107 340.892 42.1049L337.735 28.8763L341.626 27.9479Z" fill="white"/>
<path d="M348.457 26.4637L352.38 25.6842L352.793 27.7636L352.879 27.7872C354.091 25.4668 356.163 24.6065 357.536 24.3337L358.37 28.5316C356.424 28.5919 353.183 29.7252 354.033 34.0017L356.246 45.1439L352.323 45.9233L348.457 26.4637Z" fill="white"/>
<path d="M369.055 16.5882L373.012 16.0049L373.893 21.9803L376.426 21.607L376.892 24.7728L374.36 25.1461L375.946 35.9098C376.005 36.3055 376.167 37.1307 376.745 37.4902C377.233 37.7822 377.906 37.683 378.262 37.6305L378.777 37.5547L379.319 41.2349L378.251 41.3924C377.103 41.5616 375.198 41.802 373.773 40.6374C372.49 39.6135 372.217 38.0365 372.042 36.8493L370.403 25.7294L368.384 26.0269L367.918 22.8611L369.936 22.5637L369.055 16.5882Z" fill="white"/>
<path d="M382.765 40.7829L380.325 21.0935L384.295 20.6015L386.735 40.2909L382.765 40.7829ZM379.39 13.5512L383.36 13.0592L383.842 16.9495L379.872 17.4415L379.39 13.5512Z" fill="white"/>
<path d="M388.16 20.0323L392.146 19.6933L392.299 21.4869C392.617 20.9781 393.058 20.499 393.429 20.1462C394.063 19.5705 394.909 19.1372 396.065 19.0389C396.822 18.9745 397.556 19.1127 398.271 19.4935C399.029 19.9108 399.519 20.4713 399.852 21.0853C400.229 20.3306 400.769 19.6022 401.453 19.1426C402.097 18.6864 402.761 18.4694 403.598 18.3982C404.833 18.2931 406.205 18.3771 407.32 19.6874C408.212 20.7355 408.4 22.0041 408.489 23.0404L409.77 38.106L405.784 38.445L404.594 24.4555C404.55 23.9374 404.423 23.3862 403.941 22.9053C403.505 22.5008 403.053 22.3787 402.535 22.4227C401.937 22.4736 401.476 22.7136 401.114 23.1859C400.571 23.8744 400.592 24.5952 400.646 25.2329L401.799 38.784L397.813 39.123L396.623 25.1335C396.579 24.6154 396.495 24.1006 395.97 23.5833C395.577 23.2153 395.161 23.0499 394.564 23.1007C394.085 23.1414 393.577 23.305 393.143 23.8639C392.6 24.5524 392.621 25.2732 392.675 25.9109L393.827 39.462L389.842 39.801L388.16 20.0323Z" fill="white"/>
<path d="M417.885 29.3597L417.974 31.9182C417.994 32.5178 418.057 33.1561 418.553 33.6191C418.885 33.9678 419.452 34.1482 420.092 34.126C420.771 34.1024 421.282 33.8444 421.661 33.2309C421.887 32.8228 421.989 32.299 421.974 31.8592L425.972 31.7203L425.977 31.8802C426.028 33.3593 425.817 35.3279 423.907 36.7951C422.932 37.5494 421.587 37.9964 420.228 38.0436C418.389 38.1075 416.643 37.4077 415.564 36.2845C414.11 34.7741 414 32.7367 413.958 31.5374L413.694 23.942C413.645 22.5428 413.857 20.5743 415.486 19.0768C416.378 18.2454 417.718 17.6385 419.396 17.5801C421.115 17.5204 422.574 18.0301 423.604 18.8748C425.416 20.3328 425.725 22.3232 425.779 23.8823L425.96 29.0791L417.885 29.3597ZM417.778 26.2816L421.855 26.1399L421.765 23.5415C421.747 23.0218 421.647 22.4649 421.151 22.0019C420.82 21.6932 420.292 21.4714 419.653 21.4936C418.973 21.5172 418.423 21.8165 418.117 22.2274C417.734 22.721 417.675 23.3234 417.693 23.8431L417.778 26.2816Z" fill="white"/>
<path d="M428.191 9.51159L432.991 9.47453L432.233 30.481L429.033 30.5057L428.191 9.51159ZM428.453 33.1103L432.853 33.0763L432.887 37.4762L428.487 37.5101L428.453 33.1103Z" fill="white"/>
<path d="M519.231 17.8932L532.819 20.9174L531.993 24.6267L527.152 23.5491L521.894 47.171L517.989 46.3019L523.247 22.68L518.406 21.6024L519.231 17.8932Z" fill="white"/>
<path d="M530.629 49.1896L537.851 22.1368L541.715 23.1684L539.198 32.5982C539.659 32.2659 540.188 31.9929 540.773 31.8179C541.582 31.5784 542.399 31.4653 543.519 31.7644C544.64 32.0636 545.524 32.6307 546.08 33.6486C546.806 34.9602 546.582 36.2665 546.334 37.1941L542.301 52.305L538.436 51.2734L542.057 37.7084C542.181 37.2446 542.297 36.6546 541.967 36.0284C541.723 35.5491 541.349 35.2424 540.769 35.0876C540.035 34.8916 539.478 35.1156 539.136 35.314C538.391 35.7776 538.167 36.4629 538.002 37.0813L534.494 50.2212L530.629 49.1896Z" fill="white"/>
<path d="M554.959 56.14L555.543 54.269L555.467 54.2451C555.069 54.5817 554.382 55.0378 553.716 55.291C552.812 55.6373 552.077 55.5756 551.275 55.3253C550.511 55.087 549.363 54.6031 548.683 53.4269C547.845 51.9502 548.19 50.1724 548.667 48.645C549.095 47.2704 549.815 45.2323 551.328 44.2796C553.053 43.1836 555.239 43.6982 556.346 44.0438C556.613 44.1272 557.339 44.3536 558.487 44.8375L559.106 42.852C559.273 42.3174 559.414 41.7327 559.11 41.0933C558.86 40.5542 558.346 40.1845 557.774 40.0058C557.239 39.8389 556.607 39.8511 556.032 40.2164C555.669 40.4385 555.347 40.7989 555.154 41.2834L551.527 40.1514C552.025 38.4212 553.215 37.1584 554.367 36.5543C555.62 35.8976 557.376 35.7752 559.132 36.3233C560.851 36.8595 562.073 37.9114 562.741 39.1257C563.687 40.9293 563.318 42.7835 562.913 44.0818L558.778 57.3316L554.959 56.14ZM556.699 50.5651L557.533 47.8922C557.099 47.6729 556.653 47.4917 556.233 47.3606C555.622 47.17 554.681 46.9604 553.844 47.4952C553.169 47.9131 552.842 48.6911 552.652 49.302C552.485 49.8366 552.394 50.395 552.545 50.9867C552.736 51.7168 553.149 52.139 553.798 52.3416C554.944 52.6991 556.175 52.2452 556.699 50.5651Z" fill="white"/>
<path d="M559.985 57.7141L566.605 39.011L570.376 40.3457L569.775 42.0425C571.773 40.713 573.461 41.0984 574.216 41.3653C575.498 41.8191 576.242 42.5919 576.619 43.4465C577.239 44.8116 576.912 46.096 576.591 47.001L571.373 61.7447L567.602 60.41L572.287 47.1746C572.447 46.7221 572.609 46.1432 572.33 45.4928C572.124 44.9956 571.776 44.6603 571.211 44.4601C570.494 44.2065 569.922 44.3857 569.564 44.5562C568.785 44.9594 568.507 45.6248 568.294 46.2281L563.756 59.0487L559.985 57.7141Z" fill="white"/>
<path d="M576.096 63.4943L586.519 37.5068L590.232 38.9959L583.977 54.5884L584.052 54.6182L591.723 48.3861L595.436 49.8752L588.01 55.6024L588.941 68.6465L584.931 67.0383L584.777 57.7534L581.878 59.823L579.808 64.9834L576.096 63.4943Z" fill="white"/>
<path d="M606.543 54.7068L610.443 56.5657L608.066 69.081L608.21 69.1498L615.751 59.096L619.361 60.8173L604.76 78.8047C604.008 79.7313 602.857 81.3095 601.275 81.8402C599.692 82.371 598.25 81.7719 597.13 81.2383L596.191 80.7908L597.72 77.3984L598.406 77.7254C598.912 77.9664 599.632 78.2212 600.465 77.7762C600.695 77.6645 601.101 77.3706 601.941 76.3528L603.637 74.2813L606.543 54.7068Z" fill="white"/>
<path d="M615.323 73.8241L618.586 67.5859C619.309 66.2036 620.435 64.3098 622.788 63.7803C624.172 63.4656 625.741 63.7448 627.052 64.4307C628.364 65.1167 629.488 66.2465 630.019 67.5623C630.926 69.7974 630.013 71.8024 629.29 73.1848L626.027 79.423C625.304 80.8053 624.178 82.6991 621.825 83.2286C620.441 83.5433 618.872 83.2641 617.56 82.5782C616.249 81.8922 615.125 80.7624 614.594 79.4466C613.687 77.2115 614.6 75.2064 615.323 73.8241ZM622.371 77.7817L625.857 71.1182C626.283 70.303 626.386 69.5892 626.252 69.0679C626.117 68.636 625.767 68.1823 625.236 67.9042C624.704 67.6262 624.132 67.5978 623.7 67.7331C623.196 67.9206 622.668 68.412 622.241 69.2272L618.756 75.8907C618.33 76.7059 618.227 77.4197 618.361 77.941C618.496 78.3729 618.846 78.8265 619.377 79.1046C619.909 79.3827 620.481 79.4111 620.913 79.2758C621.417 79.0882 621.945 78.5969 622.371 77.7817Z" fill="white"/>
<path d="M646.629 75.6623L636.727 92.8547L633.261 90.8584L634.259 89.1253C634.13 89.1894 633.245 89.6031 632.307 89.7091C631.334 89.7951 630.397 89.5786 629.496 89.0596C628.04 88.2211 627.608 87.0487 627.531 86.2199C627.416 85.1379 627.876 84.0182 628.355 83.1863L636.161 69.6334L639.627 71.6297L632.62 83.7962C632.34 84.2814 632.056 84.856 632.197 85.4915C632.286 85.8193 632.492 86.2616 633.047 86.581C633.671 86.9403 634.351 86.9625 634.862 86.7955C635.702 86.5403 636.116 85.9017 636.375 85.4511L643.163 73.666L646.629 75.6623Z" fill="white"/>
<path d="M669.817 90.4434L654.459 104.069L651.791 102.302L658.345 82.8452L661.847 85.1644L657.123 97.1491L657.29 97.2595L666.482 88.2346L669.817 90.4434Z" fill="white"/>
<path d="M668.085 103.186L666.594 105.268C666.245 105.755 665.905 106.299 666.015 106.969C666.066 107.448 666.405 107.936 666.925 108.309C667.478 108.705 668.04 108.813 668.715 108.558C669.143 108.372 669.543 108.02 669.799 107.662L673.051 109.991L672.958 110.121C672.096 111.324 670.727 112.755 668.319 112.752C667.086 112.755 665.748 112.288 664.642 111.496C663.146 110.424 662.191 108.805 662.021 107.256C661.791 105.173 662.946 103.491 663.645 102.515L668.071 96.337C668.886 95.1989 670.255 93.7686 672.459 93.5762C673.673 93.4616 675.105 93.7983 676.471 94.7766C677.869 95.7782 678.713 97.072 679.014 98.3697C679.56 100.63 678.59 102.396 677.682 103.664L674.654 107.892L668.085 103.186ZM669.878 100.682L673.195 103.058L674.709 100.945C675.012 100.522 675.273 100.02 675.163 99.3504C675.089 98.9039 674.806 98.4059 674.286 98.0333C673.733 97.6373 673.114 97.5388 672.621 97.6776C672.017 97.8349 671.602 98.2761 671.299 98.6989L669.878 100.682Z" fill="white"/>
<path d="M684.069 100.7L687.243 103.135L685.952 104.817L685.991 104.897C688.534 104.277 690.548 105.267 691.658 106.119L689.053 109.515C687.724 108.092 684.735 106.403 682.081 109.863L675.166 118.876L671.992 116.441L684.069 100.7Z" fill="white"/>
<path d="M692.373 107.024L695.712 109.765L690.401 121.344L690.525 121.445L700.258 113.495L703.35 116.033L684.858 129.989C683.905 130.709 682.409 131.964 680.746 132.1C679.082 132.235 677.825 131.307 676.867 130.521L676.063 129.861L678.361 126.935L678.949 127.417C679.382 127.772 680.02 128.192 680.935 127.96C681.185 127.907 681.65 127.719 682.709 126.933L684.854 125.329L692.373 107.024Z" fill="white"/>
<path d="M714.157 125.398L717.056 128.153L715.816 129.458C716.408 129.358 717.059 129.37 717.57 129.413C718.421 129.505 719.307 129.85 720.147 130.649C720.698 131.173 721.082 131.814 721.272 132.601C721.463 133.445 721.369 134.183 721.131 134.84C721.946 134.621 722.849 134.542 723.647 134.748C724.415 134.926 725.018 135.279 725.627 135.857C726.526 136.711 727.374 137.793 727.135 139.497C726.943 140.86 726.119 141.843 725.403 142.597L714.987 153.557L712.087 150.801L721.759 140.624C722.117 140.247 722.445 139.786 722.485 139.106C722.498 138.512 722.289 138.092 721.912 137.734C721.477 137.321 720.991 137.135 720.398 137.179C719.523 137.229 718.998 137.724 718.557 138.187L709.188 148.046L706.288 145.29L715.96 135.113C716.319 134.736 716.648 134.331 716.686 133.595C716.7 133.057 716.548 132.636 716.113 132.223C715.765 131.892 715.306 131.621 714.599 131.667C713.724 131.718 713.199 132.212 712.758 132.676L703.389 142.534L700.489 139.779L714.157 125.398Z" fill="white"/>
<path d="M740.556 151.651L726.175 165.318L723.419 162.419L724.869 161.041C724.727 161.066 723.761 161.211 722.831 161.046C721.874 160.852 721.038 160.378 720.321 159.624C719.164 158.406 719.082 157.159 719.245 156.343C719.442 155.273 720.201 154.33 720.897 153.669L732.234 142.894L734.989 145.794L724.812 155.466C724.407 155.852 723.97 156.322 723.925 156.971C723.917 157.31 723.989 157.793 724.43 158.257C724.926 158.779 725.572 158.994 726.109 158.979C726.987 158.973 727.565 158.478 727.942 158.12L737.8 148.751L740.556 151.651Z" fill="white"/>
<path d="M745.739 166.483L743.09 163.485L743.15 163.432C743.51 163.115 743.877 162.684 744.028 162.07C744.142 161.595 744.068 160.967 743.538 160.368C743.22 160.008 742.733 159.638 741.996 159.649C741.258 159.66 740.696 160.05 740.186 160.5L734.431 165.585C734.011 165.956 733.581 166.496 733.489 167.057C733.442 167.366 733.43 168.017 734.066 168.736C734.436 169.156 734.923 169.526 735.634 169.485C736.289 169.441 736.855 168.994 737.125 168.756L737.155 168.729L739.803 171.727L739.533 171.965C737.765 173.528 735.974 173.615 734.822 173.459C733.7 173.276 732.346 172.711 731.154 171.362C729.963 170.013 729.273 168.327 729.398 166.776C729.567 164.491 731.033 163.25 732.322 162.111L737.448 157.582C738.647 156.523 740.282 155.292 742.533 155.545C743.659 155.671 745.072 156.183 746.37 157.652C747.641 159.091 748.274 160.774 748.127 162.238C748.002 163.789 746.998 165.371 745.829 166.404L745.739 166.483Z" fill="white"/>
<path d="M738.157 178.897L759.866 161.213L762.392 164.314L754.825 170.479C755.394 170.48 755.982 170.568 756.558 170.769C757.354 171.05 758.082 171.437 758.815 172.336C759.547 173.236 759.931 174.213 759.785 175.364C759.604 176.852 758.657 177.779 757.912 178.385L745.787 188.263L743.26 185.162L754.146 176.294C754.518 175.991 754.958 175.581 755.058 174.881C755.14 174.349 755.018 173.882 754.639 173.416C754.159 172.827 753.576 172.682 753.182 172.642C752.307 172.581 751.724 173.005 751.228 173.409L740.683 181.999L738.157 178.897Z" fill="white"/>
<path d="M777.455 197.682L758.251 204.943L756.387 202.342L769.442 186.496L771.887 189.911L763.205 199.427L763.321 199.589L775.125 194.431L777.455 197.682Z" fill="white"/>
<path d="M761.885 210.146L778.304 199.009L780.549 202.32L764.13 213.456L761.885 210.146ZM784.594 194.743L786.839 198.054L783.595 200.254L781.35 196.944L784.594 194.743Z" fill="white"/>
<path d="M775.245 214.986L773.085 216.361C772.579 216.683 772.06 217.06 771.913 217.723C771.781 218.186 771.913 218.766 772.257 219.306C772.622 219.879 773.103 220.189 773.824 220.205C774.291 220.192 774.794 220.015 775.165 219.778L777.312 223.153L777.177 223.239C775.929 224.034 774.125 224.849 771.891 223.947C770.747 223.49 769.679 222.557 768.949 221.41C767.962 219.858 767.679 217.998 768.1 216.498C768.665 214.48 770.364 213.351 771.377 212.707L777.789 208.627C778.97 207.875 780.774 207.059 782.891 207.704C784.059 208.051 785.262 208.897 786.164 210.315C787.087 211.766 787.388 213.281 787.182 214.598C786.844 216.898 785.286 218.175 783.97 219.012L779.583 221.803L775.245 214.986ZM777.844 213.333L780.034 216.775L782.227 215.38C782.666 215.1 783.096 214.732 783.243 214.07C783.341 213.628 783.265 213.06 782.921 212.52C782.556 211.947 782.019 211.624 781.51 211.569C780.89 211.489 780.341 211.744 779.902 212.023L777.844 213.333Z" fill="white"/>
<path d="M791.127 218.632L793.151 222.175L783.513 230.627L795.59 226.448L797.237 229.331L787.54 237.678L799.676 233.603L801.66 237.077L782.091 242.816L780.405 239.864L789.774 231.75L789.675 231.576L777.925 235.522L776.239 232.569L791.127 218.632Z" fill="white"/>
<path d="M789.692 257.343L804.632 250.015L803.716 248.148L806.589 246.739L807.505 248.606L809.875 247.444C811.096 246.845 812.657 246.213 814.387 246.924C815.903 247.562 816.769 248.963 817.385 250.22L818.019 251.513L814.859 253.063L814.506 252.345C814.207 251.735 813.907 251.213 813.068 250.957C812.3 250.754 811.727 250.946 811.08 251.263L809.249 252.162L810.675 255.071L807.802 256.48L806.393 253.607L791.453 260.934L789.692 257.343Z" fill="white"/>
<path d="M799.935 263.746L806.356 260.859C807.778 260.22 809.834 259.427 812.012 260.466C813.293 261.073 814.355 262.263 814.961 263.613C815.568 264.962 815.754 266.546 815.358 267.908C814.689 270.226 812.732 271.237 811.309 271.877L804.888 274.764C803.466 275.404 801.41 276.196 799.232 275.158C797.95 274.55 796.889 273.361 796.283 272.011C795.676 270.661 795.49 269.078 795.886 267.715C796.555 265.398 798.512 264.386 799.935 263.746ZM803.029 271.214L809.888 268.13C810.727 267.753 811.249 267.255 811.466 266.763C811.627 266.34 811.632 265.767 811.386 265.22C811.14 264.673 810.708 264.297 810.285 264.136C809.772 263.972 809.054 264.032 808.215 264.409L801.356 267.493C800.517 267.87 799.995 268.368 799.778 268.86C799.617 269.283 799.612 269.856 799.858 270.403C800.104 270.95 800.536 271.326 800.959 271.487C801.471 271.651 802.19 271.591 803.029 271.214Z" fill="white"/>
<path d="M818.512 272.504L820.028 276.205L818.067 277.009L818.06 277.098C820.57 277.842 821.811 279.711 822.342 281.007L818.381 282.63C817.949 280.732 816.216 277.768 812.182 279.421L801.67 283.729L800.153 280.027L818.512 272.504Z" fill="white"/>
<path d="M826.532 292.893L827.927 296.982L817.314 304.027L817.366 304.179L829.826 302.546L831.118 306.332L808.048 308.457C806.86 308.567 804.927 308.847 803.441 308.086C801.956 307.325 801.376 305.874 800.976 304.7L800.64 303.716L804.135 302.439L804.38 303.158C804.561 303.688 804.882 304.382 805.782 304.666C806.023 304.753 806.517 304.838 807.832 304.727L810.499 304.493L826.532 292.893Z" fill="white"/>
<path d="M819.12 312.999L825.864 310.978C827.358 310.53 829.5 310.014 831.523 311.329C832.714 312.099 833.61 313.417 834.035 314.835C834.46 316.253 834.437 317.846 833.865 319.145C832.899 321.355 830.826 322.102 829.332 322.55L822.588 324.571C821.094 325.018 818.952 325.535 816.929 324.22C815.738 323.45 814.842 322.132 814.417 320.714C813.992 319.296 814.016 317.702 814.587 316.404C815.553 314.193 817.626 313.447 819.12 312.999ZM821.21 320.808L828.413 318.649C829.295 318.385 829.877 317.96 830.157 317.5C830.372 317.102 830.452 316.535 830.28 315.96C830.108 315.385 829.729 314.956 829.33 314.742C828.844 314.512 828.124 314.477 827.242 314.741L820.039 316.9C819.157 317.164 818.575 317.589 818.295 318.048C818.08 318.447 818 319.014 818.172 319.589C818.344 320.163 818.723 320.593 819.122 320.807C819.608 321.037 820.329 321.072 821.21 320.808Z" fill="white"/>
<path d="M839.726 337.063L820.5 341.961L819.512 338.085L821.451 337.591C821.315 337.543 820.401 337.198 819.671 336.6C818.931 335.963 818.432 335.14 818.175 334.133C817.761 332.505 818.299 331.377 818.839 330.744C819.534 329.906 820.657 329.455 821.588 329.218L836.744 325.357L837.731 329.233L824.126 332.699C823.583 332.837 822.973 333.034 822.616 333.579C822.443 333.871 822.27 334.328 822.428 334.948C822.606 335.646 823.064 336.148 823.541 336.398C824.309 336.822 825.055 336.673 825.559 336.544L838.738 333.187L839.726 337.063Z" fill="white"/>
<path d="M840.673 341.217L841.527 345.125L839.456 345.577L839.434 345.664C841.777 346.831 842.677 348.886 842.975 350.254L838.794 351.168C838.697 349.224 837.502 346.004 833.242 346.935L822.144 349.361L821.29 345.454L840.673 341.217Z" fill="white"/>
<path d="M851.008 362.137L851.667 366.082L845.71 367.077L846.131 369.602L842.975 370.129L842.553 367.604L831.822 369.397C831.428 369.463 830.606 369.641 830.257 370.226C829.975 370.719 830.087 371.39 830.146 371.745L830.232 372.258L826.563 372.871L826.385 371.806C826.194 370.662 825.917 368.761 827.054 367.314C828.053 366.012 829.624 365.709 830.808 365.511L841.894 363.659L841.558 361.647L844.715 361.12L845.051 363.132L851.008 362.137Z" fill="white"/>
<path d="M827.008 375.941L846.646 373.123L847.215 377.083L827.576 379.901L827.008 375.941ZM854.169 372.044L854.737 376.003L850.857 376.56L850.289 372.601L854.169 372.044Z" fill="white"/>
<path d="M847.851 381.077L848.266 385.055L846.476 385.242C846.991 385.55 847.478 385.982 847.838 386.346C848.426 386.969 848.875 387.806 848.996 388.96C849.075 389.716 848.951 390.453 848.584 391.175C848.181 391.941 847.63 392.441 847.023 392.786C847.785 393.149 848.523 393.675 848.996 394.349C849.464 394.984 849.694 395.644 849.781 396.479C849.91 397.713 849.853 399.086 848.564 400.226C847.533 401.138 846.269 401.351 845.234 401.459L830.196 403.03L829.78 399.051L843.744 397.593C844.262 397.539 844.81 397.401 845.282 396.909C845.678 396.466 845.791 396.011 845.737 395.494C845.675 394.897 845.426 394.441 844.947 394.089C844.248 393.558 843.528 393.593 842.891 393.66L829.365 395.073L828.949 391.095L842.913 389.636C843.43 389.582 843.943 389.488 844.45 388.952C844.811 388.553 844.968 388.134 844.906 387.537C844.856 387.06 844.683 386.555 844.116 386.132C843.417 385.602 842.696 385.637 842.06 385.703L828.534 387.116L828.118 383.138L847.851 381.077Z" fill="white"/>
<path d="M839.021 410.25L836.464 410.388C835.865 410.42 835.228 410.495 834.775 411C834.433 411.339 834.263 411.909 834.298 412.548C834.334 413.227 834.602 413.733 835.223 414.1C835.635 414.318 836.161 414.41 836.6 414.386L836.816 418.38L836.657 418.389C835.179 418.469 833.206 418.295 831.703 416.414C830.93 415.454 830.457 414.118 830.383 412.76C830.284 410.922 830.95 409.164 832.052 408.063C833.534 406.58 835.569 406.43 836.768 406.366L844.356 405.955C845.754 405.88 847.727 406.053 849.255 407.653C850.104 408.529 850.736 409.856 850.827 411.534C850.92 413.251 850.439 414.72 849.614 415.766C848.191 417.605 846.207 417.953 844.649 418.037L839.457 418.318L839.021 410.25ZM842.096 410.083L842.316 414.157L844.913 414.017C845.432 413.989 845.987 413.879 846.44 413.374C846.742 413.037 846.954 412.505 846.919 411.865C846.883 411.186 846.573 410.642 846.156 410.344C845.655 409.971 845.052 409.923 844.532 409.952L842.096 410.083Z" fill="white"/>
<path d="M859.077 420.852L859.207 425.65L838.19 425.298L838.104 422.099L859.077 420.852ZM835.488 421.569L835.607 425.968L831.209 426.087L831.09 421.688L835.488 421.569Z" fill="white"/>
</svg>
