<svg width="40" height="32" viewBox="0 0 40 32" fill="none" xmlns="http://www.w3.org/2000/svg">
<path d="M40 3.73355C38.529 4.34729 36.9283 4.78899 35.2794 4.96102C36.9913 3.97735 38.2732 2.42333 38.8847 0.590504C37.2784 1.51477 35.5186 2.16288 33.6834 2.50609C32.9165 1.71301 31.9888 1.08121 30.9583 0.650052C29.9278 0.218894 28.8166 -0.00237953 27.6938 1.92972e-05C23.1511 1.92972e-05 19.4977 3.56152 19.4977 7.93204C19.4977 8.54577 19.5746 9.1595 19.6996 9.74999C12.8975 9.40592 6.83091 6.26287 2.79774 1.45066C2.06285 2.66471 1.67775 4.04705 1.68249 5.45386C1.68249 8.20636 3.12943 10.6334 5.3359 12.0608C4.03559 12.0112 2.76574 11.6656 1.62961 11.0518V11.1495C1.62961 15.0039 4.44658 18.1981 8.20094 18.9327C7.49602 19.1098 6.77085 19.2004 6.04254 19.2024C5.50895 19.2024 5.00421 19.1512 4.49465 19.0815C5.53299 22.2246 8.55666 24.5074 12.1572 24.5818C9.34022 26.716 5.8118 27.9713 1.98053 27.9713C1.29311 27.9713 0.658575 27.9481 0 27.8737C3.63418 30.1287 7.94616 31.4305 12.5898 31.4305C27.6649 31.4305 35.914 19.3512 35.914 8.86658C35.914 8.52252 35.914 8.17846 35.8899 7.8344C37.4859 6.70457 38.8848 5.30508 40 3.73355Z" fill="white"/>
</svg>
