<svg width="23556" height="462" viewBox="0 0 23556 462" fill="none" xmlns="http://www.w3.org/2000/svg">
<path d="M0.6 6.99997H68.44L104.28 286.04H106.84L158.04 6.99997H206.04L257.24 286.04H261.08L295.64 6.99997H363.48L293.08 455H235.48L184.28 165.72H179.8L128.6 455H71L0.6 6.99997ZM391.69 337.24V124.76C391.69 90.84 394.25 58.2 424.97 29.4C444.17 11.48 470.41 0.599976 503.69 0.599976C536.97 0.599976 563.21 11.48 582.41 29.4C613.13 58.2 615.69 90.84 615.69 124.76V337.24C615.69 371.16 613.13 403.8 582.41 432.6C563.21 450.52 536.97 461.4 503.69 461.4C470.41 461.4 444.17 450.52 424.97 432.6C394.25 403.8 391.69 371.16 391.69 337.24ZM551.69 346.84V115.16C551.69 101.72 550.41 88.28 538.25 76.12C531.21 69.08 519.69 63.32 503.69 63.32C487.69 63.32 476.17 69.08 469.13 76.12C456.97 88.28 455.69 101.72 455.69 115.16V346.84C455.69 360.28 456.97 373.72 469.13 385.88C476.17 392.92 487.69 398.68 503.69 398.68C519.69 398.68 531.21 392.92 538.25 385.88C550.41 373.72 551.69 360.28 551.69 346.84ZM683.475 6.99997H767.315C799.955 6.99997 847.315 5.07999 877.395 42.2C892.115 60.12 901.075 87 901.075 120.28V154.2C901.075 183 890.835 209.88 877.395 225.24C867.795 236.12 854.995 243.8 843.475 248.28L913.875 455H847.315L785.235 261.72H747.475V455H683.475V6.99997ZM747.475 64.6V204.12H783.955C798.035 204.12 811.475 200.92 823.635 189.4C836.435 177.24 837.075 166.36 837.075 149.08V117.08C837.075 99.8 830.675 84.44 822.355 76.12C809.555 63.32 794.195 64.6 780.755 64.6H747.475ZM962.075 6.99997H1026.07V222.68L1127.83 6.99997H1195.04L1104.15 190.68L1211.67 455H1141.92L1065.75 254.68L1026.07 323.8V455H962.075V6.99997ZM1384.14 131.16V119C1384.14 109.4 1383.5 90.84 1373.26 78.04C1367.5 71 1357.9 63.32 1339.34 63.32C1330.38 63.32 1318.22 65.24 1307.98 75.48C1295.82 88.28 1294.54 106.2 1294.54 120.92C1294.54 133.08 1296.46 155.48 1304.78 167.64C1311.82 178.52 1324.62 183.64 1334.22 187.48L1373.26 201.56C1392.46 208.6 1414.86 216.92 1431.5 239.96C1448.78 263.64 1450.7 289.24 1450.7 317.4V332.76C1450.7 378.2 1438.54 412.76 1419.98 431.96C1403.34 449.24 1373.9 461.4 1336.78 461.4C1291.34 461.4 1261.9 442.84 1247.18 422.36C1226.7 394.84 1226.7 352.6 1226.7 346.84V332.12H1290.7V344.28C1290.7 354.52 1291.98 372.44 1300.94 383.96C1311.82 397.4 1327.82 398.68 1336.14 398.68C1360.46 398.68 1371.34 389.08 1376.46 382.68C1386.06 370.52 1386.7 351.96 1386.7 338.52V321.88C1386.7 306.52 1384.78 287.32 1376.46 275.8C1368.14 264.28 1352.78 258.52 1345.74 255.96L1299.02 239.32C1275.98 231 1252.94 219.48 1240.14 189.4C1231.18 168.92 1230.54 146.52 1230.54 124.12V111.32C1230.54 74.2 1245.26 46.04 1263.82 28.12C1284.94 7.63996 1311.82 0.599976 1341.26 0.599976C1405.26 0.599976 1448.14 42.2 1448.14 116.44V131.16H1384.14ZM1474.23 6.99997H1542.07L1577.91 286.04H1580.47L1631.67 6.99997H1679.67L1730.87 286.04H1734.71L1769.27 6.99997H1837.11L1766.71 455H1709.11L1657.91 165.72H1653.43L1602.23 455H1544.62L1474.23 6.99997ZM1865.31 337.24V124.76C1865.31 90.84 1867.87 58.2 1898.59 29.4C1917.79 11.48 1944.03 0.599976 1977.31 0.599976C2010.59 0.599976 2036.83 11.48 2056.03 29.4C2086.75 58.2 2089.31 90.84 2089.31 124.76V337.24C2089.31 371.16 2086.75 403.8 2056.03 432.6C2036.83 450.52 2010.59 461.4 1977.31 461.4C1944.03 461.4 1917.79 450.52 1898.59 432.6C1867.87 403.8 1865.31 371.16 1865.31 337.24ZM2025.31 346.84V115.16C2025.31 101.72 2024.03 88.28 2011.87 76.12C2004.83 69.08 1993.31 63.32 1977.31 63.32C1961.31 63.32 1949.79 69.08 1942.75 76.12C1930.59 88.28 1929.31 101.72 1929.31 115.16V346.84C1929.31 360.28 1930.59 373.72 1942.75 385.88C1949.79 392.92 1961.31 398.68 1977.31 398.68C1993.31 398.68 2004.83 392.92 2011.87 385.88C2024.03 373.72 2025.31 360.28 2025.31 346.84ZM2157.1 6.99997H2240.94C2273.58 6.99997 2320.94 5.07999 2351.02 42.2C2365.74 60.12 2374.7 87 2374.7 120.28V154.2C2374.7 183 2364.46 209.88 2351.02 225.24C2341.42 236.12 2328.62 243.8 2317.1 248.28L2387.5 455H2320.94L2258.86 261.72H2221.1V455H2157.1V6.99997ZM2221.1 64.6V204.12H2257.58C2271.66 204.12 2285.1 200.92 2297.26 189.4C2310.06 177.24 2310.7 166.36 2310.7 149.08V117.08C2310.7 99.8 2304.3 84.44 2295.98 76.12C2283.18 63.32 2267.82 64.6 2254.38 64.6H2221.1ZM2435.7 6.99997H2499.7V222.68L2601.46 6.99997H2668.66L2577.78 190.68L2685.3 455H2615.54L2539.38 254.68L2499.7 323.8V455H2435.7V6.99997ZM2857.76 131.16V119C2857.76 109.4 2857.12 90.84 2846.88 78.04C2841.12 71 2831.52 63.32 2812.96 63.32C2804 63.32 2791.84 65.24 2781.6 75.48C2769.44 88.28 2768.16 106.2 2768.16 120.92C2768.16 133.08 2770.08 155.48 2778.4 167.64C2785.44 178.52 2798.24 183.64 2807.84 187.48L2846.88 201.56C2866.08 208.6 2888.48 216.92 2905.12 239.96C2922.4 263.64 2924.32 289.24 2924.32 317.4V332.76C2924.32 378.2 2912.16 412.76 2893.6 431.96C2876.96 449.24 2847.52 461.4 2810.4 461.4C2764.96 461.4 2735.52 442.84 2720.8 422.36C2700.32 394.84 2700.32 352.6 2700.32 346.84V332.12H2764.32V344.28C2764.32 354.52 2765.6 372.44 2774.56 383.96C2785.44 397.4 2801.44 398.68 2809.76 398.68C2834.08 398.68 2844.96 389.08 2850.08 382.68C2859.68 370.52 2860.32 351.96 2860.32 338.52V321.88C2860.32 306.52 2858.4 287.32 2850.08 275.8C2841.76 264.28 2826.4 258.52 2819.36 255.96L2772.64 239.32C2749.6 231 2726.56 219.48 2713.76 189.4C2704.8 168.92 2704.16 146.52 2704.16 124.12V111.32C2704.16 74.2 2718.88 46.04 2737.44 28.12C2758.56 7.63996 2785.44 0.599976 2814.88 0.599976C2878.88 0.599976 2921.76 42.2 2921.76 116.44V131.16H2857.76ZM2947.85 6.99997H3015.69L3051.53 286.04H3054.09L3105.29 6.99997H3153.29L3204.49 286.04H3208.33L3242.89 6.99997H3310.73L3240.33 455H3182.73L3131.53 165.72H3127.05L3075.85 455H3018.25L2947.85 6.99997ZM3338.94 337.24V124.76C3338.94 90.84 3341.5 58.2 3372.22 29.4C3391.42 11.48 3417.66 0.599976 3450.94 0.599976C3484.22 0.599976 3510.46 11.48 3529.66 29.4C3560.38 58.2 3562.94 90.84 3562.94 124.76V337.24C3562.94 371.16 3560.38 403.8 3529.66 432.6C3510.46 450.52 3484.22 461.4 3450.94 461.4C3417.66 461.4 3391.42 450.52 3372.22 432.6C3341.5 403.8 3338.94 371.16 3338.94 337.24ZM3498.94 346.84V115.16C3498.94 101.72 3497.66 88.28 3485.5 76.12C3478.46 69.08 3466.94 63.32 3450.94 63.32C3434.94 63.32 3423.42 69.08 3416.38 76.12C3404.22 88.28 3402.94 101.72 3402.94 115.16V346.84C3402.94 360.28 3404.22 373.72 3416.38 385.88C3423.42 392.92 3434.94 398.68 3450.94 398.68C3466.94 398.68 3478.46 392.92 3485.5 385.88C3497.66 373.72 3498.94 360.28 3498.94 346.84ZM3630.72 6.99997H3714.56C3747.2 6.99997 3794.56 5.07999 3824.64 42.2C3839.36 60.12 3848.32 87 3848.32 120.28V154.2C3848.32 183 3838.08 209.88 3824.64 225.24C3815.04 236.12 3802.24 243.8 3790.72 248.28L3861.12 455H3794.56L3732.48 261.72H3694.72V455H3630.72V6.99997ZM3694.72 64.6V204.12H3731.2C3745.28 204.12 3758.72 200.92 3770.88 189.4C3783.68 177.24 3784.32 166.36 3784.32 149.08V117.08C3784.32 99.8 3777.92 84.44 3769.6 76.12C3756.8 63.32 3741.44 64.6 3728 64.6H3694.72ZM3909.33 6.99997H3973.33V222.68L4075.09 6.99997H4142.29L4051.41 190.68L4158.93 455H4089.17L4013.01 254.68L3973.33 323.8V455H3909.33V6.99997ZM4331.39 131.16V119C4331.39 109.4 4330.75 90.84 4320.51 78.04C4314.75 71 4305.15 63.32 4286.59 63.32C4277.63 63.32 4265.47 65.24 4255.23 75.48C4243.07 88.28 4241.79 106.2 4241.79 120.92C4241.79 133.08 4243.71 155.48 4252.03 167.64C4259.07 178.52 4271.87 183.64 4281.47 187.48L4320.51 201.56C4339.71 208.6 4362.11 216.92 4378.75 239.96C4396.03 263.64 4397.95 289.24 4397.95 317.4V332.76C4397.95 378.2 4385.79 412.76 4367.23 431.96C4350.59 449.24 4321.15 461.4 4284.03 461.4C4238.59 461.4 4209.15 442.84 4194.43 422.36C4173.95 394.84 4173.95 352.6 4173.95 346.84V332.12H4237.95V344.28C4237.95 354.52 4239.23 372.44 4248.19 383.96C4259.07 397.4 4275.07 398.68 4283.39 398.68C4307.71 398.68 4318.59 389.08 4323.71 382.68C4333.31 370.52 4333.95 351.96 4333.95 338.52V321.88C4333.95 306.52 4332.03 287.32 4323.71 275.8C4315.39 264.28 4300.03 258.52 4292.99 255.96L4246.27 239.32C4223.23 231 4200.19 219.48 4187.39 189.4C4178.43 168.92 4177.79 146.52 4177.79 124.12V111.32C4177.79 74.2 4192.51 46.04 4211.07 28.12C4232.19 7.63996 4259.07 0.599976 4288.51 0.599976C4352.51 0.599976 4395.39 42.2 4395.39 116.44V131.16H4331.39ZM4421.48 6.99997H4489.32L4525.16 286.04H4527.72L4578.92 6.99997H4626.92L4678.12 286.04H4681.96L4716.52 6.99997H4784.36L4713.96 455H4656.36L4605.16 165.72H4600.68L4549.48 455H4491.88L4421.48 6.99997ZM4812.57 337.24V124.76C4812.57 90.84 4815.13 58.2 4845.85 29.4C4865.05 11.48 4891.29 0.599976 4924.57 0.599976C4957.85 0.599976 4984.09 11.48 5003.29 29.4C5034.01 58.2 5036.57 90.84 5036.57 124.76V337.24C5036.57 371.16 5034.01 403.8 5003.29 432.6C4984.09 450.52 4957.85 461.4 4924.57 461.4C4891.29 461.4 4865.05 450.52 4845.85 432.6C4815.13 403.8 4812.57 371.16 4812.57 337.24ZM4972.57 346.84V115.16C4972.57 101.72 4971.29 88.28 4959.13 76.12C4952.09 69.08 4940.57 63.32 4924.57 63.32C4908.57 63.32 4897.05 69.08 4890.01 76.12C4877.85 88.28 4876.57 101.72 4876.57 115.16V346.84C4876.57 360.28 4877.85 373.72 4890.01 385.88C4897.05 392.92 4908.57 398.68 4924.57 398.68C4940.57 398.68 4952.09 392.92 4959.13 385.88C4971.29 373.72 4972.57 360.28 4972.57 346.84ZM5104.35 6.99997H5188.19C5220.83 6.99997 5268.19 5.07999 5298.27 42.2C5312.99 60.12 5321.95 87 5321.95 120.28V154.2C5321.95 183 5311.71 209.88 5298.27 225.24C5288.67 236.12 5275.87 243.8 5264.35 248.28L5334.75 455H5268.19L5206.11 261.72H5168.35V455H5104.35V6.99997ZM5168.35 64.6V204.12H5204.83C5218.91 204.12 5232.35 200.92 5244.51 189.4C5257.31 177.24 5257.95 166.36 5257.95 149.08V117.08C5257.95 99.8 5251.55 84.44 5243.23 76.12C5230.43 63.32 5215.07 64.6 5201.63 64.6H5168.35ZM5382.95 6.99997H5446.95V222.68L5548.71 6.99997H5615.91L5525.03 190.68L5632.55 455H5562.79L5486.63 254.68L5446.95 323.8V455H5382.95V6.99997ZM5805.01 131.16V119C5805.01 109.4 5804.37 90.84 5794.13 78.04C5788.37 71 5778.77 63.32 5760.21 63.32C5751.25 63.32 5739.09 65.24 5728.85 75.48C5716.69 88.28 5715.41 106.2 5715.41 120.92C5715.41 133.08 5717.33 155.48 5725.65 167.64C5732.69 178.52 5745.49 183.64 5755.09 187.48L5794.13 201.56C5813.33 208.6 5835.73 216.92 5852.37 239.96C5869.65 263.64 5871.57 289.24 5871.57 317.4V332.76C5871.57 378.2 5859.41 412.76 5840.85 431.96C5824.21 449.24 5794.77 461.4 5757.65 461.4C5712.21 461.4 5682.77 442.84 5668.05 422.36C5647.57 394.84 5647.57 352.6 5647.57 346.84V332.12H5711.57V344.28C5711.57 354.52 5712.85 372.44 5721.81 383.96C5732.69 397.4 5748.69 398.68 5757.01 398.68C5781.33 398.68 5792.21 389.08 5797.33 382.68C5806.93 370.52 5807.57 351.96 5807.57 338.52V321.88C5807.57 306.52 5805.65 287.32 5797.33 275.8C5789.01 264.28 5773.65 258.52 5766.61 255.96L5719.89 239.32C5696.85 231 5673.81 219.48 5661.01 189.4C5652.05 168.92 5651.41 146.52 5651.41 124.12V111.32C5651.41 74.2 5666.13 46.04 5684.69 28.12C5705.81 7.63996 5732.69 0.599976 5762.13 0.599976C5826.13 0.599976 5869.01 42.2 5869.01 116.44V131.16H5805.01ZM5895.1 6.99997H5962.94L5998.78 286.04H6001.34L6052.54 6.99997H6100.54L6151.74 286.04H6155.58L6190.14 6.99997H6257.98L6187.58 455H6129.98L6078.78 165.72H6074.3L6023.1 455H5965.5L5895.1 6.99997ZM6286.19 337.24V124.76C6286.19 90.84 6288.75 58.2 6319.47 29.4C6338.67 11.48 6364.91 0.599976 6398.19 0.599976C6431.47 0.599976 6457.71 11.48 6476.91 29.4C6507.63 58.2 6510.19 90.84 6510.19 124.76V337.24C6510.19 371.16 6507.63 403.8 6476.91 432.6C6457.71 450.52 6431.47 461.4 6398.19 461.4C6364.91 461.4 6338.67 450.52 6319.47 432.6C6288.75 403.8 6286.19 371.16 6286.19 337.24ZM6446.19 346.84V115.16C6446.19 101.72 6444.91 88.28 6432.75 76.12C6425.71 69.08 6414.19 63.32 6398.19 63.32C6382.19 63.32 6370.67 69.08 6363.63 76.12C6351.47 88.28 6350.19 101.72 6350.19 115.16V346.84C6350.19 360.28 6351.47 373.72 6363.63 385.88C6370.67 392.92 6382.19 398.68 6398.19 398.68C6414.19 398.68 6425.71 392.92 6432.75 385.88C6444.91 373.72 6446.19 360.28 6446.19 346.84ZM6577.98 6.99997H6661.82C6694.46 6.99997 6741.82 5.07999 6771.9 42.2C6786.62 60.12 6795.58 87 6795.58 120.28V154.2C6795.58 183 6785.34 209.88 6771.9 225.24C6762.3 236.12 6749.5 243.8 6737.98 248.28L6808.38 455H6741.82L6679.74 261.72H6641.98V455H6577.98V6.99997ZM6641.98 64.6V204.12H6678.46C6692.54 204.12 6705.98 200.92 6718.14 189.4C6730.94 177.24 6731.58 166.36 6731.58 149.08V117.08C6731.58 99.8 6725.18 84.44 6716.86 76.12C6704.06 63.32 6688.7 64.6 6675.26 64.6H6641.98ZM6856.57 6.99997H6920.57V222.68L7022.33 6.99997H7089.53L6998.65 190.68L7106.17 455H7036.41L6960.25 254.68L6920.57 323.8V455H6856.57V6.99997ZM7278.64 131.16V119C7278.64 109.4 7278 90.84 7267.76 78.04C7262 71 7252.4 63.32 7233.84 63.32C7224.88 63.32 7212.72 65.24 7202.48 75.48C7190.32 88.28 7189.04 106.2 7189.04 120.92C7189.04 133.08 7190.96 155.48 7199.28 167.64C7206.32 178.52 7219.12 183.64 7228.72 187.48L7267.76 201.56C7286.96 208.6 7309.36 216.92 7326 239.96C7343.28 263.64 7345.2 289.24 7345.2 317.4V332.76C7345.2 378.2 7333.04 412.76 7314.48 431.96C7297.84 449.24 7268.4 461.4 7231.28 461.4C7185.84 461.4 7156.4 442.84 7141.68 422.36C7121.2 394.84 7121.2 352.6 7121.2 346.84V332.12H7185.2V344.28C7185.2 354.52 7186.48 372.44 7195.44 383.96C7206.32 397.4 7222.32 398.68 7230.64 398.68C7254.96 398.68 7265.84 389.08 7270.96 382.68C7280.56 370.52 7281.2 351.96 7281.2 338.52V321.88C7281.2 306.52 7279.28 287.32 7270.96 275.8C7262.64 264.28 7247.28 258.52 7240.24 255.96L7193.52 239.32C7170.48 231 7147.44 219.48 7134.64 189.4C7125.68 168.92 7125.04 146.52 7125.04 124.12V111.32C7125.04 74.2 7139.76 46.04 7158.32 28.12C7179.44 7.63996 7206.32 0.599976 7235.76 0.599976C7299.76 0.599976 7342.64 42.2 7342.64 116.44V131.16H7278.64ZM7368.73 6.99997H7436.57L7472.41 286.04H7474.97L7526.17 6.99997H7574.17L7625.37 286.04H7629.21L7663.77 6.99997H7731.61L7661.21 455H7603.61L7552.41 165.72H7547.93L7496.73 455H7439.12L7368.73 6.99997ZM7759.82 337.24V124.76C7759.82 90.84 7762.38 58.2 7793.1 29.4C7812.3 11.48 7838.54 0.599976 7871.82 0.599976C7905.1 0.599976 7931.34 11.48 7950.54 29.4C7981.26 58.2 7983.82 90.84 7983.82 124.76V337.24C7983.82 371.16 7981.26 403.8 7950.54 432.6C7931.34 450.52 7905.1 461.4 7871.82 461.4C7838.54 461.4 7812.3 450.52 7793.1 432.6C7762.38 403.8 7759.82 371.16 7759.82 337.24ZM7919.82 346.84V115.16C7919.82 101.72 7918.54 88.28 7906.38 76.12C7899.34 69.08 7887.82 63.32 7871.82 63.32C7855.82 63.32 7844.3 69.08 7837.26 76.12C7825.1 88.28 7823.82 101.72 7823.82 115.16V346.84C7823.82 360.28 7825.1 373.72 7837.26 385.88C7844.3 392.92 7855.82 398.68 7871.82 398.68C7887.82 398.68 7899.34 392.92 7906.38 385.88C7918.54 373.72 7919.82 360.28 7919.82 346.84ZM8051.6 6.99997H8135.44C8168.08 6.99997 8215.44 5.07999 8245.52 42.2C8260.24 60.12 8269.2 87 8269.2 120.28V154.2C8269.2 183 8258.96 209.88 8245.52 225.24C8235.92 236.12 8223.12 243.8 8211.6 248.28L8282 455H8215.44L8153.36 261.72H8115.6V455H8051.6V6.99997ZM8115.6 64.6V204.12H8152.08C8166.16 204.12 8179.6 200.92 8191.76 189.4C8204.56 177.24 8205.2 166.36 8205.2 149.08V117.08C8205.2 99.8 8198.8 84.44 8190.48 76.12C8177.68 63.32 8162.32 64.6 8148.88 64.6H8115.6ZM8330.2 6.99997H8394.2V222.68L8495.96 6.99997H8563.16L8472.28 190.68L8579.8 455H8510.04L8433.88 254.68L8394.2 323.8V455H8330.2V6.99997ZM8752.27 131.16V119C8752.27 109.4 8751.63 90.84 8741.39 78.04C8735.63 71 8726.03 63.32 8707.47 63.32C8698.51 63.32 8686.35 65.24 8676.11 75.48C8663.95 88.28 8662.67 106.2 8662.67 120.92C8662.67 133.08 8664.59 155.48 8672.91 167.64C8679.95 178.52 8692.75 183.64 8702.35 187.48L8741.39 201.56C8760.59 208.6 8782.99 216.92 8799.63 239.96C8816.91 263.64 8818.83 289.24 8818.83 317.4V332.76C8818.83 378.2 8806.67 412.76 8788.11 431.96C8771.47 449.24 8742.03 461.4 8704.91 461.4C8659.47 461.4 8630.03 442.84 8615.31 422.36C8594.83 394.84 8594.83 352.6 8594.83 346.84V332.12H8658.83V344.28C8658.83 354.52 8660.11 372.44 8669.07 383.96C8679.95 397.4 8695.95 398.68 8704.27 398.68C8728.59 398.68 8739.47 389.08 8744.59 382.68C8754.19 370.52 8754.83 351.96 8754.83 338.52V321.88C8754.83 306.52 8752.91 287.32 8744.59 275.8C8736.27 264.28 8720.91 258.52 8713.87 255.96L8667.15 239.32C8644.11 231 8621.07 219.48 8608.27 189.4C8599.31 168.92 8598.67 146.52 8598.67 124.12V111.32C8598.67 74.2 8613.39 46.04 8631.95 28.12C8653.07 7.63996 8679.95 0.599976 8709.39 0.599976C8773.39 0.599976 8816.27 42.2 8816.27 116.44V131.16H8752.27ZM8842.35 6.99997H8910.19L8946.03 286.04H8948.59L8999.79 6.99997H9047.79L9098.99 286.04H9102.83L9137.39 6.99997H9205.23L9134.83 455H9077.23L9026.03 165.72H9021.55L8970.35 455H8912.75L8842.35 6.99997ZM9233.44 337.24V124.76C9233.44 90.84 9236 58.2 9266.72 29.4C9285.92 11.48 9312.16 0.599976 9345.44 0.599976C9378.72 0.599976 9404.96 11.48 9424.16 29.4C9454.88 58.2 9457.44 90.84 9457.44 124.76V337.24C9457.44 371.16 9454.88 403.8 9424.16 432.6C9404.96 450.52 9378.72 461.4 9345.44 461.4C9312.16 461.4 9285.92 450.52 9266.72 432.6C9236 403.8 9233.44 371.16 9233.44 337.24ZM9393.44 346.84V115.16C9393.44 101.72 9392.16 88.28 9380 76.12C9372.96 69.08 9361.44 63.32 9345.44 63.32C9329.44 63.32 9317.92 69.08 9310.88 76.12C9298.72 88.28 9297.44 101.72 9297.44 115.16V346.84C9297.44 360.28 9298.72 373.72 9310.88 385.88C9317.92 392.92 9329.44 398.68 9345.44 398.68C9361.44 398.68 9372.96 392.92 9380 385.88C9392.16 373.72 9393.44 360.28 9393.44 346.84ZM9525.23 6.99997H9609.07C9641.71 6.99997 9689.07 5.07999 9719.15 42.2C9733.87 60.12 9742.83 87 9742.83 120.28V154.2C9742.83 183 9732.59 209.88 9719.15 225.24C9709.55 236.12 9696.75 243.8 9685.23 248.28L9755.63 455H9689.07L9626.99 261.72H9589.23V455H9525.23V6.99997ZM9589.23 64.6V204.12H9625.71C9639.79 204.12 9653.23 200.92 9665.39 189.4C9678.19 177.24 9678.83 166.36 9678.83 149.08V117.08C9678.83 99.8 9672.43 84.44 9664.11 76.12C9651.31 63.32 9635.95 64.6 9622.51 64.6H9589.23ZM9803.82 6.99997H9867.82V222.68L9969.58 6.99997H10036.8L9945.9 190.68L10053.4 455H9983.66L9907.5 254.68L9867.82 323.8V455H9803.82V6.99997ZM10225.9 131.16V119C10225.9 109.4 10225.3 90.84 10215 78.04C10209.3 71 10199.7 63.32 10181.1 63.32C10172.1 63.32 10160 65.24 10149.7 75.48C10137.6 88.28 10136.3 106.2 10136.3 120.92C10136.3 133.08 10138.2 155.48 10146.5 167.64C10153.6 178.52 10166.4 183.64 10176 187.48L10215 201.56C10234.2 208.6 10256.6 216.92 10273.3 239.96C10290.5 263.64 10292.5 289.24 10292.5 317.4V332.76C10292.5 378.2 10280.3 412.76 10261.7 431.96C10245.1 449.24 10215.7 461.4 10178.5 461.4C10133.1 461.4 10103.7 442.84 10088.9 422.36C10068.5 394.84 10068.5 352.6 10068.5 346.84V332.12H10132.5V344.28C10132.5 354.52 10133.7 372.44 10142.7 383.96C10153.6 397.4 10169.6 398.68 10177.9 398.68C10202.2 398.68 10213.1 389.08 10218.2 382.68C10227.8 370.52 10228.5 351.96 10228.5 338.52V321.88C10228.5 306.52 10226.5 287.32 10218.2 275.8C10209.9 264.28 10194.5 258.52 10187.5 255.96L10140.8 239.32C10117.7 231 10094.7 219.48 10081.9 189.4C10072.9 168.92 10072.3 146.52 10072.3 124.12V111.32C10072.3 74.2 10087 46.04 10105.6 28.12C10126.7 7.63996 10153.6 0.599976 10183 0.599976C10247 0.599976 10289.9 42.2 10289.9 116.44V131.16H10225.9ZM10316 6.99997H10383.8L10419.7 286.04H10422.2L10473.4 6.99997H10521.4L10572.6 286.04H10576.5L10611 6.99997H10678.9L10608.5 455H10550.9L10499.7 165.72H10495.2L10444 455H10386.4L10316 6.99997ZM10707.1 337.24V124.76C10707.1 90.84 10709.6 58.2 10740.3 29.4C10759.5 11.48 10785.8 0.599976 10819.1 0.599976C10852.3 0.599976 10878.6 11.48 10897.8 29.4C10928.5 58.2 10931.1 90.84 10931.1 124.76V337.24C10931.1 371.16 10928.5 403.8 10897.8 432.6C10878.6 450.52 10852.3 461.4 10819.1 461.4C10785.8 461.4 10759.5 450.52 10740.3 432.6C10709.6 403.8 10707.1 371.16 10707.1 337.24ZM10867.1 346.84V115.16C10867.1 101.72 10865.8 88.28 10853.6 76.12C10846.6 69.08 10835.1 63.32 10819.1 63.32C10803.1 63.32 10791.5 69.08 10784.5 76.12C10772.3 88.28 10771.1 101.72 10771.1 115.16V346.84C10771.1 360.28 10772.3 373.72 10784.5 385.88C10791.5 392.92 10803.1 398.68 10819.1 398.68C10835.1 398.68 10846.6 392.92 10853.6 385.88C10865.8 373.72 10867.1 360.28 10867.1 346.84ZM10998.9 6.99997H11082.7C11115.3 6.99997 11162.7 5.07999 11192.8 42.2C11207.5 60.12 11216.5 87 11216.5 120.28V154.2C11216.5 183 11206.2 209.88 11192.8 225.24C11183.2 236.12 11170.4 243.8 11158.9 248.28L11229.3 455H11162.7L11100.6 261.72H11062.9V455H10998.9V6.99997ZM11062.9 64.6V204.12H11099.3C11113.4 204.12 11126.9 200.92 11139 189.4C11151.8 177.24 11152.5 166.36 11152.5 149.08V117.08C11152.5 99.8 11146.1 84.44 11137.7 76.12C11124.9 63.32 11109.6 64.6 11096.1 64.6H11062.9ZM11277.4 6.99997H11341.4V222.68L11443.2 6.99997H11510.4L11419.5 190.68L11527 455H11457.3L11381.1 254.68L11341.4 323.8V455H11277.4V6.99997ZM11699.5 131.16V119C11699.5 109.4 11698.9 90.84 11688.6 78.04C11682.9 71 11673.3 63.32 11654.7 63.32C11645.8 63.32 11633.6 65.24 11623.4 75.48C11611.2 88.28 11609.9 106.2 11609.9 120.92C11609.9 133.08 11611.8 155.48 11620.2 167.64C11627.2 178.52 11640 183.64 11649.6 187.48L11688.6 201.56C11707.8 208.6 11730.2 216.92 11746.9 239.96C11764.2 263.64 11766.1 289.24 11766.1 317.4V332.76C11766.1 378.2 11753.9 412.76 11735.4 431.96C11718.7 449.24 11689.3 461.4 11652.2 461.4C11606.7 461.4 11577.3 442.84 11562.6 422.36C11542.1 394.84 11542.1 352.6 11542.1 346.84V332.12H11606.1V344.28C11606.1 354.52 11607.4 372.44 11616.3 383.96C11627.2 397.4 11643.2 398.68 11651.5 398.68C11675.8 398.68 11686.7 389.08 11691.8 382.68C11701.4 370.52 11702.1 351.96 11702.1 338.52V321.88C11702.1 306.52 11700.2 287.32 11691.8 275.8C11683.5 264.28 11668.2 258.52 11661.1 255.96L11614.4 239.32C11591.4 231 11568.3 219.48 11555.5 189.4C11546.6 168.92 11545.9 146.52 11545.9 124.12V111.32C11545.9 74.2 11560.6 46.04 11579.2 28.12C11600.3 7.63996 11627.2 0.599976 11656.6 0.599976C11720.6 0.599976 11763.5 42.2 11763.5 116.44V131.16H11699.5ZM11789.6 6.99997H11857.4L11893.3 286.04H11895.8L11947 6.99997H11995L12046.2 286.04H12050.1L12084.6 6.99997H12152.5L12082.1 455H12024.5L11973.3 165.72H11968.8L11917.6 455H11860L11789.6 6.99997ZM12180.7 337.24V124.76C12180.7 90.84 12183.2 58.2 12214 29.4C12233.2 11.48 12259.4 0.599976 12292.7 0.599976C12326 0.599976 12352.2 11.48 12371.4 29.4C12402.1 58.2 12404.7 90.84 12404.7 124.76V337.24C12404.7 371.16 12402.1 403.8 12371.4 432.6C12352.2 450.52 12326 461.4 12292.7 461.4C12259.4 461.4 12233.2 450.52 12214 432.6C12183.2 403.8 12180.7 371.16 12180.7 337.24ZM12340.7 346.84V115.16C12340.7 101.72 12339.4 88.28 12327.2 76.12C12320.2 69.08 12308.7 63.32 12292.7 63.32C12276.7 63.32 12265.2 69.08 12258.1 76.12C12246 88.28 12244.7 101.72 12244.7 115.16V346.84C12244.7 360.28 12246 373.72 12258.1 385.88C12265.2 392.92 12276.7 398.68 12292.7 398.68C12308.7 398.68 12320.2 392.92 12327.2 385.88C12339.4 373.72 12340.7 360.28 12340.7 346.84ZM12472.5 6.99997H12556.3C12589 6.99997 12636.3 5.07999 12666.4 42.2C12681.1 60.12 12690.1 87 12690.1 120.28V154.2C12690.1 183 12679.8 209.88 12666.4 225.24C12656.8 236.12 12644 243.8 12632.5 248.28L12702.9 455H12636.3L12574.2 261.72H12536.5V455H12472.5V6.99997ZM12536.5 64.6V204.12H12573C12587 204.12 12600.5 200.92 12612.6 189.4C12625.4 177.24 12626.1 166.36 12626.1 149.08V117.08C12626.1 99.8 12619.7 84.44 12611.4 76.12C12598.6 63.32 12583.2 64.6 12569.8 64.6H12536.5ZM12751.1 6.99997H12815.1V222.68L12916.8 6.99997H12984L12893.2 190.68L13000.7 455H12930.9L12854.8 254.68L12815.1 323.8V455H12751.1V6.99997ZM13173.1 131.16V119C13173.1 109.4 13172.5 90.84 13162.3 78.04C13156.5 71 13146.9 63.32 13128.3 63.32C13119.4 63.32 13107.2 65.24 13097 75.48C13084.8 88.28 13083.5 106.2 13083.5 120.92C13083.5 133.08 13085.5 155.48 13093.8 167.64C13100.8 178.52 13113.6 183.64 13123.2 187.48L13162.3 201.56C13181.5 208.6 13203.9 216.92 13220.5 239.96C13237.8 263.64 13239.7 289.24 13239.7 317.4V332.76C13239.7 378.2 13227.5 412.76 13209 431.96C13192.3 449.24 13162.9 461.4 13125.8 461.4C13080.3 461.4 13050.9 442.84 13036.2 422.36C13015.7 394.84 13015.7 352.6 13015.7 346.84V332.12H13079.7V344.28C13079.7 354.52 13081 372.44 13089.9 383.96C13100.8 397.4 13116.8 398.68 13125.1 398.68C13149.5 398.68 13160.3 389.08 13165.5 382.68C13175.1 370.52 13175.7 351.96 13175.7 338.52V321.88C13175.7 306.52 13173.8 287.32 13165.5 275.8C13157.1 264.28 13141.8 258.52 13134.7 255.96L13088 239.32C13065 231 13041.9 219.48 13029.1 189.4C13020.2 168.92 13019.5 146.52 13019.5 124.12V111.32C13019.5 74.2 13034.3 46.04 13052.8 28.12C13073.9 7.63996 13100.8 0.599976 13130.3 0.599976C13194.3 0.599976 13237.1 42.2 13237.1 116.44V131.16H13173.1ZM13263.2 6.99997H13331.1L13366.9 286.04H13369.5L13420.7 6.99997H13468.7L13519.9 286.04H13523.7L13558.3 6.99997H13626.1L13555.7 455H13498.1L13446.9 165.72H13442.4L13391.2 455H13333.6L13263.2 6.99997ZM13654.3 337.24V124.76C13654.3 90.84 13656.9 58.2 13687.6 29.4C13706.8 11.48 13733 0.599976 13766.3 0.599976C13799.6 0.599976 13825.8 11.48 13845 29.4C13875.8 58.2 13878.3 90.84 13878.3 124.76V337.24C13878.3 371.16 13875.8 403.8 13845 432.6C13825.8 450.52 13799.6 461.4 13766.3 461.4C13733 461.4 13706.8 450.52 13687.6 432.6C13656.9 403.8 13654.3 371.16 13654.3 337.24ZM13814.3 346.84V115.16C13814.3 101.72 13813 88.28 13800.9 76.12C13793.8 69.08 13782.3 63.32 13766.3 63.32C13750.3 63.32 13738.8 69.08 13731.8 76.12C13719.6 88.28 13718.3 101.72 13718.3 115.16V346.84C13718.3 360.28 13719.6 373.72 13731.8 385.88C13738.8 392.92 13750.3 398.68 13766.3 398.68C13782.3 398.68 13793.8 392.92 13800.9 385.88C13813 373.72 13814.3 360.28 13814.3 346.84ZM13946.1 6.99997H14029.9C14062.6 6.99997 14109.9 5.07999 14140 42.2C14154.7 60.12 14163.7 87 14163.7 120.28V154.2C14163.7 183 14153.5 209.88 14140 225.24C14130.4 236.12 14117.6 243.8 14106.1 248.28L14176.5 455H14109.9L14047.9 261.72H14010.1V455H13946.1V6.99997ZM14010.1 64.6V204.12H14046.6C14060.7 204.12 14074.1 200.92 14086.3 189.4C14099.1 177.24 14099.7 166.36 14099.7 149.08V117.08C14099.7 99.8 14093.3 84.44 14085 76.12C14072.2 63.32 14056.8 64.6 14043.4 64.6H14010.1ZM14224.7 6.99997H14288.7V222.68L14390.5 6.99997H14457.7L14366.8 190.68L14474.3 455H14404.5L14328.4 254.68L14288.7 323.8V455H14224.7V6.99997ZM14646.8 131.16V119C14646.8 109.4 14646.1 90.84 14635.9 78.04C14630.1 71 14620.5 63.32 14602 63.32C14593 63.32 14580.8 65.24 14570.6 75.48C14558.4 88.28 14557.2 106.2 14557.2 120.92C14557.2 133.08 14559.1 155.48 14567.4 167.64C14574.4 178.52 14587.2 183.64 14596.8 187.48L14635.9 201.56C14655.1 208.6 14677.5 216.92 14694.1 239.96C14711.4 263.64 14713.3 289.24 14713.3 317.4V332.76C14713.3 378.2 14701.2 412.76 14682.6 431.96C14666 449.24 14636.5 461.4 14599.4 461.4C14554 461.4 14524.5 442.84 14509.8 422.36C14489.3 394.84 14489.3 352.6 14489.3 346.84V332.12H14553.3V344.28C14553.3 354.52 14554.6 372.44 14563.6 383.96C14574.4 397.4 14590.4 398.68 14598.8 398.68C14623.1 398.68 14634 389.08 14639.1 382.68C14648.7 370.52 14649.3 351.96 14649.3 338.52V321.88C14649.3 306.52 14647.4 287.32 14639.1 275.8C14630.8 264.28 14615.4 258.52 14608.4 255.96L14561.6 239.32C14538.6 231 14515.6 219.48 14502.8 189.4C14493.8 168.92 14493.2 146.52 14493.2 124.12V111.32C14493.2 74.2 14507.9 46.04 14526.4 28.12C14547.6 7.63996 14574.4 0.599976 14603.9 0.599976C14667.9 0.599976 14710.8 42.2 14710.8 116.44V131.16H14646.8ZM14736.9 6.99997H14804.7L14840.5 286.04H14843.1L14894.3 6.99997H14942.3L14993.5 286.04H14997.3L15031.9 6.99997H15099.7L15029.3 455H14971.7L14920.5 165.72H14916.1L14864.9 455H14807.2L14736.9 6.99997ZM15127.9 337.24V124.76C15127.9 90.84 15130.5 58.2 15161.2 29.4C15180.4 11.48 15206.7 0.599976 15239.9 0.599976C15273.2 0.599976 15299.5 11.48 15318.7 29.4C15349.4 58.2 15351.9 90.84 15351.9 124.76V337.24C15351.9 371.16 15349.4 403.8 15318.7 432.6C15299.5 450.52 15273.2 461.4 15239.9 461.4C15206.7 461.4 15180.4 450.52 15161.2 432.6C15130.5 403.8 15127.9 371.16 15127.9 337.24ZM15287.9 346.84V115.16C15287.9 101.72 15286.7 88.28 15274.5 76.12C15267.5 69.08 15255.9 63.32 15239.9 63.32C15223.9 63.32 15212.4 69.08 15205.4 76.12C15193.2 88.28 15191.9 101.72 15191.9 115.16V346.84C15191.9 360.28 15193.2 373.72 15205.4 385.88C15212.4 392.92 15223.9 398.68 15239.9 398.68C15255.9 398.68 15267.5 392.92 15274.5 385.88C15286.7 373.72 15287.9 360.28 15287.9 346.84ZM15419.7 6.99997H15503.6C15536.2 6.99997 15583.6 5.07999 15613.6 42.2C15628.4 60.12 15637.3 87 15637.3 120.28V154.2C15637.3 183 15627.1 209.88 15613.6 225.24C15604 236.12 15591.2 243.8 15579.7 248.28L15650.1 455H15583.6L15521.5 261.72H15483.7V455H15419.7V6.99997ZM15483.7 64.6V204.12H15520.2C15534.3 204.12 15547.7 200.92 15559.9 189.4C15572.7 177.24 15573.3 166.36 15573.3 149.08V117.08C15573.3 99.8 15566.9 84.44 15558.6 76.12C15545.8 63.32 15530.4 64.6 15517 64.6H15483.7ZM15698.3 6.99997H15762.3V222.68L15864.1 6.99997H15931.3L15840.4 190.68L15947.9 455H15878.2L15802 254.68L15762.3 323.8V455H15698.3V6.99997ZM16120.4 131.16V119C16120.4 109.4 16119.8 90.84 16109.5 78.04C16103.8 71 16094.2 63.32 16075.6 63.32C16066.6 63.32 16054.5 65.24 16044.2 75.48C16032.1 88.28 16030.8 106.2 16030.8 120.92C16030.8 133.08 16032.7 155.48 16041 167.64C16048.1 178.52 16060.9 183.64 16070.5 187.48L16109.5 201.56C16128.7 208.6 16151.1 216.92 16167.8 239.96C16185 263.64 16187 289.24 16187 317.4V332.76C16187 378.2 16174.8 412.76 16156.2 431.96C16139.6 449.24 16110.2 461.4 16073 461.4C16027.6 461.4 15998.2 442.84 15983.4 422.36C15963 394.84 15963 352.6 15963 346.84V332.12H16027V344.28C16027 354.52 16028.2 372.44 16037.2 383.96C16048.1 397.4 16064.1 398.68 16072.4 398.68C16096.7 398.68 16107.6 389.08 16112.7 382.68C16122.3 370.52 16123 351.96 16123 338.52V321.88C16123 306.52 16121 287.32 16112.7 275.8C16104.4 264.28 16089 258.52 16082 255.96L16035.3 239.32C16012.2 231 15989.2 219.48 15976.4 189.4C15967.4 168.92 15966.8 146.52 15966.8 124.12V111.32C15966.8 74.2 15981.5 46.04 16000.1 28.12C16021.2 7.63996 16048.1 0.599976 16077.5 0.599976C16141.5 0.599976 16184.4 42.2 16184.4 116.44V131.16H16120.4ZM16210.5 6.99997H16278.3L16314.2 286.04H16316.7L16367.9 6.99997H16415.9L16467.1 286.04H16471L16505.5 6.99997H16573.4L16503 455H16445.4L16394.2 165.72H16389.7L16338.5 455H16280.9L16210.5 6.99997ZM16601.6 337.24V124.76C16601.6 90.84 16604.1 58.2 16634.8 29.4C16654 11.48 16680.3 0.599976 16713.6 0.599976C16746.8 0.599976 16773.1 11.48 16792.3 29.4C16823 58.2 16825.6 90.84 16825.6 124.76V337.24C16825.6 371.16 16823 403.8 16792.3 432.6C16773.1 450.52 16746.8 461.4 16713.6 461.4C16680.3 461.4 16654 450.52 16634.8 432.6C16604.1 403.8 16601.6 371.16 16601.6 337.24ZM16761.6 346.84V115.16C16761.6 101.72 16760.3 88.28 16748.1 76.12C16741.1 69.08 16729.6 63.32 16713.6 63.32C16697.6 63.32 16686 69.08 16679 76.12C16666.8 88.28 16665.6 101.72 16665.6 115.16V346.84C16665.6 360.28 16666.8 373.72 16679 385.88C16686 392.92 16697.6 398.68 16713.6 398.68C16729.6 398.68 16741.1 392.92 16748.1 385.88C16760.3 373.72 16761.6 360.28 16761.6 346.84ZM16893.3 6.99997H16977.2C17009.8 6.99997 17057.2 5.07999 17087.3 42.2C17102 60.12 17110.9 87 17110.9 120.28V154.2C17110.9 183 17100.7 209.88 17087.3 225.24C17077.7 236.12 17064.9 243.8 17053.3 248.28L17123.7 455H17057.2L16995.1 261.72H16957.3V455H16893.3V6.99997ZM16957.3 64.6V204.12H16993.8C17007.9 204.12 17021.3 200.92 17033.5 189.4C17046.3 177.24 17046.9 166.36 17046.9 149.08V117.08C17046.9 99.8 17040.5 84.44 17032.2 76.12C17019.4 63.32 17004.1 64.6 16990.6 64.6H16957.3ZM17172 6.99997H17236V222.68L17337.7 6.99997H17404.9L17314 190.68L17421.6 455H17351.8L17275.6 254.68L17236 323.8V455H17172V6.99997ZM17594 131.16V119C17594 109.4 17593.4 90.84 17583.1 78.04C17577.4 71 17567.8 63.32 17549.2 63.32C17540.3 63.32 17528.1 65.24 17517.9 75.48C17505.7 88.28 17504.4 106.2 17504.4 120.92C17504.4 133.08 17506.3 155.48 17514.7 167.64C17521.7 178.52 17534.5 183.64 17544.1 187.48L17583.1 201.56C17602.3 208.6 17624.7 216.92 17641.4 239.96C17658.7 263.64 17660.6 289.24 17660.6 317.4V332.76C17660.6 378.2 17648.4 412.76 17629.9 431.96C17613.2 449.24 17583.8 461.4 17546.7 461.4C17501.2 461.4 17471.8 442.84 17457.1 422.36C17436.6 394.84 17436.6 352.6 17436.6 346.84V332.12H17500.6V344.28C17500.6 354.52 17501.9 372.44 17510.8 383.96C17521.7 397.4 17537.7 398.68 17546 398.68C17570.3 398.68 17581.2 389.08 17586.3 382.68C17595.9 370.52 17596.6 351.96 17596.6 338.52V321.88C17596.6 306.52 17594.7 287.32 17586.3 275.8C17578 264.28 17562.7 258.52 17555.6 255.96L17508.9 239.32C17485.9 231 17462.8 219.48 17450 189.4C17441.1 168.92 17440.4 146.52 17440.4 124.12V111.32C17440.4 74.2 17455.1 46.04 17473.7 28.12C17494.8 7.63996 17521.7 0.599976 17551.1 0.599976C17615.1 0.599976 17658 42.2 17658 116.44V131.16H17594ZM17684.1 6.99997H17751.9L17787.8 286.04H17790.3L17841.5 6.99997H17889.5L17940.7 286.04H17944.6L17979.1 6.99997H18047L17976.6 455H17919L17867.8 165.72H17863.3L17812.1 455H17754.5L17684.1 6.99997ZM18075.2 337.24V124.76C18075.2 90.84 18077.7 58.2 18108.5 29.4C18127.7 11.48 18153.9 0.599976 18187.2 0.599976C18220.5 0.599976 18246.7 11.48 18265.9 29.4C18296.6 58.2 18299.2 90.84 18299.2 124.76V337.24C18299.2 371.16 18296.6 403.8 18265.9 432.6C18246.7 450.52 18220.5 461.4 18187.2 461.4C18153.9 461.4 18127.7 450.52 18108.5 432.6C18077.7 403.8 18075.2 371.16 18075.2 337.24ZM18235.2 346.84V115.16C18235.2 101.72 18233.9 88.28 18221.7 76.12C18214.7 69.08 18203.2 63.32 18187.2 63.32C18171.2 63.32 18159.7 69.08 18152.6 76.12C18140.5 88.28 18139.2 101.72 18139.2 115.16V346.84C18139.2 360.28 18140.5 373.72 18152.6 385.88C18159.7 392.92 18171.2 398.68 18187.2 398.68C18203.2 398.68 18214.7 392.92 18221.7 385.88C18233.9 373.72 18235.2 360.28 18235.2 346.84ZM18367 6.99997H18450.8C18483.5 6.99997 18530.8 5.07999 18560.9 42.2C18575.6 60.12 18584.6 87 18584.6 120.28V154.2C18584.6 183 18574.3 209.88 18560.9 225.24C18551.3 236.12 18538.5 243.8 18527 248.28L18597.4 455H18530.8L18468.7 261.72H18431V455H18367V6.99997ZM18431 64.6V204.12H18467.5C18481.5 204.12 18495 200.92 18507.1 189.4C18519.9 177.24 18520.6 166.36 18520.6 149.08V117.08C18520.6 99.8 18514.2 84.44 18505.9 76.12C18493.1 63.32 18477.7 64.6 18464.3 64.6H18431ZM18645.6 6.99997H18709.6V222.68L18811.3 6.99997H18878.5L18787.7 190.68L18895.2 455H18825.4L18749.3 254.68L18709.6 323.8V455H18645.6V6.99997ZM19067.6 131.16V119C19067.6 109.4 19067 90.84 19056.8 78.04C19051 71 19041.4 63.32 19022.8 63.32C19013.9 63.32 19001.7 65.24 18991.5 75.48C18979.3 88.28 18978 106.2 18978 120.92C18978 133.08 18980 155.48 18988.3 167.64C18995.3 178.52 19008.1 183.64 19017.7 187.48L19056.8 201.56C19076 208.6 19098.4 216.92 19115 239.96C19132.3 263.64 19134.2 289.24 19134.2 317.4V332.76C19134.2 378.2 19122 412.76 19103.5 431.96C19086.8 449.24 19057.4 461.4 19020.3 461.4C18974.8 461.4 18945.4 442.84 18930.7 422.36C18910.2 394.84 18910.2 352.6 18910.2 346.84V332.12H18974.2V344.28C18974.2 354.52 18975.5 372.44 18984.4 383.96C18995.3 397.4 19011.3 398.68 19019.6 398.68C19044 398.68 19054.8 389.08 19060 382.68C19069.6 370.52 19070.2 351.96 19070.2 338.52V321.88C19070.2 306.52 19068.3 287.32 19060 275.8C19051.6 264.28 19036.3 258.52 19029.2 255.96L18982.5 239.32C18959.5 231 18936.4 219.48 18923.6 189.4C18914.7 168.92 18914 146.52 18914 124.12V111.32C18914 74.2 18928.8 46.04 18947.3 28.12C18968.4 7.63996 18995.3 0.599976 19024.8 0.599976C19088.8 0.599976 19131.6 42.2 19131.6 116.44V131.16H19067.6ZM19157.7 6.99997H19225.6L19261.4 286.04H19264L19315.2 6.99997H19363.2L19414.4 286.04H19418.2L19452.8 6.99997H19520.6L19450.2 455H19392.6L19341.4 165.72H19336.9L19285.7 455H19228.1L19157.7 6.99997ZM19548.8 337.24V124.76C19548.8 90.84 19551.4 58.2 19582.1 29.4C19601.3 11.48 19627.5 0.599976 19660.8 0.599976C19694.1 0.599976 19720.3 11.48 19739.5 29.4C19770.3 58.2 19772.8 90.84 19772.8 124.76V337.24C19772.8 371.16 19770.3 403.8 19739.5 432.6C19720.3 450.52 19694.1 461.4 19660.8 461.4C19627.5 461.4 19601.3 450.52 19582.1 432.6C19551.4 403.8 19548.8 371.16 19548.8 337.24ZM19708.8 346.84V115.16C19708.8 101.72 19707.5 88.28 19695.4 76.12C19688.3 69.08 19676.8 63.32 19660.8 63.32C19644.8 63.32 19633.3 69.08 19626.3 76.12C19614.1 88.28 19612.8 101.72 19612.8 115.16V346.84C19612.8 360.28 19614.1 373.72 19626.3 385.88C19633.3 392.92 19644.8 398.68 19660.8 398.68C19676.8 398.68 19688.3 392.92 19695.4 385.88C19707.5 373.72 19708.8 360.28 19708.8 346.84ZM19840.6 6.99997H19924.4C19957.1 6.99997 20004.4 5.07999 20034.5 42.2C20049.2 60.12 20058.2 87 20058.2 120.28V154.2C20058.2 183 20048 209.88 20034.5 225.24C20024.9 236.12 20012.1 243.8 20000.6 248.28L20071 455H20004.4L19942.4 261.72H19904.6V455H19840.6V6.99997ZM19904.6 64.6V204.12H19941.1C19955.2 204.12 19968.6 200.92 19980.8 189.4C19993.6 177.24 19994.2 166.36 19994.2 149.08V117.08C19994.2 99.8 19987.8 84.44 19979.5 76.12C19966.7 63.32 19951.3 64.6 19937.9 64.6H19904.6ZM20119.2 6.99997H20183.2V222.68L20285 6.99997H20352.2L20261.3 190.68L20368.8 455H20299L20222.9 254.68L20183.2 323.8V455H20119.2V6.99997ZM20541.3 131.16V119C20541.3 109.4 20540.6 90.84 20530.4 78.04C20524.6 71 20515 63.32 20496.5 63.32C20487.5 63.32 20475.3 65.24 20465.1 75.48C20452.9 88.28 20451.7 106.2 20451.7 120.92C20451.7 133.08 20453.6 155.48 20461.9 167.64C20468.9 178.52 20481.7 183.64 20491.3 187.48L20530.4 201.56C20549.6 208.6 20572 216.92 20588.6 239.96C20605.9 263.64 20607.8 289.24 20607.8 317.4V332.76C20607.8 378.2 20595.7 412.76 20577.1 431.96C20560.5 449.24 20531 461.4 20493.9 461.4C20448.5 461.4 20419 442.84 20404.3 422.36C20383.8 394.84 20383.8 352.6 20383.8 346.84V332.12H20447.8V344.28C20447.8 354.52 20449.1 372.44 20458.1 383.96C20468.9 397.4 20484.9 398.68 20493.3 398.68C20517.6 398.68 20528.5 389.08 20533.6 382.68C20543.2 370.52 20543.8 351.96 20543.8 338.52V321.88C20543.8 306.52 20541.9 287.32 20533.6 275.8C20525.3 264.28 20509.9 258.52 20502.9 255.96L20456.1 239.32C20433.1 231 20410.1 219.48 20397.3 189.4C20388.3 168.92 20387.7 146.52 20387.7 124.12V111.32C20387.7 74.2 20402.4 46.04 20420.9 28.12C20442.1 7.63996 20468.9 0.599976 20498.4 0.599976C20562.4 0.599976 20605.3 42.2 20605.3 116.44V131.16H20541.3ZM20631.4 6.99997H20699.2L20735 286.04H20737.6L20788.8 6.99997H20836.8L20888 286.04H20891.8L20926.4 6.99997H20994.2L20923.8 455H20866.2L20815 165.72H20810.6L20759.4 455H20701.8L20631.4 6.99997ZM21022.4 337.24V124.76C21022.4 90.84 21025 58.2 21055.7 29.4C21074.9 11.48 21101.2 0.599976 21134.4 0.599976C21167.7 0.599976 21194 11.48 21213.2 29.4C21243.9 58.2 21246.4 90.84 21246.4 124.76V337.24C21246.4 371.16 21243.9 403.8 21213.2 432.6C21194 450.52 21167.7 461.4 21134.4 461.4C21101.2 461.4 21074.9 450.52 21055.7 432.6C21025 403.8 21022.4 371.16 21022.4 337.24ZM21182.4 346.84V115.16C21182.4 101.72 21181.2 88.28 21169 76.12C21162 69.08 21150.4 63.32 21134.4 63.32C21118.4 63.32 21106.9 69.08 21099.9 76.12C21087.7 88.28 21086.4 101.72 21086.4 115.16V346.84C21086.4 360.28 21087.7 373.72 21099.9 385.88C21106.9 392.92 21118.4 398.68 21134.4 398.68C21150.4 398.68 21162 392.92 21169 385.88C21181.2 373.72 21182.4 360.28 21182.4 346.84ZM21314.2 6.99997H21398.1C21430.7 6.99997 21478.1 5.07999 21508.1 42.2C21522.9 60.12 21531.8 87 21531.8 120.28V154.2C21531.8 183 21521.6 209.88 21508.1 225.24C21498.5 236.12 21485.7 243.8 21474.2 248.28L21544.6 455H21478.1L21416 261.72H21378.2V455H21314.2V6.99997ZM21378.2 64.6V204.12H21414.7C21428.8 204.12 21442.2 200.92 21454.4 189.4C21467.2 177.24 21467.8 166.36 21467.8 149.08V117.08C21467.8 99.8 21461.4 84.44 21453.1 76.12C21440.3 63.32 21424.9 64.6 21411.5 64.6H21378.2ZM21592.8 6.99997H21656.8V222.68L21758.6 6.99997H21825.8L21734.9 190.68L21842.4 455H21772.7L21696.5 254.68L21656.8 323.8V455H21592.8V6.99997ZM22014.9 131.16V119C22014.9 109.4 22014.3 90.84 22004 78.04C21998.3 71 21988.7 63.32 21970.1 63.32C21961.1 63.32 21949 65.24 21938.7 75.48C21926.6 88.28 21925.3 106.2 21925.3 120.92C21925.3 133.08 21927.2 155.48 21935.5 167.64C21942.6 178.52 21955.4 183.64 21965 187.48L22004 201.56C22023.2 208.6 22045.6 216.92 22062.3 239.96C22079.5 263.64 22081.5 289.24 22081.5 317.4V332.76C22081.5 378.2 22069.3 412.76 22050.7 431.96C22034.1 449.24 22004.7 461.4 21967.5 461.4C21922.1 461.4 21892.7 442.84 21877.9 422.36C21857.5 394.84 21857.5 352.6 21857.5 346.84V332.12H21921.5V344.28C21921.5 354.52 21922.7 372.44 21931.7 383.96C21942.6 397.4 21958.6 398.68 21966.9 398.68C21991.2 398.68 22002.1 389.08 22007.2 382.68C22016.8 370.52 22017.5 351.96 22017.5 338.52V321.88C22017.5 306.52 22015.5 287.32 22007.2 275.8C21998.9 264.28 21983.5 258.52 21976.5 255.96L21929.8 239.32C21906.7 231 21883.7 219.48 21870.9 189.4C21861.9 168.92 21861.3 146.52 21861.3 124.12V111.32C21861.3 74.2 21876 46.04 21894.6 28.12C21915.7 7.63996 21942.6 0.599976 21972 0.599976C22036 0.599976 22078.9 42.2 22078.9 116.44V131.16H22014.9ZM22105 6.99997H22172.8L22208.7 286.04H22211.2L22262.4 6.99997H22310.4L22361.6 286.04H22365.5L22400 6.99997H22467.9L22397.5 455H22339.9L22288.7 165.72H22284.2L22233 455H22175.4L22105 6.99997ZM22496.1 337.24V124.76C22496.1 90.84 22498.6 58.2 22529.3 29.4C22548.5 11.48 22574.8 0.599976 22608.1 0.599976C22641.3 0.599976 22667.6 11.48 22686.8 29.4C22717.5 58.2 22720.1 90.84 22720.1 124.76V337.24C22720.1 371.16 22717.5 403.8 22686.8 432.6C22667.6 450.52 22641.3 461.4 22608.1 461.4C22574.8 461.4 22548.5 450.52 22529.3 432.6C22498.6 403.8 22496.1 371.16 22496.1 337.24ZM22656.1 346.84V115.16C22656.1 101.72 22654.8 88.28 22642.6 76.12C22635.6 69.08 22624.1 63.32 22608.1 63.32C22592.1 63.32 22580.5 69.08 22573.5 76.12C22561.3 88.28 22560.1 101.72 22560.1 115.16V346.84C22560.1 360.28 22561.3 373.72 22573.5 385.88C22580.5 392.92 22592.1 398.68 22608.1 398.68C22624.1 398.68 22635.6 392.92 22642.6 385.88C22654.8 373.72 22656.1 360.28 22656.1 346.84ZM22787.8 6.99997H22871.7C22904.3 6.99997 22951.7 5.07999 22981.8 42.2C22996.5 60.12 23005.4 87 23005.4 120.28V154.2C23005.4 183 22995.2 209.88 22981.8 225.24C22972.2 236.12 22959.4 243.8 22947.8 248.28L23018.2 455H22951.7L22889.6 261.72H22851.8V455H22787.8V6.99997ZM22851.8 64.6V204.12H22888.3C22902.4 204.12 22915.8 200.92 22928 189.4C22940.8 177.24 22941.4 166.36 22941.4 149.08V117.08C22941.4 99.8 22935 84.44 22926.7 76.12C22913.9 63.32 22898.6 64.6 22885.1 64.6H22851.8ZM23066.5 6.99997H23130.5V222.68L23232.2 6.99997H23299.4L23208.5 190.68L23316.1 455H23246.3L23170.1 254.68L23130.5 323.8V455H23066.5V6.99997ZM23488.5 131.16V119C23488.5 109.4 23487.9 90.84 23477.6 78.04C23471.9 71 23462.3 63.32 23443.7 63.32C23434.8 63.32 23422.6 65.24 23412.4 75.48C23400.2 88.28 23398.9 106.2 23398.9 120.92C23398.9 133.08 23400.8 155.48 23409.2 167.64C23416.2 178.52 23429 183.64 23438.6 187.48L23477.6 201.56C23496.8 208.6 23519.2 216.92 23535.9 239.96C23553.2 263.64 23555.1 289.24 23555.1 317.4V332.76C23555.1 378.2 23542.9 412.76 23524.4 431.96C23507.7 449.24 23478.3 461.4 23441.2 461.4C23395.7 461.4 23366.3 442.84 23351.6 422.36C23331.1 394.84 23331.1 352.6 23331.1 346.84V332.12H23395.1V344.28C23395.1 354.52 23396.4 372.44 23405.3 383.96C23416.2 397.4 23432.2 398.68 23440.5 398.68C23464.8 398.68 23475.7 389.08 23480.8 382.68C23490.4 370.52 23491.1 351.96 23491.1 338.52V321.88C23491.1 306.52 23489.2 287.32 23480.8 275.8C23472.5 264.28 23457.2 258.52 23450.1 255.96L23403.4 239.32C23380.4 231 23357.3 219.48 23344.5 189.4C23335.6 168.92 23334.9 146.52 23334.9 124.12V111.32C23334.9 74.2 23349.6 46.04 23368.2 28.12C23389.3 7.63996 23416.2 0.599976 23445.6 0.599976C23509.6 0.599976 23552.5 42.2 23552.5 116.44V131.16H23488.5Z" fill="#97C9ED" fill-opacity="0.2"/>
</svg>
